SplineFontDB: 3.0
FontName: Ume-P-Gothic-Vertical
FullName: Ume P Gothic Vertical
FamilyName: Ume P Gothic Vertical
Weight: Book Italic
Copyright: Author: HORAI Wataru. License: This font is a free software. Unlimited permission is granted to use, copy, and distribute it, with or without modification, either commercially and noncommercially. THIS FONT IS PROVIDED "AS IS" WITHOUT WARRANTY.\nItalicized by OSP and Fontforge.
FontLog: "May 2012+AAoA-Italicized by OSP and Fontforge." 
Version: Look update time of this file.
ItalicAngle: 0
UnderlinePosition: -72
UnderlineWidth: 48
Ascent: 3520
Descent: 576
sfntRevision: 0x00050000
LayerCount: 2
Layer: 0 1 "Back"  1
Layer: 1 1 "Fore"  0
XUID: [1021 32 786411109 10707100]
FSType: 8
OS2Version: 1
OS2_WeightWidthSlopeOnly: 0
OS2_UseTypoMetrics: 1
CreationTime: -2082844800
ModificationTime: 1336833438
PfmFamily: 17
TTFWeight: 400
TTFWidth: 5
LineGap: 0
VLineGap: 0
Panose: 2 0 6 0 0 0 0 0 0 0
OS2TypoAscent: 0
OS2TypoAOffset: 1
OS2TypoDescent: 0
OS2TypoDOffset: 1
OS2TypoLinegap: 0
OS2WinAscent: -224
OS2WinAOffset: 1
OS2WinDescent: -112
OS2WinDOffset: 1
HheadAscent: -224
HheadAOffset: 1
HheadDescent: 112
HheadDOffset: 1
OS2SubXSize: 2048
OS2SubYSize: 2048
OS2SubXOff: 0
OS2SubYOff: 1472
OS2SupXSize: 2048
OS2SupYSize: 2048
OS2SupXOff: 0
OS2SupYOff: 1760
OS2StrikeYSize: 208
OS2StrikeYPos: 1056
OS2Vendor: 'Take'
OS2CodePages: 4002009f.dfd70000
OS2UnicodeRanges: a00002bf.68c7fcfb.00000010.00000000
Lookup: 1 1 0 "'vert' Vertical Alternates (obs) in Hiragana & Katakana lookup 0"  {"'vert' Vertical Alternates (obs) in Hiragana & Katakana lookup 0 subtable"  } ['vert' ('kana' <'JAN ' 'dflt' > ) ]
MarkAttachClasses: 1
DEI: 91125
TtTable: prep
PUSHW_1
 511
SCANCTRL
PUSHB_1
 1
SCANTYPE
PUSHB_2
 1
 129
RCVT
WCVTP
PUSHB_2
 2
 130
RCVT
WCVTP
PUSHB_2
 3
 131
RCVT
WCVTP
PUSHB_2
 4
 132
RCVT
WCVTP
PUSHB_2
 5
 133
RCVT
WCVTP
PUSHB_2
 6
 134
RCVT
WCVTP
PUSHB_2
 7
 135
RCVT
WCVTP
PUSHB_2
 8
 136
RCVT
WCVTP
PUSHB_2
 9
 137
RCVT
WCVTP
PUSHB_2
 10
 138

StartChar: .notdef
Encoding: 65536 -1 0
Width: 614
Flags: W
LayerCount: 2
Fore
SplineSet
300 400 m 1,0,-1
 351 620 l 1,1,-1
 555 620 l 1,2,-1
 504 400 l 1,3,-1
 300 400 l 1,0,-1
EndSplineSet
EndChar

StartChar: exclam
Encoding: 33 33 4
Width: 1119
GlyphClass: 2
Flags: W
LayerCount: 2
Fore
SplineSet
236 -304 m 1,0,-1
 372 288 l 1,1,-1
 878 288 l 1,2,-1
 741 -304 l 1,3,-1
 236 -304 l 1,0,-1
1525 3088 m 1,4,-1
 881 688 l 1,5,-1
 554 688 l 1,6,-1
 1019 3088 l 1,7,-1
 1525 3088 l 1,4,-1
EndSplineSet
EndChar

StartChar: quotedbl
Encoding: 34 34 5
Width: 1618
GlyphClass: 2
Flags: W
LayerCount: 2
Fore
SplineSet
2113 3104 m 1,0,-1
 1977 2512 l 1,1,2
 1803 1760 1803 1760 1364 1728 c 1,3,-1
 1431 2016 l 1,4,5
 1639 2016 1639 2016 1757 2528 c 1,6,-1
 1549 2528 l 1,7,-1
 1682 3104 l 1,8,-1
 2113 3104 l 1,0,-1
1414 3104 m 1,9,-1
 1277 2512 l 2,10,11
 1103 1760 1103 1760 665 1728 c 1,12,-1
 731 2016 l 1,13,14
 939 2016 939 2016 1058 2528 c 1,15,-1
 849 2528 l 1,16,-1
 982 3104 l 1,17,-1
 1414 3104 l 1,9,-1
EndSplineSet
EndChar

StartChar: numbersign
Encoding: 35 35 6
Width: 2760
GlyphClass: 2
Flags: W
LayerCount: 2
Fore
SplineSet
1655 2160 m 1,0,-1
 1173 848 l 1,1,-1
 1858 848 l 1,2,-1
 2339 2160 l 1,3,-1
 1655 2160 l 1,0,-1
729 -304 m 1,4,-1
 431 -304 l 1,5,-1
 764 560 l 1,6,-1
 214 560 l 1,7,-1
 280 848 l 1,8,-1
 876 848 l 1,9,-1
 1357 2160 l 1,10,-1
 807 2160 l 1,11,-1
 869 2432 l 1,12,-1
 1465 2432 l 1,13,-1
 1742 3248 l 1,14,-1
 2040 3248 l 1,15,-1
 1747 2432 l 1,16,-1
 2447 2432 l 1,17,-1
 2724 3248 l 1,18,-1
 3007 3248 l 1,19,-1
 2729 2432 l 1,20,-1
 3250 2432 l 1,21,-1
 3187 2160 l 1,22,-1
 2637 2160 l 1,23,-1
 2155 848 l 1,24,-1
 2691 848 l 1,25,-1
 2624 560 l 1,26,-1
 2044 560 l 1,27,-1
 1711 -304 l 1,28,-1
 1413 -304 l 1,29,-1
 1747 560 l 1,30,-1
 1062 560 l 1,31,-1
 729 -304 l 1,4,-1
EndSplineSet
EndChar

StartChar: dollar
Encoding: 36 36 7
Width: 2435
GlyphClass: 2
Flags: W
LayerCount: 2
Fore
SplineSet
1059 2176 m 0,0,1
 1047.64516129 2126.4516129 1047.64516129 2126.4516129 1047.64516129 2083.29656608 c 0,2,3
 1047.64516129 1959.22580645 1047.64516129 1959.22580645 1141.5 1888 c 0,4,5
 1268 1792 1268 1792 1451 1744 c 1,6,-1
 1654 2624 l 1,7,8
 1397 2608 1397 2608 1254 2504 c 128,-1,9
 1111 2400 1111 2400 1059 2176 c 0,0,1
2126 864 m 0,10,11
 2143.74193548 941.419354839 2143.74193548 941.419354839 2143.74193548 1005.51925078 c 0,12,13
 2143.74193548 1140.12903226 2143.74193548 1140.12903226 2065.5 1216 c 0,14,15
 1950 1328 1950 1328 1637 1392 c 1,16,-1
 1401 368 l 1,17,18
 1702 384 1702 384 1888 512 c 128,-1,19
 2074 640 2074 640 2126 864 c 0,10,11
325 864 m 1,20,-1
 652 864 l 1,21,22
 634.329949239 787.329949239 634.329949239 787.329949239 634.329949239 723.576077714 c 0,23,24
 634.329949239 574.456852792 634.329949239 574.456852792 731 496 c 0,25,26
 869 384 869 384 1133 368 c 1,27,-1
 1388 1472 l 1,28,29
 1001 1536 1001 1536 842.5 1720 c 0,30,31
 729.081264108 1851.66591422 729.081264108 1851.66591422 729.081264108 2028.39209372 c 0,32,33
 729.081264108 2098.63656885 729.081264108 2098.63656885 747 2176 c 0,34,35
 813 2464 813 2464 1053 2664 c 128,-1,36
 1293 2864 1293 2864 1713 2880 c 1,37,-1
 1798 3248 l 1,38,-1
 2066 3248 l 1,39,-1
 1981 2880 l 1,40,41
 2349 2864 2349 2864 2559.5 2680 c 0,42,43
 2721.511883 2538.38391225 2721.511883 2538.38391225 2721.511883 2344.63968664 c 0,44,45
 2721.511883 2286.65447898 2721.511883 2286.65447898 2707 2224 c 1,46,-1
 2350 2224 l 1,47,48
 2358.55625 2261 2358.55625 2261 2358.55625 2295.433125 c 0,49,50
 2358.55625 2409.9 2358.55625 2409.9 2264 2496 c 0,51,52
 2141 2608 2141 2608 1922 2624 c 1,53,-1
 1704 1680 l 1,54,55
 2128 1584 2128 1584 2331 1400 c 0,56,57
 2476.10211268 1268.47887324 2476.10211268 1268.47887324 2476.10211268 1051.12269391 c 0,58,59
 2476.10211268 964.394366197 2476.10211268 964.394366197 2453 864 c 0,60,61
 2372 512 2372 512 2078.5 304 c 128,-1,62
 1785 96 1785 96 1338 96 c 1,63,-1
 1246 -304 l 1,64,-1
 978 -304 l 1,65,-1
 1070 96 l 1,66,67
 598 112 598 112 422.5 320 c 0,68,69
 301 464 301 464 301 669.349112426 c 0,70,71
 301 760.615384615 301 760.615384615 325 864 c 1,20,-1
EndSplineSet
EndChar

StartChar: percent
Encoding: 37 37 8
Width: 3396
GlyphClass: 2
Flags: W
LayerCount: 2
Fore
SplineSet
2395 480 m 0,0,1
 2369.03433476 366.69527897 2369.03433476 366.69527897 2369.03433476 280.136307539 c 0,2,3
 2369.03433476 183.347639485 2369.03433476 183.347639485 2401.5 120 c 0,4,5
 2463 0 2463 0 2626 0 c 0,6,7
 2775 0 2775 0 2897.5 112 c 128,-1,8
 3020 224 3020 224 3079 480 c 0,9,10
 3103.49392713 586.882591093 3103.49392713 586.882591093 3103.49392713 669.965414939 c 0,11,12
 3103.49392713 773.441295547 3103.49392713 773.441295547 3065.5 840 c 0,13,14
 2997 960 2997 960 2848 960 c 0,15,16
 2669 960 2669 960 2558 832 c 128,-1,17
 2447 704 2447 704 2395 480 c 0,0,1
2097 480 m 0,18,19
 2178 832 2178 832 2406.5 1048 c 128,-1,20
 2635 1264 2635 1264 2918 1264 c 128,-1,21
 3201 1264 3201 1264 3329.5 1048 c 0,22,23
 3408.31742243 915.513126492 3408.31742243 915.513126492 3408.31742243 731.860766343 c 0,24,25
 3408.31742243 616.095465394 3408.31742243 616.095465394 3377 480 c 0,26,27
 3292 112 3292 112 3080.5 -96 c 128,-1,28
 2869 -304 2869 -304 2556 -304 c 0,29,30
 2258 -304 2258 -304 2135 -96 c 0,31,32
 2062.26442308 27 2062.26442308 27 2062.26442308 205.950443787 c 0,33,34
 2062.26442308 329.615384615 2062.26442308 329.615384615 2097 480 c 0,18,19
993 2464 m 0,35,36
 967.034334764 2350.69527897 967.034334764 2350.69527897 967.034334764 2264.13630754 c 0,37,38
 967.034334764 2167.34763948 967.034334764 2167.34763948 999.5 2104 c 0,39,40
 1061 1984 1061 1984 1209 1984 c 0,41,42
 1373 1984 1373 1984 1495.5 2096 c 128,-1,43
 1618 2208 1618 2208 1677 2464 c 0,44,45
 1701.49392713 2570.88259109 1701.49392713 2570.88259109 1701.49392713 2653.96541494 c 0,46,47
 1701.49392713 2757.44129555 1701.49392713 2757.44129555 1663.5 2824 c 0,48,49
 1595 2944 1595 2944 1431 2944 c 128,-1,50
 1267 2944 1267 2944 1156 2816 c 128,-1,51
 1045 2688 1045 2688 993 2464 c 0,35,36
695 2464 m 0,52,53
 776 2816 776 2816 1004.5 3032 c 128,-1,54
 1233 3248 1233 3248 1501 3248 c 0,55,56
 1799 3248 1799 3248 1927.5 3032 c 0,57,58
 2006.31742243 2899.51312649 2006.31742243 2899.51312649 2006.31742243 2715.86076634 c 0,59,60
 2006.31742243 2600.09546539 2006.31742243 2600.09546539 1975 2464 c 0,61,62
 1890 2096 1890 2096 1678.5 1888 c 128,-1,63
 1467 1680 1467 1680 1139 1680 c 0,64,65
 856 1680 856 1680 733 1888 c 0,66,67
 660.264423077 2011 660.264423077 2011 660.264423077 2189.95044379 c 0,68,69
 660.264423077 2313.61538462 660.264423077 2313.61538462 695 2464 c 0,52,53
748 -208 m 1,70,-1
 3093 3312 l 1,71,-1
 3339 3152 l 1,72,-1
 979 -368 l 1,73,-1
 748 -208 l 1,70,-1
EndSplineSet
EndChar

StartChar: ampersand
Encoding: 38 38 9
Width: 2961
GlyphClass: 2
Flags: W
LayerCount: 2
Fore
SplineSet
1972 560 m 1,0,1
 1566 864 1566 864 1290 1344 c 1,2,3
 714 1104 714 1104 621 768 c 1,4,5
 613.659517426 723.560321716 613.659517426 723.560321716 613.659517426 682.899122397 c 0,6,7
 613.659517426 518.605898123 613.659517426 518.605898123 733.5 416 c 0,8,9
 883 288 883 288 1195 288 c 0,10,11
 1626 288 1626 288 1972 560 c 1,0,1
1449 1712 m 1,12,13
 2189 2016 2189 2016 2267 2352 c 0,14,15
 2288.55417957 2445.52321981 2288.55417957 2445.52321981 2288.55417957 2518.76015298 c 0,16,17
 2288.55417957 2645.99380805 2288.55417957 2645.99380805 2223.5 2712 c 0,18,19
 2121 2816 2121 2816 1928 2816 c 0,20,21
 1705 2816 1705 2816 1556 2720 c 128,-1,22
 1407 2624 1407 2624 1344 2352 c 0,23,24
 1324 2265.14285714 1324 2265.14285714 1324 2175.67346939 c 0,25,26
 1324 1952 1324 1952 1449 1712 c 1,12,13
2992 272 m 1,27,-1
 2795 0 l 1,28,29
 2479 112 2479 112 2181 368 c 1,30,31
 1754 0 1754 0 1129 0 c 0,32,33
 608 0 608 0 427 216 c 0,34,35
 300.50965251 366.94980695 300.50965251 366.94980695 300.50965251 576.505180304 c 0,36,37
 300.50965251 666.810810811 300.50965251 666.810810811 324 768 c 0,38,39
 439 1264 439 1264 1167 1584 c 1,40,41
 1037.00371747 1873.18959108 1037.00371747 1873.18959108 1037.00371747 2131.45069858 c 0,42,43
 1037.00371747 2244.69888476 1037.00371747 2244.69888476 1062 2352 c 0,44,45
 1143 2704 1143 2704 1375 2904 c 128,-1,46
 1607 3104 1607 3104 1994 3104 c 0,47,48
 2336 3104 2336 3104 2498.5 2904 c 0,49,50
 2606.50102249 2771.07566462 2606.50102249 2771.07566462 2606.50102249 2571.00958929 c 0,51,52
 2606.50102249 2470.05316973 2606.50102249 2470.05316973 2579 2352 c 0,53,54
 2461 1840 2461 1840 1573 1472 c 1,55,56
 1819 1056 1819 1056 2199 768 c 1,57,58
 2574 1168 2574 1168 2789 1584 c 1,59,-1
 3057 1456 l 1,60,61
 2820 1008 2820 1008 2411 592 c 1,62,63
 2679 400 2679 400 2992 272 c 1,27,-1
EndSplineSet
EndChar

StartChar: quotesingle
Encoding: 39 39 10
Width: 926
GlyphClass: 2
Flags: W
LayerCount: 2
Fore
SplineSet
1418 2720 m 1,0,-1
 898 2144 l 1,1,-1
 675 2144 l 1,2,-1
 1061 2720 l 1,3,-1
 838 2720 l 1,4,-1
 960 3248 l 1,5,-1
 1540 3248 l 1,6,-1
 1418 2720 l 1,0,-1
EndSplineSet
EndChar

StartChar: parenleft
Encoding: 40 40 11
Width: 1127
GlyphClass: 2
Flags: W
LayerCount: 2
Fore
SplineSet
1017 -384 m 1,0,-1
 794 -512 l 1,1,2
 522.471248247 -18.3113604488 522.471248247 -18.3113604488 522.471248247 621.614362796 c 0,3,4
 522.471248247 1018.65918654 522.471248247 1018.65918654 627 1472 c 0,5,6
 893 2624 893 2624 1707 3440 c 1,7,-1
 1871 3312 l 1,8,9
 1147 2496 1147 2496 910 1472 c 0,10,11
 808.00331675 1031.11111111 808.00331675 1031.11111111 808.00331675 638.937056013 c 0,12,13
 808.00331675 77.5588723051 808.00331675 77.5588723051 1017 -384 c 1,0,-1
EndSplineSet
EndChar

StartChar: parenright
Encoding: 41 41 12
Width: 1151
GlyphClass: 2
Flags: W
LayerCount: 2
Fore
SplineSet
1008 3440 m 1,0,1
 1303.27410468 2909.39944904 1303.27410468 2909.39944904 1303.27410468 2255.15795066 c 0,2,3
 1303.27410468 1883.5261708 1303.27410468 1883.5261708 1208 1472 c 1,4,5
 935 288 935 288 95 -512 c 1,6,-1
 -69 -384 l 1,7,8
 663 400 663 400 910 1472 c 0,9,10
 1003.29313233 1876.79731993 1003.29313233 1876.79731993 1003.29313233 2249.09049996 c 0,11,12
 1003.29313233 2818.57286432 1003.29313233 2818.57286432 785 3312 c 1,13,-1
 1008 3440 l 1,0,1
EndSplineSet
EndChar

StartChar: asterisk
Encoding: 42 42 13
Width: 2527
GlyphClass: 2
Flags: W
LayerCount: 2
Fore
SplineSet
2119 2720 m 1,0,-1
 1805 1744 l 1,1,-1
 2682 2320 l 1,2,-1
 2805 1888 l 1,3,-1
 1891 1472 l 1,4,-1
 2609 1040 l 1,5,-1
 2297 656 l 1,6,-1
 1679 1200 l 1,7,-1
 1543 224 l 1,8,-1
 1111 224 l 1,9,-1
 1411 1200 l 1,10,-1
 541 656 l 1,11,-1
 396 1056 l 1,12,-1
 1340 1472 l 1,13,-1
 588 1888 l 1,14,-1
 926 2320 l 1,15,-1
 1537 1744 l 1,16,-1
 1688 2720 l 1,17,-1
 2119 2720 l 1,0,-1
EndSplineSet
EndChar

StartChar: plus
Encoding: 43 43 14
Width: 3059
GlyphClass: 2
Flags: W
LayerCount: 2
Fore
SplineSet
2084 2944 m 1,0,-1
 2382 2944 l 1,1,-1
 2075 1616 l 1,2,-1
 3236 1616 l 1,3,-1
 3173 1344 l 1,4,-1
 2012 1344 l 1,5,-1
 1702 0 l 1,6,-1
 1405 0 l 1,7,-1
 1715 1344 l 1,8,-1
 510 1344 l 1,9,-1
 572 1616 l 1,10,-1
 1778 1616 l 1,11,-1
 2084 2944 l 1,0,-1
EndSplineSet
EndChar

StartChar: comma
Encoding: 44 44 15
Width: 915
GlyphClass: 2
Flags: W
LayerCount: 2
Fore
SplineSet
868 800 m 1,0,-1
 735 224 l 2,1,2
 554 -560 554 -560 89 -576 c 1,3,-1
 156 -288 l 1,4,5
 379 -288 379 -288 497 224 c 1,6,-1
 274 224 l 1,7,-1
 407 800 l 1,8,-1
 868 800 l 1,0,-1
EndSplineSet
EndChar

StartChar: hyphen
Encoding: 45 45 16
Width: 1823
GlyphClass: 2
Flags: W
LayerCount: 2
Fore
SplineSet
1825 1088 m 1,0,-1
 501 1088 l 1,1,-1
 552 1312 l 1,2,-1
 1877 1312 l 1,3,-1
 1825 1088 l 1,0,-1
EndSplineSet
EndChar

StartChar: period
Encoding: 46 46 17
Width: 859
GlyphClass: 2
Flags: W
LayerCount: 2
Fore
SplineSet
627 0 m 1,0,-1
 226 0 l 1,1,-1
 410 800 l 1,2,-1
 812 800 l 1,3,-1
 627 0 l 1,0,-1
EndSplineSet
EndChar

StartChar: slash
Encoding: 47 47 18
Width: 3552
GlyphClass: 2
Flags: W
LayerCount: 2
Fore
SplineSet
4052 3360 m 1,0,-1
 4246 3104 l 1,1,-1
 163 -400 l 1,2,-1
 -34 -160 l 1,3,-1
 4052 3360 l 1,0,-1
EndSplineSet
EndChar

StartChar: zero
Encoding: 48 48 19
Width: 2438
GlyphClass: 2
Flags: W
CounterMasks: 1 38
LayerCount: 2
Fore
SplineSet
1428 1568 m 0,0,1
 1480 1792 1480 1792 1554 1888 c 128,-1,2
 1628 1984 1628 1984 1688 1984 c 128,-1,3
 1748 1984 1748 1984 1770 1888 c 0,4,5
 1776.54054054 1859.45945946 1776.54054054 1859.45945946 1776.54054054 1819.6055515 c 0,6,7
 1776.54054054 1725.40540541 1776.54054054 1725.40540541 1740 1568 c 0,8,9
 1688 1344 1688 1344 1625 1264 c 128,-1,10
 1562 1184 1562 1184 1503 1184 c 0,11,12
 1443 1184 1443 1184 1409.5 1264 c 0,13,14
 1396.37426901 1295.34502924 1396.37426901 1295.34502924 1396.37426901 1348.79655279 c 0,15,16
 1396.37426901 1431.76608187 1396.37426901 1431.76608187 1428 1568 c 0,0,1
1125 0 m 2,17,18
 544.339748954 0 544.339748954 0 544.339748954 761.903994678 c 0,19,20
 544.339748954 1093.00753138 544.339748954 1093.00753138 654 1568 c 0,21,22
 1009 3104 1009 3104 1827 3104 c 2,23,-1
 2050 3104 l 2,24,25
 2608.81597846 3104 2608.81597846 3104 2608.81597846 2333.49610152 c 0,26,27
 2608.81597846 2016.11490126 2608.81597846 2016.11490126 2514 1568 c 1,28,29
 2152 0 2152 0 1319 0 c 2,30,-1
 1125 0 l 2,17,18
1289 320 m 1,31,32
 1933 336 1933 336 2217 1568 c 0,33,34
 2304.05733186 1944.73208379 2304.05733186 1944.73208379 2304.05733186 2204.74783292 c 0,35,36
 2304.05733186 2784 2304.05733186 2784 1872 2784 c 0,37,38
 1232 2784 1232 2784 955 1584 c 1,39,40
 864.285242291 1189.53303965 864.285242291 1189.53303965 864.285242291 918.150420152 c 0,41,42
 864.285242291 330.942731278 864.285242291 330.942731278 1289 320 c 1,31,32
EndSplineSet
EndChar

StartChar: one
Encoding: 49 49 20
Width: 1383
GlyphClass: 2
Flags: W
LayerCount: 2
Fore
SplineSet
132 0 m 1,0,-1
 206 320 l 1,1,-1
 653 320 l 1,2,-1
 1181 2608 l 1,3,-1
 675 2608 l 1,4,-1
 734 2864 l 1,5,-1
 1017 2864 l 2,6,7
 1255 2864 1255 2864 1355 3104 c 1,8,-1
 1623 3104 l 1,9,-1
 980 320 l 1,10,-1
 1411 320 l 1,11,-1
 1338 0 l 1,12,-1
 132 0 l 1,0,-1
EndSplineSet
EndChar

StartChar: two
Encoding: 50 50 21
Width: 2216
GlyphClass: 2
Flags: W
LayerCount: 2
Fore
SplineSet
1991 0 m 1,0,-1
 131 0 l 1,1,-1
 212 352 l 1,2,-1
 1561 1360 l 1,3,4
 2092 1792 2092 1792 2188 2208 c 0,5,6
 2213.89897511 2320.16398243 2213.89897511 2320.16398243 2213.89897511 2410.48636945 c 0,7,8
 2213.89897511 2784 2213.89897511 2784 1771 2784 c 2,9,-1
 1607 2784 l 1,10,11
 1591.33333333 2784.48484848 1591.33333333 2784.48484848 1576.03305785 2784.48484848 c 0,12,13
 1086.42424242 2784.48484848 1086.42424242 2784.48484848 972 2288 c 1,14,-1
 659 2288 l 1,15,16
 847 3104 847 3104 1636 3104 c 2,17,-1
 1889 3104 l 2,18,19
 2542.44140625 3104 2542.44140625 3104 2542.44140625 2532.23876953 c 0,20,21
 2542.44140625 2388.25 2542.44140625 2388.25 2501 2208 c 0,22,23
 2375 1664 2375 1664 1677 1088 c 1,24,-1
 688 352 l 1,25,-1
 2072 352 l 1,26,-1
 1991 0 l 1,0,-1
EndSplineSet
EndChar

StartChar: three
Encoding: 51 51 22
Width: 2274
GlyphClass: 2
Flags: W
LayerCount: 2
Fore
SplineSet
2711 3104 m 1,0,-1
 2637 2784 l 1,1,-1
 1627 2016 l 1,2,3
 2025 2000 2025 2000 2178 1728 c 0,4,5
 2274.73140496 1556.03305785 2274.73140496 1556.03305785 2274.73140496 1339.29786217 c 0,6,7
 2274.73140496 1213.2231405 2274.73140496 1213.2231405 2242 1072 c 0,8,9
 2113 512 2113 512 1793.5 256 c 128,-1,10
 1474 0 1474 0 1013 0 c 0,11,12
 596 0 596 0 421 208 c 0,13,14
 291.780590717 361.58649789 291.780590717 361.58649789 291.780590717 584.962381385 c 0,15,16
 291.780590717 664.101265823 291.780590717 664.101265823 308 752 c 1,17,-1
 636 752 l 1,18,19
 623.093333333 695.68 623.093333333 695.68 623.093333333 645.5552 c 0,20,21
 623.093333333 524.8 623.093333333 524.8 698 440 c 0,22,23
 804 320 804 320 1086 320 c 0,24,25
 1428 320 1428 320 1625 496 c 128,-1,26
 1822 672 1822 672 1915 1072 c 0,27,28
 1943.90261283 1196.50356295 1943.90261283 1196.50356295 1943.90261283 1297.93995746 c 0,29,30
 1943.90261283 1470.25178147 1943.90261283 1470.25178147 1860.5 1576 c 0,31,32
 1728 1744 1728 1744 1400 1744 c 2,33,-1
 1177 1744 l 1,34,-1
 1247 2048 l 1,35,-1
 2176 2784 l 1,36,-1
 777 2784 l 1,37,-1
 851 3104 l 1,38,-1
 2711 3104 l 1,0,-1
EndSplineSet
EndChar

StartChar: four
Encoding: 52 52 23
Width: 2122
GlyphClass: 2
Flags: W
LayerCount: 2
Fore
SplineSet
1877 2496 m 1,0,-1
 756 1056 l 1,1,-1
 1544 1056 l 1,2,-1
 1877 2496 l 1,0,-1
1598 0 m 1,3,-1
 1300 0 l 1,4,-1
 1481 784 l 1,5,-1
 336 784 l 1,6,-1
 398 1056 l 1,7,-1
 2017 3104 l 1,8,-1
 2315 3104 l 1,9,-1
 1842 1056 l 1,10,-1
 2258 1056 l 1,11,-1
 2196 784 l 1,12,-1
 1779 784 l 1,13,-1
 1598 0 l 1,3,-1
EndSplineSet
EndChar

StartChar: five
Encoding: 53 53 24
Width: 2439
GlyphClass: 2
Flags: W
LayerCount: 2
Fore
SplineSet
1728 1968 m 1,0,1
 2145 1968 2145 1968 2333.5 1688 c 0,2,3
 2458.39367311 1502.48154657 2458.39367311 1502.48154657 2458.39367311 1257.25996646 c 0,4,5
 2458.39367311 1132.37258348 2458.39367311 1132.37258348 2426 992 c 0,6,7
 2330 576 2330 576 2032.5 288 c 128,-1,8
 1735 0 1735 0 1274 0 c 0,9,10
 857 0 857 0 648.5 192 c 0,11,12
 479.01754386 348.070175439 479.01754386 348.070175439 479.01754386 557.000376184 c 0,13,14
 479.01754386 605.099415205 479.01754386 605.099415205 488 656 c 1,15,-1
 801 656 l 1,16,17
 820 480 820 480 972.5 400 c 128,-1,18
 1125 320 1125 320 1348 320 c 0,19,20
 1646 320 1646 320 1844.5 504 c 128,-1,21
 2043 688 2043 688 2113 992 c 0,22,23
 2137.01960784 1096.31372549 2137.01960784 1096.31372549 2137.01960784 1187.4402153 c 0,24,25
 2137.01960784 1361.88235294 2137.01960784 1361.88235294 2049 1488 c 0,26,27
 1915 1680 1915 1680 1662 1680 c 0,28,29
 1305 1680 1305 1680 1071 1376 c 1,30,-1
 654 1376 l 1,31,-1
 1053 3104 l 1,32,-1
 2809 3104 l 1,33,-1
 2743 2816 l 1,34,-1
 1314 2816 l 1,35,-1
 1052 1680 l 1,36,37
 1316.1 1968.8 1316.1 1968.8 1688.5 1968.8 c 0,38,39
 1708.1 1968.8 1708.1 1968.8 1728 1968 c 1,0,1
EndSplineSet
EndChar

StartChar: six
Encoding: 54 54 25
Width: 2320
GlyphClass: 2
Flags: W
LayerCount: 2
Fore
SplineSet
773 1008 m 0,0,1
 749.666666667 906.666666667 749.666666667 906.666666667 749.666666667 816.888888889 c 0,2,3
 749.666666667 637.333333333 749.666666667 637.333333333 843 504 c 0,4,5
 983 304 983 304 1251 304 c 0,6,7
 1534 304 1534 304 1762 520 c 128,-1,8
 1990 736 1990 736 2053 1008 c 0,9,10
 2073.45070423 1097.23943662 2073.45070423 1097.23943662 2073.45070423 1178.029756 c 0,11,12
 2073.45070423 1357.97183099 2073.45070423 1357.97183099 1972 1496 c 0,13,14
 1825 1696 1825 1696 1572 1696 c 0,15,16
 1304 1696 1304 1696 1071.5 1496 c 128,-1,17
 839 1296 839 1296 773 1008 c 0,0,1
1237 1920 m 1,18,19
 1423 2016 1423 2016 1571 2016 c 2,20,-1
 1720 2016 l 2,21,22
 2032 2016 2032 2016 2233.5 1728 c 0,23,24
 2368.6156406 1534.88186356 2368.6156406 1534.88186356 2368.6156406 1277.01613229 c 0,25,26
 2368.6156406 1150.32279534 2368.6156406 1150.32279534 2336 1008 c 0,27,28
 2225 528 2225 528 1911 264 c 128,-1,29
 1597 0 1597 0 1270 0 c 2,30,-1
 1106 0 l 2,31,32
 764 0 764 0 566.5 272 c 0,33,34
 438.400656814 448.420361248 438.400656814 448.420361248 438.400656814 705.61272214 c 0,35,36
 438.400656814 844.952380952 438.400656814 844.952380952 476 1008 c 0,37,38
 602 1552 602 1552 943 2000 c 1,39,-1
 1793 3104 l 1,40,-1
 2135 3104 l 1,41,-1
 1237 1920 l 1,18,19
EndSplineSet
EndChar

StartChar: seven
Encoding: 55 55 26
Width: 1974
GlyphClass: 2
Flags: W
LayerCount: 2
Fore
SplineSet
762 3104 m 1,0,-1
 2622 3104 l 1,1,-1
 2559 2832 l 1,2,-1
 804 0 l 1,3,-1
 492 0 l 1,4,-1
 2262 2832 l 1,5,-1
 699 2832 l 1,6,-1
 762 3104 l 1,0,-1
EndSplineSet
EndChar

StartChar: eight
Encoding: 56 56 27
Width: 2384
GlyphClass: 2
Flags: W
LayerCount: 2
Fore
SplineSet
1515 1392 m 1,0,1
 838 1296 838 1296 709 800 c 1,2,3
 698.312130178 745.680473373 698.312130178 745.680473373 698.312130178 697.938097406 c 0,4,5
 698.312130178 365.98816568 698.312130178 365.98816568 1215 352 c 1,6,-1
 1334 352 l 2,7,8
 1914 352 1914 352 2037 816 c 1,9,10
 2044.40181269 861.679758308 2044.40181269 861.679758308 2044.40181269 904.139392667 c 0,11,12
 2044.40181269 1263.2265861 2044.40181269 1263.2265861 1515 1392 c 1,0,1
1592 1728 m 1,13,14
 2172 1856 2172 1856 2272 2288 c 1,15,16
 2298.88368336 2391.36672052 2298.88368336 2391.36672052 2298.88368336 2473.19174968 c 0,17,18
 2298.88368336 2784 2298.88368336 2784 1911 2784 c 2,19,-1
 1762 2784 l 2,20,21
 1301 2784 1301 2784 1156 2288 c 1,22,23
 1146.62328767 2231.23287671 1146.62328767 2231.23287671 1146.62328767 2179.86057422 c 0,24,25
 1146.62328767 1825.80821918 1146.62328767 1825.80821918 1592 1728 c 1,13,14
1972 1568 m 1,26,27
 2402.06077348 1444.68508287 2402.06077348 1444.68508287 2402.06077348 1064.75931748 c 0,28,29
 2402.06077348 951.73480663 2402.06077348 951.73480663 2364 816 c 1,30,31
 2205 0 2205 0 1268 0 c 2,32,-1
 1119 0 l 2,33,34
 350.11101083 0 350.11101083 0 350.11101083 555.154504816 c 0,35,36
 350.11101083 666.42599278 350.11101083 666.42599278 381 800 c 0,37,38
 525 1424 525 1424 1184 1568 c 1,39,40
 805.439932318 1683.24873096 805.439932318 1683.24873096 805.439932318 2075.21142003 c 0,41,42
 805.439932318 2172.99492386 805.439932318 2172.99492386 829 2288 c 1,43,44
 1017 3104 1017 3104 1836 3104 c 2,45,-1
 1985 3104 l 2,46,47
 2635.97280967 3104 2635.97280967 3104 2635.97280967 2569.06161864 c 0,48,49
 2635.97280967 2443.31117825 2635.97280967 2443.31117825 2600 2288 c 0,50,51
 2470 1728 2470 1728 1972 1568 c 1,26,27
EndSplineSet
EndChar

StartChar: nine
Encoding: 57 57 28
Width: 2304
GlyphClass: 2
Flags: W
LayerCount: 2
Fore
SplineSet
2246 2096 m 0,0,1
 2271.41067285 2205.88399072 2271.41067285 2205.88399072 2271.41067285 2300.67486717 c 0,2,3
 2271.41067285 2481.93039443 2271.41067285 2481.93039443 2178.5 2608 c 0,4,5
 2037 2800 2037 2800 1769 2800 c 0,6,7
 1486 2800 1486 2800 1258 2584 c 128,-1,8
 1030 2368 1030 2368 967 2096 c 0,9,10
 946.549295775 2006.76056338 946.549295775 2006.76056338 946.549295775 1925.970244 c 0,11,12
 946.549295775 1746.02816901 946.549295775 1746.02816901 1048 1608 c 0,13,14
 1195 1408 1195 1408 1448 1408 c 0,15,16
 1731 1408 1731 1408 1955.5 1608 c 128,-1,17
 2180 1808 2180 1808 2246 2096 c 0,0,1
1798 1184 m 1,18,19
 1612 1088 1612 1088 1448 1088 c 2,20,-1
 1300 1088 l 2,21,22
 988 1088 988 1088 786 1376 c 0,23,24
 650.887417219 1568.63576159 650.887417219 1568.63576159 650.887417219 1825.69606596 c 0,25,26
 650.887417219 1952.95364238 650.887417219 1952.95364238 684 2096 c 0,27,28
 799 2592 799 2592 1111 2848 c 128,-1,29
 1423 3104 1423 3104 1750 3104 c 2,30,-1
 1929 3104 l 2,31,32
 2256 3104 2256 3104 2453.5 2832 c 0,33,34
 2588.23661485 2646.43868739 2588.23661485 2646.43868739 2588.23661485 2371.51837633 c 0,35,36
 2588.23661485 2243.45423143 2588.23661485 2243.45423143 2559 2096 c 1,37,38
 2433 1552 2433 1552 2077 1104 c 1,39,-1
 1227 0 l 1,40,-1
 885 0 l 1,41,-1
 1798 1184 l 1,18,19
EndSplineSet
EndChar

StartChar: colon
Encoding: 58 58 29
Width: 1210
GlyphClass: 2
Flags: W
LayerCount: 2
Fore
SplineSet
960 224 m 1,0,-1
 350 224 l 1,1,-1
 502 880 l 1,2,-1
 1112 880 l 1,3,-1
 960 224 l 1,0,-1
1296 1680 m 1,4,-1
 686 1680 l 1,5,-1
 838 2336 l 1,6,-1
 1448 2336 l 1,7,-1
 1296 1680 l 1,4,-1
EndSplineSet
EndChar

StartChar: semicolon
Encoding: 59 59 30
Width: 1201
GlyphClass: 2
Flags: W
LayerCount: 2
Fore
SplineSet
993 368 m 1,0,-1
 440 -288 l 1,1,-1
 202 -288 l 1,2,-1
 514 224 l 1,3,-1
 350 224 l 1,4,-1
 501 880 l 1,5,-1
 1111 880 l 1,6,-1
 993 368 l 1,0,-1
1296 1680 m 1,7,-1
 686 1680 l 1,8,-1
 838 2336 l 1,9,-1
 1448 2336 l 1,10,-1
 1296 1680 l 1,7,-1
EndSplineSet
EndChar

StartChar: less
Encoding: 60 60 31
Width: 2717
GlyphClass: 2
Flags: W
LayerCount: 2
Fore
SplineSet
3234 3296 m 1,0,-1
 3364 3024 l 1,1,-1
 938 1472 l 1,2,-1
 2648 -80 l 1,3,-1
 2391 -352 l 1,4,-1
 476 1472 l 1,5,-1
 3234 3296 l 1,0,-1
EndSplineSet
EndChar

StartChar: equal
Encoding: 61 61 32
Width: 1898
GlyphClass: 2
Flags: W
LayerCount: 2
Fore
SplineSet
1945 768 m 1,0,-1
 308 768 l 1,1,-1
 360 992 l 1,2,-1
 1997 992 l 1,3,-1
 1945 768 l 1,0,-1
2122 1536 m 1,4,-1
 486 1536 l 1,5,-1
 537 1760 l 1,6,-1
 2174 1760 l 1,7,-1
 2122 1536 l 1,4,-1
EndSplineSet
EndChar

StartChar: greater
Encoding: 62 62 33
Width: 2711
GlyphClass: 2
Flags: W
LayerCount: 2
Fore
SplineSet
159 -352 m 1,0,-1
 29 -80 l 1,1,-1
 2455 1472 l 1,2,-1
 745 3024 l 1,3,-1
 1002 3296 l 1,4,-1
 2917 1472 l 1,5,-1
 159 -352 l 1,0,-1
EndSplineSet
EndChar

StartChar: question
Encoding: 63 63 34
Width: 2412
GlyphClass: 2
Flags: W
LayerCount: 2
Fore
SplineSet
1923 3248 m 1,0,1
 2857.61912105 3248 2857.61912105 3248 2857.61912105 2636.9305978 c 0,2,3
 2857.61912105 2528.14803392 2857.61912105 2528.14803392 2828 2400 c 1,4,5
 2680 1824 2680 1824 2071 1504 c 1,6,7
 1621 1232 1621 1232 1551 928 c 2,8,-1
 1496 688 l 1,9,-1
 1168 688 l 1,10,-1
 1224 928 l 2,11,12
 1335 1408 1335 1408 1907 1760 c 1,13,14
 2398 2016 2398 2016 2486 2400 c 1,15,16
 2501.20114943 2465.56321839 2501.20114943 2465.56321839 2501.20114943 2522.73959572 c 0,17,18
 2501.20114943 2898.11494253 2501.20114943 2898.11494253 1846 2912 c 1,19,20
 1132 2912 1132 2912 987 2288 c 1,21,-1
 921 2000 l 1,22,-1
 608 2000 l 1,23,-1
 675 2288 l 1,24,25
 893 3232 893 3232 1923 3248 c 1,0,1
850 -304 m 1,26,-1
 972 224 l 1,27,-1
 1478 224 l 1,28,-1
 1356 -304 l 1,29,-1
 850 -304 l 1,26,-1
EndSplineSet
EndChar

StartChar: at
Encoding: 64 64 35
Width: 3393
GlyphClass: 2
Flags: W
LayerCount: 2
Fore
SplineSet
2328 2208 m 0,0,1
 1867 2208 1867 2208 1578 1344 c 1,2,3
 1524.96467991 1179.7615894 1524.96467991 1179.7615894 1524.96467991 1071.71954446 c 0,4,5
 1524.96467991 864 1524.96467991 864 1721 864 c 0,6,7
 1989 864 1989 864 2189 1216 c 1,8,9
 2484.7202718 1790.0792752 2484.7202718 1790.0792752 2484.7202718 2031.93373768 c 0,10,11
 2484.7202718 2208 2484.7202718 2208 2328 2208 c 0,0,1
2827 176 m 1,12,13
 2370 0 2370 0 1744 0 c 0,14,15
 549.872867364 0 549.872867364 0 549.872867364 977.909286386 c 0,16,17
 549.872867364 1206.28728674 549.872867364 1206.28728674 615 1488 c 0,18,19
 988 3104 988 3104 2476 3104 c 0,20,21
 3586.94309425 3104 3586.94309425 3104 3586.94309425 2197.8602859 c 0,22,23
 3586.94309425 1987.37640782 3586.94309425 1987.37640782 3527 1728 c 0,24,25
 3265 592 3265 592 2577 576 c 1,26,27
 2203.04516129 576 2203.04516129 576 2203.04516129 846.212528616 c 0,28,29
 2203.04516129 877.316129032 2203.04516129 877.316129032 2208 912 c 1,30,31
 1956 592 1956 592 1583 592 c 1,32,33
 1221.96275072 603.507163324 1221.96275072 603.507163324 1221.96275072 979.155047988 c 0,34,35
 1221.96275072 1125.82234957 1221.96275072 1125.82234957 1277 1328 c 1,36,37
 1651 2496 1651 2496 2395 2496 c 0,38,39
 2663 2496 2663 2496 2704 2224 c 1,40,-1
 2826 2496 l 1,41,-1
 3098 2448 l 1,42,-1
 2609 1360 l 1,43,44
 2494.89194499 1110.00392927 2494.89194499 1110.00392927 2494.89194499 978.375349794 c 0,45,46
 2494.89194499 832 2494.89194499 832 2636 832 c 1,47,48
 3041 848 3041 848 3244 1728 c 0,49,50
 3293.87434944 1943.67286245 3293.87434944 1943.67286245 3293.87434944 2117.81466812 c 0,51,52
 3293.87434944 2848 3293.87434944 2848 2417 2848 c 1,53,54
 2403.34090909 2848.18181818 2403.34090909 2848.18181818 2389.79558368 2848.18181818 c 0,55,56
 1211.35227273 2848.18181818 1211.35227273 2848.18181818 894 1472 c 0,57,58
 841.553656869 1244.79562543 841.553656869 1244.79562543 841.553656869 1060.03586484 c 0,59,60
 841.553656869 268.970608339 841.553656869 268.970608339 1803 256 c 1,61,62
 2279 256 2279 256 2718 416 c 1,63,-1
 2827 176 l 1,12,13
EndSplineSet
EndChar

StartChar: A
Encoding: 65 65 36
Width: 2744
GlyphClass: 2
Flags: W
LayerCount: 2
Fore
SplineSet
1195 1328 m 1,0,-1
 2177 1328 l 1,1,-1
 2041 2800 l 1,2,-1
 1195 1328 l 1,0,-1
2645 0 m 1,3,-1
 2302 0 l 1,4,-1
 2182 1088 l 1,5,-1
 1080 1088 l 1,6,-1
 442 0 l 1,7,-1
 100 0 l 1,8,-1
 1918 3104 l 1,9,-1
 2290 3104 l 1,10,-1
 2645 0 l 1,3,-1
EndSplineSet
EndChar

StartChar: B
Encoding: 66 66 37
Width: 2788
GlyphClass: 2
Flags: W
LayerCount: 2
Fore
SplineSet
2602 2272 m 0,0,1
 2617.67346939 2339.91836735 2617.67346939 2339.91836735 2617.67346939 2401.86588921 c 0,2,3
 2617.67346939 2529.63265306 2617.67346939 2529.63265306 2551 2632 c 0,4,5
 2452 2784 2452 2784 2214 2784 c 2,6,-1
 1262 2784 l 1,7,-1
 1007 1680 l 1,8,-1
 2049 1680 l 2,9,10
 2228 1680 2228 1680 2383.5 1840 c 128,-1,11
 2539 2000 2539 2000 2602 2272 c 0,0,1
2481 912 m 0,12,13
 2498.04225352 986.366197183 2498.04225352 986.366197183 2498.04225352 1051.51517556 c 0,14,15
 2498.04225352 1196.61971831 2498.04225352 1196.61971831 2413.5 1296 c 0,16,17
 2291 1440 2291 1440 2053 1440 c 2,18,-1
 952 1440 l 1,19,-1
 693 320 l 1,20,-1
 1794 320 l 2,21,22
 2062 320 2062 320 2236.5 464 c 128,-1,23
 2411 608 2411 608 2481 912 c 0,12,13
351 0 m 1,24,-1
 1068 3104 l 1,25,-1
 2288 3104 l 1,26,27
 2310.06666667 3105.06666667 2310.06666667 3105.06666667 2331.49111111 3105.06666667 c 0,28,29
 2631.43333333 3105.06666667 2631.43333333 3105.06666667 2805.5 2896 c 0,30,31
 2929.94454383 2746.53309481 2929.94454383 2746.53309481 2929.94454383 2518.7039724 c 0,32,33
 2929.94454383 2405.09481216 2929.94454383 2405.09481216 2899 2272 c 0,34,35
 2792 1808 2792 1808 2491 1600 c 1,36,37
 2800.4757085 1410.04048583 2800.4757085 1410.04048583 2800.4757085 1089.77541019 c 0,38,39
 2800.4757085 1005.40890688 2800.4757085 1005.40890688 2779 912 c 0,40,41
 2672 448 2672 448 2382 224 c 128,-1,42
 2092 0 2092 0 1720 0 c 2,43,-1
 351 0 l 1,24,-1
EndSplineSet
EndChar

StartChar: C
Encoding: 67 67 38
Width: 2800
GlyphClass: 2
Flags: W
LayerCount: 2
Fore
SplineSet
589 1568 m 0,0,1
 766 2336 766 2336 1152 2720 c 128,-1,2
 1538 3104 1538 3104 2044 3104 c 2,3,-1
 2312 3104 l 2,4,5
 2744 3104 2744 3104 2919 2800 c 0,6,7
 3033.70037453 2600.74906367 3033.70037453 2600.74906367 3033.70037453 2332.76382051 c 0,8,9
 3033.70037453 2191.88014981 3033.70037453 2191.88014981 3002 2032 c 1,10,-1
 2660 2032 l 1,11,12
 2682.17318436 2150.25698324 2682.17318436 2150.25698324 2682.17318436 2252.65828158 c 0,13,14
 2682.17318436 2441.20670391 2682.17318436 2441.20670391 2607 2576 c 0,15,16
 2491 2784 2491 2784 2223 2784 c 2,17,-1
 2000 2784 l 2,18,19
 1628 2784 1628 2784 1342 2512 c 128,-1,20
 1056 2240 1056 2240 894 1536 c 0,21,22
 831.273049645 1264.34042553 831.273049645 1264.34042553 831.273049645 1049.62446557 c 0,23,24
 831.273049645 809.078014184 831.273049645 809.078014184 910 640 c 0,25,26
 1059 320 1059 320 1402 320 c 2,27,-1
 1669 320 l 2,28,29
 1967 320 1967 320 2180.5 536 c 128,-1,30
 2394 752 2394 752 2509 1120 c 1,31,-1
 2851 1120 l 1,32,33
 2707 624 2707 624 2382 312 c 128,-1,34
 2057 0 2057 0 1596 0 c 2,35,-1
 1328 0 l 2,36,37
 822 0 822 0 618.5 408 c 0,38,39
 508.798675497 627.941721854 508.798675497 627.941721854 508.798675497 947.849683786 c 0,40,41
 508.798675497 1221.38278146 508.798675497 1221.38278146 589 1568 c 0,0,1
EndSplineSet
EndChar

StartChar: D
Encoding: 68 68 39
Width: 2755
GlyphClass: 2
Flags: W
LayerCount: 2
Fore
SplineSet
351 0 m 1,0,-1
 1068 3104 l 1,1,-1
 1842 3104 l 2,2,3
 2571 3104 2571 3104 2800.5 2680 c 0,4,5
 2933.33795712 2434.58259773 2933.33795712 2434.58259773 2933.33795712 2089.99738888 c 0,6,7
 2933.33795712 1839.25346784 2933.33795712 1839.25346784 2863 1536 c 0,8,9
 2693 800 2693 800 2266 400 c 128,-1,10
 1839 0 1839 0 1125 0 c 2,11,-1
 351 0 l 1,0,-1
2551 1536 m 0,12,13
 2612.84965035 1803.86013986 2612.84965035 1803.86013986 2612.84965035 2019.81847523 c 0,14,15
 2612.84965035 2268.25174825 2612.84965035 2268.25174825 2531 2448 c 0,16,17
 2378 2784 2378 2784 1768 2784 c 2,18,-1
 1321 2784 l 1,19,-1
 752 320 l 1,20,-1
 1199 320 l 2,21,22
 1764 320 1764 320 2087.5 624 c 128,-1,23
 2411 928 2411 928 2551 1536 c 0,12,13
EndSplineSet
EndChar

StartChar: E
Encoding: 69 69 40
Width: 2581
GlyphClass: 2
Flags: W
LayerCount: 2
Fore
SplineSet
351 0 m 1,0,-1
 1068 3104 l 1,1,-1
 3092 3104 l 1,2,-1
 3018 2784 l 1,3,-1
 1306 2784 l 1,4,-1
 1081 1808 l 1,5,-1
 2554 1808 l 1,6,-1
 2491 1536 l 1,7,-1
 1018 1536 l 1,8,-1
 738 320 l 1,9,-1
 2449 320 l 1,10,-1
 2375 0 l 1,11,-1
 351 0 l 1,0,-1
EndSplineSet
EndChar

StartChar: F
Encoding: 70 70 41
Width: 2294
GlyphClass: 2
Flags: W
LayerCount: 2
Fore
SplineSet
664 0 m 1,0,-1
 351 0 l 1,1,-1
 1068 3104 l 1,2,-1
 2928 3104 l 1,3,-1
 2854 2784 l 1,4,-1
 1306 2784 l 1,5,-1
 1074 1776 l 1,6,-1
 2339 1776 l 1,7,-1
 2272 1488 l 1,8,-1
 1007 1488 l 1,9,-1
 664 0 l 1,0,-1
EndSplineSet
EndChar

StartChar: G
Encoding: 71 71 42
Width: 2945
GlyphClass: 2
Flags: W
LayerCount: 2
Fore
SplineSet
567 1504 m 0,0,1
 741 2256 741 2256 1158.5 2680 c 128,-1,2
 1576 3104 1576 3104 2022 3104 c 2,3,-1
 2320 3104 l 2,4,5
 2722 3104 2722 3104 2954.5 2824 c 0,6,7
 3115.62146051 2629.96125186 3115.62146051 2629.96125186 3115.62146051 2324.50617336 c 0,8,9
 3115.62146051 2189.18628912 3115.62146051 2189.18628912 3084 2032 c 1,10,-1
 2727 2032 l 1,11,12
 2755.77631579 2157.05263158 2755.77631579 2157.05263158 2755.77631579 2262.92105263 c 0,13,14
 2755.77631579 2455.05263158 2755.77631579 2455.05263158 2661 2584 c 0,15,16
 2514 2784 2514 2784 2231 2784 c 2,17,-1
 1948 2784 l 2,18,19
 1695 2784 1695 2784 1363 2440 c 128,-1,20
 1031 2096 1031 2096 905 1488 c 1,21,22
 860.031141869 1267.10034602 860.031141869 1267.10034602 860.031141869 1086.03469786 c 0,23,24
 860.031141869 808.083044983 860.031141869 808.083044983 966 624 c 0,25,26
 1141 320 1141 320 1379 320 c 2,27,-1
 1662 320 l 2,28,29
 1930 320 1930 320 2186.5 528 c 128,-1,30
 2443 736 2443 736 2517 992 c 1,31,-1
 2579 1264 l 1,32,-1
 1969 1264 l 1,33,-1
 2025 1504 l 1,34,-1
 2977 1504 l 1,35,-1
 2630 0 l 1,36,-1
 2362 0 l 1,37,-1
 2302 256 l 1,38,39
 2020 0 2020 0 1603 0 c 2,40,-1
 1291 0 l 2,41,42
 815 0 815 0 617 432 c 0,43,44
 503.693641618 679.213872832 503.693641618 679.213872832 503.693641618 994.542550703 c 0,45,46
 503.693641618 1230.24277457 503.693641618 1230.24277457 567 1504 c 0,0,1
EndSplineSet
EndChar

StartChar: H
Encoding: 72 72 43
Width: 2867
GlyphClass: 2
Flags: W
LayerCount: 2
Fore
SplineSet
679 0 m 1,0,-1
 351 0 l 1,1,-1
 1068 3104 l 1,2,-1
 1395 3104 l 1,3,-1
 1074 1712 l 1,4,-1
 2562 1712 l 1,5,-1
 2883 3104 l 1,6,-1
 3225 3104 l 1,7,-1
 2509 0 l 1,8,-1
 2167 0 l 1,9,-1
 2506 1472 l 1,10,-1
 1018 1472 l 1,11,-1
 679 0 l 1,0,-1
EndSplineSet
EndChar

StartChar: I
Encoding: 73 73 44
Width: 1229
GlyphClass: 2
Flags: W
LayerCount: 2
Fore
SplineSet
1001 0 m 1,0,-1
 228 0 l 1,1,-1
 309 352 l 1,2,-1
 547 352 l 1,3,-1
 1108 2784 l 1,4,-1
 870 2784 l 1,5,-1
 944 3104 l 1,6,-1
 1718 3104 l 1,7,-1
 1644 2784 l 1,8,-1
 1406 2784 l 1,9,-1
 844 352 l 1,10,-1
 1083 352 l 1,11,-1
 1001 0 l 1,0,-1
EndSplineSet
EndChar

StartChar: J
Encoding: 74 74 45
Width: 2127
GlyphClass: 2
Flags: W
LayerCount: 2
Fore
SplineSet
1149 320 m 2,0,1
 1328 320 1328 320 1471 456 c 128,-1,2
 1614 592 1614 592 1684 896 c 2,3,-1
 2194 3104 l 1,4,-1
 2506 3104 l 1,5,-1
 1996 896 l 2,6,7
 1889 432 1889 432 1653 216 c 128,-1,8
 1417 0 1417 0 1090 0 c 2,9,-1
 837 0 l 2,10,11
 525 0 525 0 366.5 184 c 0,12,13
 258.447311828 309.43655914 258.447311828 309.43655914 258.447311828 498.078131576 c 0,14,15
 258.447311828 586.150537634 258.447311828 586.150537634 282 688 c 1,16,-1
 579 688 l 1,17,18
 572.306930693 642.693069307 572.306930693 642.693069307 572.306930693 602.687579649 c 0,19,20
 572.306930693 487.287128713 572.306930693 487.287128713 628 416 c 0,21,22
 703 320 703 320 926 320 c 2,23,-1
 1149 320 l 2,0,1
EndSplineSet
EndChar

StartChar: K
Encoding: 75 75 46
Width: 2767
GlyphClass: 2
Flags: W
LayerCount: 2
Fore
SplineSet
649 0 m 1,0,-1
 351 0 l 1,1,-1
 1068 3104 l 1,2,-1
 1365 3104 l 1,3,-1
 992 1488 l 1,4,-1
 2824 3104 l 1,5,-1
 3225 3104 l 1,6,-1
 2063 2064 l 1,7,-1
 2702 0 l 1,8,-1
 2360 0 l 1,9,-1
 1788 1840 l 1,10,-1
 889 1040 l 1,11,-1
 649 0 l 1,0,-1
EndSplineSet
EndChar

StartChar: L
Encoding: 76 76 47
Width: 2252
GlyphClass: 2
Flags: W
LayerCount: 2
Fore
SplineSet
1068 3104 m 1,0,-1
 1380 3104 l 1,1,-1
 738 320 l 1,2,-1
 2196 320 l 1,3,-1
 2122 0 l 1,4,-1
 351 0 l 1,5,-1
 1068 3104 l 1,0,-1
EndSplineSet
EndChar

StartChar: M
Encoding: 77 77 48
Width: 3581
GlyphClass: 2
Flags: W
LayerCount: 2
Fore
SplineSet
649 0 m 1,0,-1
 351 0 l 1,1,-1
 1068 3104 l 1,2,-1
 1544 3104 l 1,3,-1
 1880 368 l 1,4,-1
 3434 3104 l 1,5,-1
 3940 3104 l 1,6,-1
 3223 0 l 1,7,-1
 2925 0 l 1,8,-1
 3550 2704 l 1,9,-1
 1973 0 l 1,10,-1
 1616 0 l 1,11,-1
 1273 2704 l 1,12,-1
 649 0 l 1,0,-1
EndSplineSet
EndChar

StartChar: N
Encoding: 78 78 49
Width: 2897
GlyphClass: 2
Flags: W
LayerCount: 2
Fore
SplineSet
664 0 m 1,0,-1
 351 0 l 1,1,-1
 1068 3104 l 1,2,-1
 1559 3104 l 1,3,-1
 2285 320 l 1,4,-1
 2928 3104 l 1,5,-1
 3255 3104 l 1,6,-1
 2539 0 l 1,7,-1
 2003 0 l 1,8,-1
 1306 2784 l 1,9,-1
 664 0 l 1,0,-1
EndSplineSet
EndChar

StartChar: O
Encoding: 79 79 50
Width: 3017
GlyphClass: 2
Flags: W
LayerCount: 2
Fore
SplineSet
887 1488 m 0,0,1
 830.296072508 1242.97280967 830.296072508 1242.97280967 830.296072508 1050.02415093 c 0,2,3
 830.296072508 776.797583082 830.296072508 776.797583082 944 608 c 0,4,5
 1138 320 1138 320 1435 320 c 2,6,-1
 1703 320 l 2,7,8
 2030 320 2030 320 2351.5 616 c 128,-1,9
 2673 912 2673 912 2806 1488 c 0,10,11
 2865.86125212 1747.24873096 2865.86125212 1747.24873096 2865.86125212 1962.74101368 c 0,12,13
 2865.86125212 2226.03045685 2865.86125212 2226.03045685 2776.5 2424 c 0,14,15
 2614 2784 2614 2784 2287 2784 c 2,16,-1
 1989 2784 l 2,17,18
 1662 2784 1662 2784 1344.5 2440 c 128,-1,19
 1027 2096 1027 2096 887 1488 c 0,0,1
559 1488 m 0,20,21
 722 2192 722 2192 1139.5 2648 c 128,-1,22
 1557 3104 1557 3104 2063 3104 c 2,23,-1
 2361 3104 l 2,24,25
 2837 3104 2837 3104 3057 2640 c 0,26,27
 3185.04232804 2369.94708995 3185.04232804 2369.94708995 3185.04232804 2024.01724476 c 0,28,29
 3185.04232804 1775.57671958 3185.04232804 1775.57671958 3119 1488 c 0,30,31
 2968 832 2968 832 2559 416 c 128,-1,32
 2150 0 2150 0 1629 0 c 2,33,-1
 1361 0 l 2,34,35
 885 0 885 0 644.5 408 c 0,36,37
 498.254108723 656.1011378 498.254108723 656.1011378 498.254108723 1001.82279468 c 0,38,39
 498.254108723 1224.63716814 498.254108723 1224.63716814 559 1488 c 0,20,21
EndSplineSet
EndChar

StartChar: P
Encoding: 80 80 51
Width: 2487
GlyphClass: 2
Flags: W
LayerCount: 2
Fore
SplineSet
2453 2208 m 0,0,1
 2476.10875332 2308.83819629 2476.10875332 2308.83819629 2476.10875332 2392.02302134 c 0,2,3
 2476.10875332 2546.41909814 2476.10875332 2546.41909814 2396.5 2640 c 0,4,5
 2274 2784 2274 2784 2050 2784 c 2,6,-1
 1306 2784 l 1,7,-1
 1033 1600 l 1,8,-1
 1792 1600 l 2,9,10
 2000 1600 2000 1600 2191.5 1752 c 128,-1,11
 2383 1904 2383 1904 2453 2208 c 0,0,1
664 0 m 1,12,-1
 351 0 l 1,13,-1
 1068 3104 l 1,14,-1
 2124 3104 l 2,15,16
 2556 3104 2556 3104 2733 2840 c 0,17,18
 2852.57633588 2661.64885496 2852.57633588 2661.64885496 2852.57633588 2435.83229416 c 0,19,20
 2852.57633588 2327.38931298 2852.57633588 2327.38931298 2825 2208 c 0,21,22
 2733 1808 2733 1808 2432 1536 c 128,-1,23
 2131 1264 2131 1264 1714 1264 c 2,24,-1
 956 1264 l 1,25,-1
 664 0 l 1,12,-1
EndSplineSet
EndChar

StartChar: Q
Encoding: 81 81 52
Width: 3017
GlyphClass: 2
Flags: W
LayerCount: 2
Fore
SplineSet
2340 3104 m 2,0,1
 2772 3104 2772 3104 3033 2688 c 0,2,3
 3191.05336427 2436.08352668 3191.05336427 2436.08352668 3191.05336427 2066.81884787 c 0,4,5
 3191.05336427 1826.30162413 3191.05336427 1826.30162413 3124 1536 c 0,6,7
 2954 800 2954 800 2512 400 c 0,8,9
 2217 134 2217 134 1869 45 c 1,10,11
 1883 -14 1883 -14 1905 -72 c 0,12,13
 1989 -288 1989 -288 2272 -288 c 0,14,15
 2451 -288 2451 -288 2528.5 -272 c 128,-1,16
 2606 -256 2606 -256 2815 -192 c 1,17,-1
 2744 -496 l 1,18,19
 2566 -560 2566 -560 2467.5 -568 c 128,-1,20
 2369 -576 2369 -576 2205 -576 c 0,21,22
 1863 -576 1863 -576 1712 -360 c 0,23,24
 1610 -214 1610 -214 1585 2 c 1,25,26
 1545 0 1545 0 1505 0 c 0,27,28
 925 0 925 0 667.5 432 c 0,29,30
 506.757575758 701.672727273 506.757575758 701.672727273 506.757575758 1064.86831956 c 0,31,32
 506.757575758 1283.49090909 506.757575758 1283.49090909 565 1536 c 0,33,34
 731 2256 731 2256 1201 2680 c 128,-1,35
 1671 3104 1671 3104 2132 3104 c 2,36,-1
 2340 3104 l 2,0,1
1979 1024 m 1,37,38
 1887 624 1887 624 1854 384 c 0,39,40
 1849 351 1849 351 1847 319 c 1,41,42
 2113 383 2113 383 2346 584 c 0,43,44
 2690 880 2690 880 2856 1536 c 1,45,46
 2915.41547278 1793.46704871 2915.41547278 1793.46704871 2915.41547278 2001.90356401 c 0,47,48
 2915.41547278 2298.63610315 2915.41547278 2298.63610315 2795 2496 c 0,49,50
 2590 2832 2590 2832 2173 2832 c 128,-1,51
 1756 2832 1756 2832 1374 2496 c 128,-1,52
 992 2160 992 2160 848 1536 c 1,53,54
 782.505181347 1278.96373057 782.505181347 1278.96373057 782.505181347 1076.22368386 c 0,55,56
 782.505181347 786.777202073 782.505181347 786.777202073 916 608 c 0,57,58
 1143 305 1143 305 1582 288 c 1,59,60
 1605 629 1605 629 1697 1024 c 1,61,-1
 1979 1024 l 1,37,38
EndSplineSet
EndChar

StartChar: R
Encoding: 82 82 53
Width: 2626
GlyphClass: 2
Flags: W
LayerCount: 2
Fore
SplineSet
2568 2256 m 0,0,1
 2590.45360825 2353.97938144 2590.45360825 2353.97938144 2590.45360825 2432.51440111 c 0,2,3
 2590.45360825 2584.82474227 2590.45360825 2584.82474227 2506 2664 c 0,4,5
 2378 2784 2378 2784 2155 2784 c 2,6,-1
 1306 2784 l 1,7,-1
 1055 1696 l 1,8,-1
 1903 1696 l 2,9,10
 2126 1696 2126 1696 2315.5 1840 c 128,-1,11
 2505 1984 2505 1984 2568 2256 c 0,0,1
664 0 m 1,12,-1
 351 0 l 1,13,-1
 1068 3104 l 1,14,-1
 2229 3104 l 2,15,16
 2646 3104 2646 3104 2828 2864 c 0,17,18
 2952.52631579 2699.78947368 2952.52631579 2699.78947368 2952.52631579 2475.6565097 c 0,19,20
 2952.52631579 2372.21052632 2952.52631579 2372.21052632 2926 2256 c 0,21,22
 2845 1904 2845 1904 2605 1672 c 128,-1,23
 2365 1440 2365 1440 1982 1392 c 1,24,-1
 2509 0 l 1,25,-1
 2077 0 l 1,26,-1
 1636 1376 l 1,27,-1
 981 1376 l 1,28,-1
 664 0 l 1,12,-1
EndSplineSet
EndChar

StartChar: S
Encoding: 83 83 54
Width: 2690
GlyphClass: 2
Flags: W
LayerCount: 2
Fore
SplineSet
406 816 m 1,0,-1
 748 816 l 1,1,2
 730.576 739.968 730.576 739.968 730.576 676.760064 c 0,3,4
 730.576 500.544 730.576 500.544 866 424 c 0,5,6
 1050 320 1050 320 1273 320 c 2,7,-1
 1512 320 l 2,8,9
 1824 320 1824 320 2032 448 c 128,-1,10
 2240 576 2240 576 2296 816 c 0,11,12
 2308.52173913 870.260869565 2308.52173913 870.260869565 2308.52173913 918.533081285 c 0,13,14
 2308.52173913 1055.30434783 2308.52173913 1055.30434783 2208 1144 c 0,15,16
 2072 1264 2072 1264 1640 1392 c 1,17,18
 1242 1472 1242 1472 938.5 1640 c 0,19,20
 705.599241466 1768.92035398 705.599241466 1768.92035398 705.599241466 2034.46011626 c 0,21,22
 705.599241466 2114.95322377 705.599241466 2114.95322377 727 2208 c 0,23,24
 819 2608 819 2608 1144.5 2856 c 128,-1,25
 1470 3104 1470 3104 1931 3104 c 2,26,-1
 2184 3104 l 2,27,28
 2660 3104 2660 3104 2867 2872 c 0,29,30
 3010.30769231 2711.38461538 3010.30769231 2711.38461538 3010.30769231 2470.24852071 c 0,31,32
 3010.30769231 2363.07692308 3010.30769231 2363.07692308 2982 2240 c 1,33,-1
 2624 2240 l 1,34,35
 2643.6 2324.62222222 2643.6 2324.62222222 2643.6 2396.08098765 c 0,36,37
 2643.6 2554.31111111 2643.6 2554.31111111 2547.5 2648 c 0,38,39
 2408 2784 2408 2784 2110 2784 c 2,40,-1
 1857 2784 l 2,41,42
 1515 2784 1515 2784 1305 2616 c 128,-1,43
 1095 2448 1095 2448 1040 2208 c 0,44,45
 1031.06976744 2169.30232558 1031.06976744 2169.30232558 1031.06976744 2133.65062196 c 0,46,47
 1031.06976744 1977.6744186 1031.06976744 1977.6744186 1202 1880 c 0,48,49
 1412 1760 1412 1760 1751 1680 c 1,50,51
 2190 1584 2190 1584 2449 1384 c 0,52,53
 2644.00290698 1233.41860465 2644.00290698 1233.41860465 2644.00290698 987.603231476 c 0,54,55
 2644.00290698 906.930232558 2644.00290698 906.930232558 2623 816 c 0,56,57
 2531 416 2531 416 2192.5 208 c 128,-1,58
 1854 0 1854 0 1453 0 c 2,59,-1
 1200 0 l 2,60,61
 768 0 768 0 541 208 c 0,62,63
 379.467084639 356.012539185 379.467084639 356.012539185 379.467084639 601.248651251 c 0,64,65
 379.467084639 700.639498433 379.467084639 700.639498433 406 816 c 1,0,-1
EndSplineSet
EndChar

StartChar: T
Encoding: 84 84 55
Width: 2193
GlyphClass: 2
Flags: W
LayerCount: 2
Fore
SplineSet
1256 0 m 1,0,-1
 943 0 l 1,1,-1
 1586 2784 l 1,2,-1
 708 2784 l 1,3,-1
 782 3104 l 1,4,-1
 2836 3104 l 1,5,-1
 2762 2784 l 1,6,-1
 1899 2784 l 1,7,-1
 1256 0 l 1,0,-1
EndSplineSet
EndChar

StartChar: U
Encoding: 85 85 56
Width: 2942
GlyphClass: 2
Flags: W
LayerCount: 2
Fore
SplineSet
1589 320 m 2,0,1
 2006 320 2006 320 2242 568 c 128,-1,2
 2478 816 2478 816 2570 1216 c 2,3,-1
 3006 3104 l 1,4,-1
 3333 3104 l 1,5,-1
 2897 1216 l 2,6,7
 2779 704 2779 704 2437.5 352 c 128,-1,8
 2096 0 2096 0 1516 0 c 2,9,-1
 1411 0 l 2,10,11
 875 0 875 0 672 344 c 0,12,13
 545.203076923 558.867692308 545.203076923 558.867692308 545.203076923 845.521950296 c 0,14,15
 545.203076923 1017.79692308 545.203076923 1017.79692308 591 1216 c 2,16,-1
 1027 3104 l 1,17,-1
 1354 3104 l 1,18,-1
 918 1216 l 2,19,20
 883.67695962 1067.40142518 883.67695962 1067.40142518 883.67695962 935.760552017 c 0,21,22
 883.67695962 741.396674584 883.67695962 741.396674584 958.5 584 c 0,23,24
 1084 320 1084 320 1500 320 c 2,25,-1
 1589 320 l 2,0,1
EndSplineSet
EndChar

StartChar: V
Encoding: 86 86 57
Width: 2615
GlyphClass: 2
Flags: W
LayerCount: 2
Fore
SplineSet
3279 3104 m 1,0,-1
 1550 0 l 1,1,-1
 1119 0 l 1,2,-1
 764 3104 l 1,3,-1
 1166 3104 l 1,4,-1
 1416 320 l 1,5,-1
 2907 3104 l 1,6,-1
 3279 3104 l 1,0,-1
EndSplineSet
EndChar

StartChar: W
Encoding: 87 87 58
Width: 3525
GlyphClass: 2
Flags: W
LayerCount: 2
Fore
SplineSet
794 3104 m 1,0,-1
 1181 3104 l 1,1,-1
 1059 320 l 1,2,-1
 2222 3104 l 1,3,-1
 2699 3104 l 1,4,-1
 2592 320 l 1,5,-1
 3755 3104 l 1,6,-1
 4157 3104 l 1,7,-1
 2786 0 l 1,8,-1
 2265 0 l 1,9,-1
 2402 2784 l 1,10,-1
 1223 0 l 1,11,-1
 732 0 l 1,12,-1
 794 3104 l 1,0,-1
EndSplineSet
EndChar

StartChar: X
Encoding: 88 88 59
Width: 2479
GlyphClass: 2
Flags: W
LayerCount: 2
Fore
SplineSet
2368 0 m 1,0,-1
 1936 0 l 1,1,-1
 1529 1200 l 1,2,-1
 553 0 l 1,3,-1
 121 0 l 1,4,-1
 1402 1552 l 1,5,-1
 853 3104 l 1,6,-1
 1299 3104 l 1,7,-1
 1688 1888 l 1,8,-1
 2638 3104 l 1,9,-1
 3085 3104 l 1,10,-1
 1804 1552 l 1,11,-1
 2368 0 l 1,0,-1
EndSplineSet
EndChar

StartChar: Y
Encoding: 89 89 60
Width: 2239
GlyphClass: 2
Flags: W
LayerCount: 2
Fore
SplineSet
1283 0 m 1,0,-1
 970 0 l 1,1,-1
 1340 1600 l 1,2,-1
 749 3104 l 1,3,-1
 1151 3104 l 1,4,-1
 1566 1936 l 1,5,-1
 2505 3104 l 1,6,-1
 2922 3104 l 1,7,-1
 1652 1600 l 1,8,-1
 1283 0 l 1,0,-1
EndSplineSet
EndChar

StartChar: Z
Encoding: 90 90 61
Width: 2467
GlyphClass: 2
Flags: W
LayerCount: 2
Fore
SplineSet
936 3104 m 1,0,-1
 2989 3104 l 1,1,-1
 2915 2784 l 1,2,-1
 665 320 l 1,3,-1
 2347 320 l 1,4,-1
 2273 0 l 1,5,-1
 219 0 l 1,6,-1
 293 320 l 1,7,-1
 2529 2784 l 1,8,-1
 862 2784 l 1,9,-1
 936 3104 l 1,0,-1
EndSplineSet
EndChar

StartChar: bracketleft
Encoding: 91 91 62
Width: 1313
GlyphClass: 2
Flags: W
LayerCount: 2
Fore
SplineSet
1153 -384 m 1,0,-1
 275 -384 l 1,1,-1
 1132 3328 l 1,2,-1
 2040 3328 l 1,3,-1
 1981 3072 l 1,4,-1
 1326 3072 l 1,5,-1
 587 -128 l 1,6,-1
 1212 -128 l 1,7,-1
 1153 -384 l 1,0,-1
EndSplineSet
EndChar

StartChar: backslash
Encoding: 92 92 63
Width: 3552
GlyphClass: 2
Flags: W
LayerCount: 2
Fore
SplineSet
1063 3344 m 1,0,-1
 3512 -160 l 1,1,-1
 3189 -400 l 1,2,-1
 739 3104 l 1,3,-1
 1063 3344 l 1,0,-1
EndSplineSet
EndChar

StartChar: bracketright
Encoding: 93 93 64
Width: 1192
GlyphClass: 2
Flags: W
LayerCount: 2
Fore
SplineSet
740 -384 m 1,0,-1
 -49 -384 l 1,1,-1
 14 -112 l 1,2,-1
 535 -112 l 1,3,-1
 1274 3088 l 1,4,-1
 753 3088 l 1,5,-1
 808 3328 l 1,6,-1
 1597 3328 l 1,7,-1
 740 -384 l 1,0,-1
EndSplineSet
EndChar

StartChar: asciicircum
Encoding: 94 94 65
Width: 1809
GlyphClass: 2
Flags: W
LayerCount: 2
Fore
SplineSet
1051 2480 m 1,0,-1
 761 2704 l 1,1,-1
 1563 3408 l 1,2,-1
 1816 3408 l 1,3,-1
 2293 2704 l 1,4,-1
 1899 2480 l 1,5,-1
 1594 2960 l 1,6,-1
 1051 2480 l 1,0,-1
EndSplineSet
EndChar

StartChar: underscore
Encoding: 95 95 66
Width: 1683
GlyphClass: 2
Flags: W
LayerCount: 2
Fore
SplineSet
1288 -576 m 1,0,-1
 127 -576 l 1,1,-1
 194 -288 l 1,2,-1
 1354 -288 l 1,3,-1
 1288 -576 l 1,0,-1
EndSplineSet
EndChar

StartChar: grave
Encoding: 96 96 67
Width: 1288
GlyphClass: 2
Flags: W
LayerCount: 2
Fore
SplineSet
866 3328 m 1,0,-1
 1431 3328 l 1,1,-1
 1715 2496 l 1,2,-1
 1388 2496 l 1,3,-1
 866 3328 l 1,0,-1
EndSplineSet
EndChar

StartChar: a
Encoding: 97 97 68
Width: 2076
GlyphClass: 2
Flags: W
LayerCount: 2
Fore
SplineSet
572 704 m 0,0,1
 553.037037037 622.222222222 553.037037037 622.222222222 553.037037037 557.690595946 c 0,2,3
 553.037037037 458.87654321 553.037037037 458.87654321 597.5 400.5 c 0,4,5
 671 304 671 304 877 304 c 1,6,7
 976 319 976 319 1120 378 c 128,-1,8
 1264 437 1264 437 1520 659 c 1,9,-1
 1650 1222 l 1,10,11
 1287 1192 1287 1192 1095.5 1162.5 c 128,-1,12
 904 1133 904 1133 762 1022 c 128,-1,13
 620 911 620 911 572 704 c 0,0,1
1592 2256 m 2,14,15
 1912 2256 1912 2256 2003.5 2050.5 c 0,16,17
 2050.14206128 1945.74651811 2050.14206128 1945.74651811 2050.14206128 1795.39035234 c 0,18,19
 2050.14206128 1650.78551532 2050.14206128 1650.78551532 2007 1464 c 2,20,-1
 1775 457 l 2,21,22
 1739.76404494 303.471910112 1739.76404494 303.471910112 1739.76404494 162.217018053 c 0,23,24
 1739.76404494 78.9775280899 1739.76404494 78.9775280899 1752 0 c 1,25,-1
 1425 0 l 1,26,-1
 1474 334 l 1,27,28
 1269 159 1269 159 1101.5 87.5 c 128,-1,29
 934 16 934 16 779 0 c 1,30,31
 445 0 445 0 325.5 175.5 c 0,32,33
 253.919799499 280.62406015 253.919799499 280.62406015 253.919799499 448.358370865 c 0,34,35
 253.919799499 560.649122807 253.919799499 560.649122807 286 701 c 0,36,37
 356 1006 356 1006 571.5 1189 c 128,-1,38
 787 1372 787 1372 1068.5 1425 c 128,-1,39
 1350 1478 1350 1478 1713 1494 c 1,40,-1
 1737 1597 l 2,41,42
 1749.56521739 1651.69565217 1749.56521739 1651.69565217 1749.56521739 1700.31356333 c 0,43,44
 1749.56521739 1783.25 1749.56521739 1783.25 1713 1848.5 c 0,45,46
 1655 1952 1655 1952 1490 1952 c 2,47,-1
 1285 1952 l 2,48,49
 1066 1952 1066 1952 965 1871 c 128,-1,50
 864 1790 864 1790 792 1597 c 1,51,-1
 536 1597 l 1,52,53
 652 1980 652 1980 851 2118 c 128,-1,54
 1050 2256 1050 2256 1314 2256 c 2,55,-1
 1592 2256 l 2,14,15
EndSplineSet
EndChar

StartChar: b
Encoding: 98 98 69
Width: 2193
GlyphClass: 2
Flags: W
LayerCount: 2
Fore
SplineSet
1203 272 m 1,0,1
 1412 287 1412 287 1611.5 497 c 128,-1,2
 1811 707 1811 707 1922 1187 c 0,3,4
 1987.53723404 1470.40425532 1987.53723404 1470.40425532 1987.53723404 1636.15523144 c 0,5,6
 1987.53723404 1751.1356383 1987.53723404 1751.1356383 1956 1809.5 c 0,7,8
 1879 1952 1879 1952 1687 1952 c 2,9,-1
 1496 1952 l 2,10,11
 1277 1952 1277 1952 995 1682 c 1,12,-1
 718 482 l 1,13,14
 902 272 902 272 1203 272 c 1,0,1
1841 2240 m 2,15,16
 2089 2240 2089 2240 2214 2004 c 0,17,18
 2274.5620155 1889.65891473 2274.5620155 1889.65891473 2274.5620155 1694.80321195 c 0,19,20
 2274.5620155 1487.47674419 2274.5620155 1487.47674419 2206 1189 c 0,21,22
 2058 549 2058 549 1760.5 282 c 128,-1,23
 1463 15 1463 15 1140 0 c 1,24,25
 798 0 798 0 655 208 c 1,26,-1
 607 0 l 1,27,-1
 337 0 l 1,28,-1
 1087 3248 l 1,29,-1
 1357 3248 l 1,30,-1
 1072 2016 l 1,31,32
 1317 2240 1317 2240 1552 2240 c 2,33,-1
 1841 2240 l 2,15,16
EndSplineSet
EndChar

StartChar: c
Encoding: 99 99 70
Width: 2072
GlyphClass: 2
Flags: W
LayerCount: 2
Fore
SplineSet
470 1173 m 0,0,1
 600 1737 600 1737 873 1988.5 c 128,-1,2
 1146 2240 1146 2240 1424 2240 c 2,3,-1
 1701 2240 l 2,4,5
 1964 2240 1964 2240 2088 1994.5 c 0,6,7
 2180.07185629 1812.21257485 2180.07185629 1812.21257485 2180.07185629 1596.56977661 c 0,8,9
 2180.07185629 1521.79041916 2180.07185629 1521.79041916 2169 1443 c 1,10,-1
 1870 1443 l 1,11,12
 1874.02739726 1494.78082192 1874.02739726 1494.78082192 1874.02739726 1541.02627135 c 0,13,14
 1874.02739726 1735.91780822 1874.02739726 1735.91780822 1802.5 1832.5 c 0,15,16
 1714 1952 1714 1952 1591 1952 c 2,17,-1
 1386 1952 l 2,18,19
 1263 1952 1263 1952 1046.5 1757 c 128,-1,20
 830 1562 830 1562 740 1173 c 0,21,22
 690.11328976 956.202614379 690.11328976 956.202614379 690.11328976 794.834906802 c 0,23,24
 690.11328976 610.091503268 690.11328976 610.091503268 755.5 498 c 0,25,26
 878 288 878 288 1083 288 c 0,27,28
 1247 288 1247 288 1425.5 408 c 128,-1,29
 1604 528 1604 528 1711 813 c 1,30,-1
 2010 813 l 1,31,32
 1862 414 1862 414 1613 207 c 128,-1,33
 1364 0 1364 0 1017 0 c 0,34,35
 656 0 656 0 506.5 342.5 c 0,36,37
 421.356190476 537.561904762 421.356190476 537.561904762 421.356190476 779.817806803 c 0,38,39
 421.356190476 962.927619048 421.356190476 962.927619048 470 1173 c 0,0,1
EndSplineSet
EndChar

StartChar: d
Encoding: 100 100 71
Width: 2105
GlyphClass: 2
Flags: W
LayerCount: 2
Fore
SplineSet
1336 1952 m 2,0,1
 1213 1952 1213 1952 1046.5 1764.5 c 128,-1,2
 880 1577 880 1577 790 1188 c 0,3,4
 734.816326531 949.224489796 734.816326531 949.224489796 734.816326531 773.79758434 c 0,5,6
 734.816326531 618.612244898 734.816326531 618.612244898 778 513 c 0,7,8
 870 288 870 288 1103 288 c 0,9,10
 1218.22826632 288 1218.22826632 288 1338.34796675 339.360058307 c 1,11,12
 1200.64553236 197.221580894 1200.64553236 197.221580894 1032 0 c 1,13,14
 617 0 617 0 478.5 327.5 c 0,15,16
 405.145315488 500.956022945 405.145315488 500.956022945 405.145315488 732.338402875 c 0,17,18
 405.145315488 937.826003824 405.145315488 937.826003824 463 1189 c 0,19,20
 583 1707 583 1707 838 1973.5 c 128,-1,21
 1093 2240 1093 2240 1314 2240 c 2,22,-1
 1577 2240 l 2,23,24
 1798 2240 1798 2240 1947 2048 c 1,25,-1
 2224 3248 l 1,26,-1
 2508 3248 l 1,27,-1
 1890 570 l 2,28,29
 1842 361 1842 361 1820 240 c 1,30,31
 1819 214 1819 214 1837 189.5 c 128,-1,32
 1855 165 1855 165 1876 165 c 0,33,34
 1901 165 1901 165 1943.5 196.5 c 128,-1,35
 1986 228 1986 228 2019 277 c 1,36,-1
 2186 535 l 1,37,-1
 2229 486 l 1,38,39
 2068 189 2068 189 1950 66.5 c 128,-1,40
 1832 -56 1832 -56 1708 -56 c 0,41,42
 1639 -56 1639 -56 1601 -10 c 128,-1,43
 1563 36 1563 36 1555.5 125 c 0,44,45
 1552.88372093 156.046511628 1552.88372093 156.046511628 1552.88372093 190.013520822 c 0,46,47
 1552.88372093 253.418604651 1552.88372093 253.418604651 1562 327 c 0,48,49
 1576 440 1576 440 1611 591 c 1,50,51
 1610.68975292 590.75916893 1610.68975292 590.75916893 1610.37922286 590.517834126 c 2,52,-1
 1873 1727 l 1,53,54
 1720 1952 1720 1952 1514 1952 c 2,55,-1
 1336 1952 l 2,0,1
1338.34796675 339.360058307 m 1,56,57
 1494.17627761 500.208331933 1494.17627761 500.208331933 1610.37922286 590.517834126 c 1,58,-1
 1589 498 l 1,59,60
 1461.11910462 391.853802263 1461.11910462 391.853802263 1338.34796675 339.360058307 c 1,56,57
EndSplineSet
EndChar

StartChar: e
Encoding: 101 101 72
Width: 2030
GlyphClass: 2
Flags: W
LayerCount: 2
Fore
SplineSet
1788 1271 m 1,0,1
 1825.27529412 1432.24705882 1825.27529412 1432.24705882 1825.27529412 1551.92120138 c 0,2,3
 1825.27529412 1717.98588235 1825.27529412 1717.98588235 1753.5 1804 c 0,4,5
 1630 1952 1630 1952 1425 1952 c 0,6,7
 1206 1952 1206 1952 1030 1782 c 128,-1,8
 854 1612 854 1612 775 1271 c 1,9,-1
 1788 1271 l 1,0,1
712 999 m 1,10,11
 683.079691517 873.293059126 683.079691517 873.293059126 683.079691517 767.43630428 c 0,12,13
 683.079691517 598.771208226 683.079691517 598.771208226 756.5 480.5 c 0,14,15
 876 288 876 288 1095 288 c 0,16,17
 1259 288 1259 288 1384 354.5 c 128,-1,18
 1509 421 1509 421 1594 555 c 1,19,-1
 1892 555 l 1,20,21
 1775 293 1775 293 1552.5 146.5 c 128,-1,22
 1330 0 1330 0 1042 0 c 0,23,24
 659 0 659 0 499.5 280 c 0,25,26
 402.21414914 450.783938815 402.21414914 450.783938815 402.21414914 680.720651192 c 0,27,28
 402.21414914 827.764818356 402.21414914 827.764818356 442 999 c 2,29,-1
 505 1271 l 2,30,31
 613 1741 613 1741 881 1990.5 c 128,-1,32
 1149 2240 1149 2240 1410 2240 c 2,33,-1
 1600 2240 l 2,34,35
 1805 2240 1805 2240 1985.5 2020.5 c 0,36,37
 2093.20330579 1889.52561983 2093.20330579 1889.52561983 2093.20330579 1647.999582 c 0,38,39
 2093.20330579 1484.75206612 2093.20330579 1484.75206612 2044 1271 c 2,40,-1
 1981 999 l 1,41,-1
 712 999 l 1,10,11
EndSplineSet
EndChar

StartChar: f
Encoding: 102 102 73
Width: 1176
GlyphClass: 2
Flags: W
HStem: -576 256<-125 282.278> 1952 288<630 797 1148 1478> 2992 256<1311.69 1718>
DStem2: 304 -183 585 -198 0.224812 0.974402<-153.626 2191.18 2550.72 3328.46>
LayerCount: 2
Fore
SplineSet
1718 2992 m 1,0,-1
 1458 2992 l 2,1,2
 1321 2992 1321 2992 1282 2823 c 2,3,-1
 1148 2240 l 1,4,-1
 1544 2240 l 1,5,-1
 1478 1952 l 1,6,-1
 1081 1952 l 1,7,-1
 585 -198 l 2,8,9
 498 -576 498 -576 192 -576 c 2,10,-1
 -184 -576 l 1,11,-1
 -125 -320 l 1,12,-1
 135 -320 l 2,13,14
 272 -320 272 -320 304 -183 c 2,15,-1
 797 1952 l 1,16,-1
 564 1952 l 1,17,-1
 630 2240 l 1,18,-1
 863 2240 l 1,19,-1
 996 2816 l 2,20,21
 1096 3248 1096 3248 1402 3248 c 2,22,-1
 1777 3248 l 1,23,-1
 1718 2992 l 1,0,-1
EndSplineSet
EndChar

StartChar: g
Encoding: 103 103 74
Width: 2116
GlyphClass: 2
Flags: W
LayerCount: 2
Fore
SplineSet
456 17 m 0,0,1
 451.632311978 -1.87465181058 451.632311978 -1.87465181058 451.632311978 -19.4596798597 c 0,2,3
 451.632311978 -114.60724234 451.632311978 -114.60724234 579.5 -172 c 0,4,5
 731 -240 731 -240 953 -240 c 0,6,7
 1259 -240 1259 -240 1414 -172 c 128,-1,8
 1569 -104 1569 -104 1601 32 c 0,9,10
 1607.95876289 62.3092783505 1607.95876289 62.3092783505 1607.95876289 89.7370071208 c 0,11,12
 1607.95876289 239.675257732 1607.95876289 239.675257732 1400 303.5 c 0,13,14
 1154 379 1154 379 884 409 c 1,15,16
 712 334 712 334 596 228.5 c 128,-1,17
 480 123 480 123 456 17 c 0,0,1
1061 1590 m 0,18,19
 1048.68844221 1536.88442211 1048.68844221 1536.88442211 1048.68844221 1489.39875256 c 0,20,21
 1048.68844221 1401.88944724 1048.68844221 1401.88944724 1090.5 1333.5 c 0,22,23
 1155 1228 1155 1228 1306 1228 c 0,24,25
 1470 1228 1470 1228 1569.5 1333.5 c 128,-1,26
 1669 1439 1669 1439 1704 1590 c 0,27,28
 1716.31155779 1643.11557789 1716.31155779 1643.11557789 1716.31155779 1690.60124744 c 0,29,30
 1716.31155779 1778.11055276 1716.31155779 1778.11055276 1674.5 1846.5 c 0,31,32
 1610 1952 1610 1952 1473 1952 c 128,-1,33
 1336 1952 1336 1952 1216 1846.5 c 128,-1,34
 1096 1741 1096 1741 1061 1590 c 0,18,19
748 1593 m 0,35,36
 812 1871 812 1871 1007.5 2055.5 c 128,-1,37
 1203 2240 1203 2240 1467 2240 c 2,38,-1
 1620 2240 l 2,39,40
 1773 2240 1773 2240 1875 2144 c 1,41,42
 2118 2272 2118 2272 2449 2352 c 1,43,-1
 2364 1984 l 1,44,45
 2304.5 1988 2304.5 1988 2249.4375 1988 c 0,46,47
 2084.25 1988 2084.25 1988 1959 1952 c 1,48,49
 2000.36029412 1858.80147059 2000.36029412 1858.80147059 2000.36029412 1737.62391869 c 0,50,51
 2000.36029412 1639.06617647 2000.36029412 1639.06617647 1973 1522 c 0,52,53
 1916 1276 1916 1276 1721 1092 c 128,-1,54
 1526 908 1526 908 1235 908 c 0,55,56
 1096 908 1096 908 1024 956 c 1,57,58
 906.444444444 851.222222222 906.444444444 851.222222222 906.444444444 780.187242798 c 0,59,60
 906.444444444 767.833333333 906.444444444 767.833333333 910 756.5 c 0,61,62
 934 680 934 680 1270 626.5 c 128,-1,63
 1606 573 1606 573 1783.5 435 c 0,64,65
 1913.96066253 333.571428571 1913.96066253 333.571428571 1913.96066253 157.593907128 c 0,66,67
 1913.96066253 94.1428571429 1913.96066253 94.1428571429 1897 21 c 0,68,69
 1837 -239 1837 -239 1580.5 -407.5 c 128,-1,70
 1324 -576 1324 -576 875 -576 c 0,71,72
 482 -576 482 -576 277.5 -430 c 0,73,74
 123.465930018 -320.02946593 123.465930018 -320.02946593 123.465930018 -127.793958942 c 0,75,76
 123.465930018 -64.8121546961 123.465930018 -64.8121546961 140 7 c 0,77,78
 186 207 186 207 332 345 c 128,-1,79
 478 483 478 483 656 575 c 1,80,81
 616.219178082 644.616438356 616.219178082 644.616438356 616.219178082 718.501595046 c 0,82,83
 616.219178082 889.780821918 616.219178082 889.780821918 830 1084 c 1,84,85
 725.495535714 1221.29017857 725.495535714 1221.29017857 725.495535714 1408.49990035 c 0,86,87
 725.495535714 1495.375 725.495535714 1495.375 748 1593 c 0,35,36
EndSplineSet
EndChar

StartChar: h
Encoding: 104 104 75
Width: 2264
GlyphClass: 2
Flags: W
LayerCount: 2
Fore
SplineSet
1596 1952 m 2,0,1
 1334 1952 1334 1952 1002 1651 c 1,2,-1
 621 0 l 1,3,-1
 337 0 l 1,4,-1
 1087 3248 l 1,5,-1
 1371 3248 l 1,6,-1
 1072 1952 l 1,7,8
 1400 2240 1400 2240 1676 2240 c 2,9,-1
 1938 2240 l 2,10,11
 2186 2240 2186 2240 2297.5 2096 c 0,12,13
 2363.4535809 2010.82228117 2363.4535809 2010.82228117 2363.4535809 1859.16615188 c 0,14,15
 2363.4535809 1754.43501326 2363.4535809 1754.43501326 2332 1618 c 2,16,-1
 2084 544 l 2,17,18
 2030 310 2030 310 2015 227 c 1,19,20
 2014 203 2014 203 2032.5 180 c 128,-1,21
 2051 157 2051 157 2073 157 c 0,22,23
 2097 157 2097 157 2138 185 c 128,-1,24
 2179 213 2179 213 2208 256 c 2,25,-1
 2380 519 l 1,26,-1
 2420 470 l 1,27,28
 2265 183 2265 183 2150.5 63.5 c 128,-1,29
 2036 -56 2036 -56 1918 -56 c 0,30,31
 1854 -56 1854 -56 1818.5 -12 c 128,-1,32
 1783 32 1783 32 1775.5 117 c 0,33,34
 1772.82142857 147.357142857 1772.82142857 147.357142857 1772.82142857 181.221938776 c 0,35,36
 1772.82142857 242.178571429 1772.82142857 242.178571429 1781.5 314.5 c 0,37,38
 1795 427 1795 427 1830 576 c 2,39,-1
 2067 1604 l 2,40,41
 2089.02752294 1699.30275229 2089.02752294 1699.30275229 2089.02752294 1765.50492383 c 0,42,43
 2089.02752294 1846.56880734 2089.02752294 1846.56880734 2056 1884 c 0,44,45
 1996 1952 1996 1952 1858 1952 c 2,46,-1
 1596 1952 l 2,0,1
EndSplineSet
EndChar

StartChar: i
Encoding: 105 105 76
Width: 1005
GlyphClass: 2
Flags: W
HStem: -54 237<558.5 803.651> 2332 20G<875.382 1193>
VStem: 418.5 298.5<185.395 661.156>
DStem2: 478 611 717 258 0.222654 0.974897<-351.333 1786.8 2316.18 2985.38>
LayerCount: 2
Fore
SplineSet
1296 2800 m 1,0,-1
 983 2800 l 1,1,-1
 1149 3520 l 1,2,-1
 1462 3520 l 1,3,-1
 1296 2800 l 1,0,-1
783 578 m 2,4,5
 735 368 735 368 717 258 c 1,6,7
 716 231 716 231 734 207 c 128,-1,8
 752 183 752 183 774 183 c 0,9,10
 801 183 801 183 848 222 c 128,-1,11
 895 261 895 261 934 323 c 2,12,-1
 1090 571 l 1,13,-1
 1138 516 l 1,14,15
 968 201 968 201 845 73.5 c 128,-1,16
 722 -54 722 -54 590 -54 c 0,17,18
 527 -54 527 -54 487.5 -20 c 128,-1,19
 448 14 448 14 432 72 c 0,20,21
 418.162162162 122.162162162 418.162162162 122.162162162 418.162162162 194.016070124 c 0,22,23
 418.162162162 205.243243243 418.162162162 205.243243243 418.5 217 c 0,24,25
 421 304 421 304 435.5 398 c 128,-1,26
 450 492 450 492 478 611 c 2,27,-1
 880 2352 l 1,28,-1
 1193 2352 l 1,29,-1
 783 578 l 2,4,5
EndSplineSet
EndChar

StartChar: j
Encoding: 106 106 77
Width: 969
GlyphClass: 2
Flags: W
LayerCount: 2
Fore
SplineSet
1252 2800 m 1,0,-1
 939 2800 l 1,1,-1
 1105 3520 l 1,2,-1
 1418 3520 l 1,3,-1
 1252 2800 l 1,0,-1
-128 -576 m 1,4,-1
 -47 -224 l 1,5,6
 240 -224 240 -224 322 128 c 2,7,-1
 836 2352 l 1,8,-1
 1149 2352 l 1,9,-1
 635 128 l 2,10,11
 473 -576 473 -576 -128 -576 c 1,4,-1
EndSplineSet
EndChar

StartChar: k
Encoding: 107 107 78
Width: 2023
GlyphClass: 2
Flags: W
HStem: -58 238<1745 1978.88> 0 21G<337 625.625> 3228 20G<1082.38 1371>
VStem: 2221 60<1720.63 1856.86>
DStem2: 337 0 621 0 0.224991 0.974361<63.8974 925.034 1358.04 3333.47> 1033 1083.2 815 839 0.716072 -0.698026<14.3543 1283.46> 912 1261 1033 1083.2 0.708556 0.705655<0 1523.49>
LayerCount: 2
Fore
SplineSet
621 0 m 1,0,-1
 337 0 l 1,1,-1
 1087 3248 l 1,2,-1
 1371 3248 l 1,3,-1
 912 1261 l 1,4,-1
 1889 2234 l 1,5,6
 1952 2294 1952 2294 2036 2294 c 0,7,8
 2137.19360323 2294 2137.19360323 2294 2192.70338229 2197.21223691 c 1,9,-1
 1033 1083.20019531 l 1,10,-1
 1898 240 l 1,11,12
 1912 180 1912 180 1946 180 c 0,13,14
 1972 180 1972 180 2016 214.5 c 0,15,16
 2060.98005698 249.768453768 2060.98005698 249.768453768 2094 302 c 2,17,-1
 2259 563 l 1,18,-1
 2303 510 l 1,19,20
 2138 198 2138 198 2019 70 c 128,-1,21
 1900 -58 1900 -58 1776 -58 c 0,22,23
 1714 -58 1714 -58 1672 -26 c 128,-1,24
 1630 6 1630 6 1616 68 c 1,25,-1
 815 839 l 1,26,-1
 621 0 l 1,0,-1
2048.85738011 2049.11151147 m 2,27,28
 2055.7823189 2056.711199 2055.7823189 2056.711199 2060.5 2061 c 0,29,30
 2060.80294663 2061.27540602 2060.80294663 2061.27540602 2061.11044416 2061.54929508 c 2,31,-1
 2048.85738011 2049.11151147 l 2,27,28
2048.85738011 2049.11151147 m 2,32,33
 2047.7090383 2047.8512781 2047.7090383 2047.8512781 2046.5 2046.5 c 0,34,35
 2038 2037 2038 2037 2032 2032 c 2,36,-1
 2048.85738011 2049.11151147 l 2,32,33
2061.11044416 2061.54929508 m 2,37,-1
 2193.45664592 2195.89066571 l 1,38,39
 2200.61216563 2183.25855886 2200.61216563 2183.25855886 2207 2169 c 0,40,41
 2263 2044 2263 2044 2281 1745 c 1,42,-1
 2221 1694 l 1,43,-1
 2171 1978 l 2,44,45
 2163 2019 2163 2019 2135.5 2047 c 128,-1,46
 2108 2075 2108 2075 2086 2075 c 0,47,48
 2080 2075 2080 2075 2073 2070.5 c 0,49,50
 2066.38556843 2066.24786542 2066.38556843 2066.24786542 2061.11044416 2061.54929508 c 2,37,-1
2193.45664592 2195.89066571 m 2,51,52
 2193.08107156 2196.55369168 2193.08107156 2196.55369168 2192.70338229 2197.21223691 c 2,53,54
 2231 2234 l 1,55,-1
 2193.45664592 2195.89066571 l 2,51,52
EndSplineSet
EndChar

StartChar: l
Encoding: 108 108 79
Width: 1019
GlyphClass: 2
Flags: W
HStem: -59 233<526.5 761.445> 3228 20G<1073.38 1362>
VStem: 411.5 265.5<174.006 641.375>
DStem2: 476 643 677 253 0.222957 0.974828<-400.257 2673.65>
LayerCount: 2
Fore
SplineSet
751 600 m 2,0,1
 700 379 700 379 677 253 c 1,2,3
 676 225 676 225 693.5 199.5 c 128,-1,4
 711 174 711 174 732 174 c 0,5,6
 757 174 757 174 800.5 208.5 c 128,-1,7
 844 243 844 243 878 297 c 1,8,-1
 1050 581 l 1,9,-1
 1092 525 l 1,10,11
 926 205 926 205 805.5 73 c 128,-1,12
 685 -59 685 -59 561 -59 c 0,13,14
 492 -59 492 -59 454.5 -9 c 128,-1,15
 417 41 417 41 411.5 137 c 0,16,17
 410.125 161 410.125 161 410.125 186.71875 c 0,18,19
 410.125 263.875 410.125 263.875 422.5 356.5 c 0,20,21
 439 480 439 480 476 643 c 2,22,-1
 1078 3248 l 1,23,-1
 1362 3248 l 1,24,-1
 751 600 l 2,0,1
EndSplineSet
EndChar

StartChar: m
Encoding: 109 109 80
Width: 3228
GlyphClass: 2
Flags: W
HStem: -56 258<2828.5 3073.36> 0 21G<307 624.62 1456 1772.62> 1946 288<1280.87 1780.8 2379.3 2945.2>
VStem: 2976.54 333.041<1321.64 1886.56>
DStem2: 307 0 620 0 0.225051 0.974347<70.4408 1915.54 2067.79 2292.82> 1456 0 1768 0 0.225078 0.974341<70.2242 1724.67> 2701.5 430.5 2988 275 0.218917 0.975744<-147.05 1324.91>
LayerCount: 2
Fore
SplineSet
2605 1946 m 2,0,1
 2398 1946 2398 1946 2145 1632 c 1,2,-1
 1768 0 l 1,3,-1
 1456 0 l 1,4,-1
 1804 1509 l 2,5,6
 1827.21030043 1609.87553648 1827.21030043 1609.87553648 1827.21030043 1686.74385235 c 0,7,8
 1827.21030043 1782.09012876 1827.21030043 1782.09012876 1791.5 1840.5 c 0,9,10
 1727 1946 1727 1946 1658 1946 c 2,11,-1
 1453 1946 l 1,12,13
 1217 1931 1217 1931 997 1632 c 1,14,-1
 620 0 l 1,15,-1
 307 0 l 1,16,-1
 823 2234 l 1,17,-1
 1136 2234 l 1,18,-1
 1070 1946 l 1,19,20
 1302 2234 1302 2234 1537 2234 c 2,21,-1
 1730 2234 l 2,22,23
 1868 2234 1868 2234 1979 2147 c 128,-1,24
 2090 2060 2090 2060 2140 1916 c 1,25,26
 2380 2234 2380 2234 2670 2234 c 2,27,-1
 2878 2234 l 2,28,29
 3100 2234 3100 2234 3233 2090.5 c 0,30,31
 3309.57575758 2007.87878788 3309.57575758 2007.87878788 3309.57575758 1832.27272727 c 0,32,33
 3309.57575758 1702.87878788 3309.57575758 1702.87878788 3268 1523 c 2,34,-1
 3052 590 l 2,35,36
 3007 393 3007 393 2988 275 c 1,37,38
 2988 249 2988 249 3006 225.5 c 128,-1,39
 3024 202 3024 202 3047 202 c 0,40,41
 3076 202 3076 202 3124 243 c 128,-1,42
 3172 284 3172 284 3214 351 c 2,43,-1
 3362 585 l 1,44,-1
 3414 530 l 1,45,46
 3240 204 3240 204 3116 74 c 128,-1,47
 2992 -56 2992 -56 2856 -56 c 0,48,49
 2801 -56 2801 -56 2763 -32.5 c 128,-1,50
 2725 -9 2725 -9 2706.5 36.5 c 128,-1,51
 2688 82 2688 82 2681 139.5 c 0,52,53
 2677.5 168.25 2677.5 168.25 2677.5 202 c 128,-1,54
 2677.5 235.75 2677.5 235.75 2681 274.5 c 0,55,56
 2688 352 2688 352 2701.5 430.5 c 128,-1,57
 2715 509 2715 509 2737 604 c 2,58,-1
 2946 1508 l 2,59,60
 2976.53508772 1641.00877193 2976.53508772 1641.00877193 2976.53508772 1729.42024469 c 0,61,62
 2976.53508772 1811.8377193 2976.53508772 1811.8377193 2950 1855.5 c 0,63,64
 2895 1946 2895 1946 2798 1946 c 2,65,-1
 2605 1946 l 2,0,1
EndSplineSet
EndChar

StartChar: n
Encoding: 110 110 81
Width: 2190
GlyphClass: 2
Flags: W
LayerCount: 2
Fore
SplineSet
1566 1946 m 2,0,1
 1276 1946 1276 1946 969 1571 c 1,2,-1
 606 0 l 1,3,-1
 307 0 l 1,4,-1
 823 2234 l 1,5,-1
 1122 2234 l 1,6,-1
 1055 1946 l 1,7,8
 1315 2234 1315 2234 1619 2234 c 2,9,-1
 1867 2234 l 2,10,11
 2281.14177979 2234 2281.14177979 2234 2281.14177979 1856.08781784 c 0,12,13
 2281.14177979 1755.84012066 2281.14177979 1755.84012066 2252 1629 c 2,14,-1
 2009 576 l 2,15,16
 1961 367 1961 367 1939 248 c 1,17,18
 1938 222 1938 222 1956 198 c 128,-1,19
 1974 174 1974 174 1995 174 c 0,20,21
 2020 174 2020 174 2063 206.5 c 128,-1,22
 2106 239 2106 239 2139 289 c 1,23,-1
 2308 556 l 1,24,-1
 2350 503 l 1,25,26
 2188 195 2188 195 2070 68 c 128,-1,27
 1952 -59 1952 -59 1830 -59 c 0,28,29
 1762 -59 1762 -59 1724.5 -12 c 128,-1,30
 1687 35 1687 35 1680.5 126 c 0,31,32
 1678.53488372 153.511627907 1678.53488372 153.511627907 1678.53488372 183.353975122 c 0,33,34
 1678.53488372 252.220930233 1678.53488372 252.220930233 1689 333.5 c 0,35,36
 1704 450 1704 450 1739 604 c 2,37,-1
 1972 1614 l 2,38,39
 1989.48967552 1689.63716814 1989.48967552 1689.63716814 1989.48967552 1748.04262058 c 0,40,41
 1989.48967552 1946.00299401 1989.48967552 1946.00299401 1788.56582344 1946.00299401 c 0,42,43
 1787.78443114 1946.00299401 1787.78443114 1946.00299401 1787 1946 c 1,44,-1
 1566 1946 l 2,0,1
EndSplineSet
EndChar

StartChar: o
Encoding: 111 111 82
Width: 2220
GlyphClass: 2
Flags: W
LayerCount: 2
Fore
SplineSet
760 1169 m 1,0,-1
 749 1125 l 1,1,2
 699.980392157 912.745098039 699.980392157 912.745098039 699.980392157 755.997693195 c 0,3,4
 699.980392157 592.980392157 699.980392157 592.980392157 753 490 c 0,5,6
 857 288 857 288 1158 288 c 128,-1,7
 1459 288 1459 288 1634.5 512 c 128,-1,8
 1810 736 1810 736 1899 1125 c 1,9,-1
 1910 1169 l 1,10,11
 1957.41025641 1375.17948718 1957.41025641 1375.17948718 1957.41025641 1528.9341716 c 0,12,13
 1957.41025641 1654.08333333 1957.41025641 1654.08333333 1926 1744.5 c 0,14,15
 1856 1946 1856 1946 1527 1946 c 0,16,17
 1253 1946 1253 1946 1051.5 1751.5 c 128,-1,18
 850 1557 850 1557 760 1169 c 1,0,-1
1716 2234 m 2,19,20
 2117 2234 2117 2234 2224 1938 c 0,21,22
 2277.00462963 1791.37037037 2277.00462963 1791.37037037 2277.00462963 1601.55178326 c 0,23,24
 2277.00462963 1408.18518519 2277.00462963 1408.18518519 2222 1170 c 1,25,-1
 2212 1125 l 1,26,27
 2089 593 2089 593 1838 296.5 c 128,-1,28
 1587 0 1587 0 1200 0 c 2,29,-1
 969 0 l 2,30,31
 598 0 598 0 466.5 281 c 0,32,33
 400.372848948 422.305927342 400.372848948 422.305927342 400.372848948 634.922969777 c 0,34,35
 400.372848948 845.114722753 400.372848948 845.114722753 465 1125 c 1,36,-1
 475 1170 l 1,37,38
 587 1656 587 1656 864.5 1945 c 128,-1,39
 1142 2234 1142 2234 1485 2234 c 2,40,-1
 1716 2234 l 2,19,20
EndSplineSet
EndChar

StartChar: p
Encoding: 112 112 83
Width: 2131
GlyphClass: 2
Flags: W
LayerCount: 2
Fore
SplineSet
1251 502 m 0,0,1
 1443 502 1443 502 1596 662 c 128,-1,2
 1749 822 1749 822 1840 1217 c 0,3,4
 1891.71919771 1440.20916905 1891.71919771 1440.20916905 1891.71919771 1589.17387378 c 0,5,6
 1891.71919771 1713.83381089 1891.71919771 1713.83381089 1855.5 1786.5 c 0,7,8
 1776 1946 1776 1946 1598 1946 c 0,9,10
 1283 1946 1283 1946 1004 1688 c 1,11,-1
 780 715 l 1,12,13
 950 502 950 502 1251 502 c 0,0,1
183 -576 m 1,14,-1
 832 2234 l 1,15,-1
 1130 2234 l 1,16,-1
 1079 2010 l 1,17,18
 1338 2234 1338 2234 1586 2234 c 2,19,-1
 1738 2234 l 2,20,21
 2028 2234 2028 2234 2147.5 1972 c 0,22,23
 2208.65738758 1837.9143469 2208.65738758 1837.9143469 2208.65738758 1643.32609623 c 0,24,25
 2208.65738758 1457.69379015 2208.65738758 1457.69379015 2153 1217 c 0,26,27
 2053 785 2053 785 1821.5 499.5 c 128,-1,28
 1590 214 1590 214 1189 214 c 0,29,30
 857 214 857 214 712 422 c 1,31,-1
 482 -576 l 1,32,-1
 183 -576 l 1,14,-1
EndSplineSet
EndChar

StartChar: q
Encoding: 113 113 84
Width: 2098
GlyphClass: 2
Flags: W
LayerCount: 2
Fore
SplineSet
1333 1946 m 0,0,1
 1155 1946 1155 1946 1019 1741 c 128,-1,2
 883 1536 883 1536 791 1141 c 0,3,4
 743.185483871 933.596774194 743.185483871 933.596774194 743.185483871 796.180118366 c 0,5,6
 743.185483871 712.302419355 743.185483871 712.302419355 761 654.5 c 0,7,8
 808 502 808 502 986 502 c 0,9,10
 1342 502 1342 502 1621 761 c 1,11,-1
 1828 1658 l 1,12,13
 1634 1946 1634 1946 1333 1946 c 0,0,1
1611 -576 m 1,14,-1
 1312 -576 l 1,15,-1
 1547 438 l 1,16,17
 1274 214 1274 214 914 214 c 128,-1,18
 554 214 554 214 464.5 484 c 0,19,20
 419.62464986 619.378151261 419.62464986 619.378151261 419.62464986 783.918995049 c 0,21,22
 419.62464986 947.540616246 419.62464986 947.540616246 464 1140 c 0,23,24
 596 1711 596 1711 829 1972.5 c 128,-1,25
 1062 2234 1062 2234 1311 2234 c 2,26,-1
 1519 2234 l 2,27,28
 1768 2234 1768 2234 1906 1994 c 1,29,-1
 1961 2234 l 1,30,-1
 2260 2234 l 1,31,-1
 1611 -576 l 1,14,-1
EndSplineSet
EndChar

StartChar: r
Encoding: 114 114 85
Width: 1536
GlyphClass: 2
Flags: W
LayerCount: 2
Fore
SplineSet
605 0 m 1,0,-1
 306 0 l 1,1,-1
 849 2352 l 1,2,-1
 1148 2352 l 1,3,-1
 1059 1968 l 1,4,5
 1558 2352 1558 2352 1949 2384 c 1,6,-1
 1853 1968 l 1,7,8
 1824.07692308 1970.46153846 1824.07692308 1970.46153846 1794.4260355 1970.46153846 c 0,9,10
 1438.61538462 1970.46153846 1438.61538462 1970.46153846 978 1616 c 1,11,-1
 605 0 l 1,0,-1
EndSplineSet
EndChar

StartChar: s
Encoding: 115 115 86
Width: 2144
GlyphClass: 2
Flags: W
LayerCount: 2
Fore
SplineSet
293 662 m 1,0,-1
 620 662 l 1,1,2
 610.864130435 622.114130435 610.864130435 622.114130435 610.864130435 586.274855269 c 0,3,4
 610.864130435 461.274456522 610.864130435 461.274456522 722 385.5 c 0,5,6
 865 288 865 288 1100 288 c 128,-1,7
 1335 288 1335 288 1521.5 378.5 c 128,-1,8
 1708 469 1708 469 1750 650 c 0,9,10
 1757.1308642 681.150617284 1757.1308642 681.150617284 1757.1308642 708.850248438 c 0,11,12
 1757.1308642 828.760493827 1757.1308642 828.760493827 1623.5 884 c 0,13,14
 1459 952 1459 952 1141.5 989.5 c 128,-1,15
 824 1027 824 1027 694 1185.5 c 0,16,17
 608.21319797 1290.09390863 608.21319797 1290.09390863 608.21319797 1450.64519828 c 0,18,19
 608.21319797 1533.39086294 608.21319797 1533.39086294 631 1631 c 0,20,21
 701 1933 701 1933 930.5 2083.5 c 128,-1,22
 1160 2234 1160 2234 1396 2234 c 2,23,-1
 1689 2234 l 2,24,25
 1940 2234 1940 2234 2097 2072 c 0,26,27
 2212.18224299 1953.14953271 2212.18224299 1953.14953271 2212.18224299 1788.54910909 c 0,28,29
 2212.18224299 1728.78971963 2212.18224299 1728.78971963 2197 1663 c 1,30,-1
 1869 1663 l 1,31,32
 1869.19393939 1669.4969697 1869.19393939 1669.4969697 1869.19393939 1675.85406795 c 0,33,34
 1869.19393939 1800.61212121 1869.19393939 1800.61212121 1794.5 1871.5 c 0,35,36
 1716 1946 1716 1946 1483 1946 c 0,37,38
 1223 1946 1223 1946 1113 1855.5 c 128,-1,39
 1003 1765 1003 1765 968 1614 c 0,40,41
 954.850649351 1556.72727273 954.850649351 1556.72727273 954.850649351 1510.42656856 c 0,42,43
 954.850649351 1398.27597403 954.850649351 1398.27597403 1032 1350.5 c 0,44,45
 1141 1283 1141 1283 1444 1245 c 128,-1,46
 1747 1207 1747 1207 1934 1056 c 0,47,48
 2073.876 943.052 2073.876 943.052 2073.876 762.96352 c 0,49,50
 2073.876 702.292 2073.876 702.292 2058 634 c 0,51,52
 1988 332 1988 332 1734 166 c 128,-1,53
 1480 0 1480 0 1033 0 c 0,54,55
 614 0 614 0 439 177 c 0,56,57
 288.87745098 328.838235294 288.87745098 328.838235294 288.87745098 577.078695694 c 0,58,59
 288.87745098 618.215686275 288.87745098 618.215686275 293 662 c 1,0,-1
EndSplineSet
EndChar

StartChar: t
Encoding: 116 116 87
Width: 1283
GlyphClass: 2
Flags: W
LayerCount: 2
Fore
SplineSet
1076 2956 m 1,0,-1
 1437 3104 l 1,1,-1
 1237 2234 l 1,2,-1
 1647 2234 l 1,3,-1
 1581 1946 l 1,4,-1
 1170 1946 l 1,5,-1
 811 393 l 2,6,7
 806.2 372 806.2 372 806.2 355.2 c 0,8,9
 806.2 288 806.2 288 883 288 c 2,10,-1
 1143 288 l 1,11,-1
 1077 0 l 1,12,-1
 756 0 l 2,13,14
 464.142538976 0 464.142538976 0 464.142538976 245.056264602 c 0,15,16
 464.142538976 303.951002227 464.142538976 303.951002227 481 377 c 2,17,-1
 843 1946 l 1,18,-1
 528 1946 l 1,19,-1
 595 2234 l 1,20,-1
 909 2234 l 1,21,-1
 1076 2956 l 1,0,-1
EndSplineSet
EndChar

StartChar: u
Encoding: 117 117 88
Width: 2171
GlyphClass: 2
Flags: W
LayerCount: 2
Fore
SplineSet
1017 320 m 0,0,1
 1332 320 1332 320 1714 727 c 1,2,-1
 2062 2234 l 1,3,-1
 2360 2234 l 1,4,-1
 1979 585 l 2,5,6
 1935 395 1935 395 1911 262 c 1,7,8
 1910 234 1910 234 1927.5 208.5 c 128,-1,9
 1945 183 1945 183 1967 183 c 0,10,11
 1994 183 1994 183 2038.5 219 c 128,-1,12
 2083 255 2083 255 2120 313 c 2,13,-1
 2283 575 l 1,14,-1
 2328 522 l 1,15,16
 2160 203 2160 203 2038 72.5 c 128,-1,17
 1916 -58 1916 -58 1788 -58 c 0,18,19
 1715 -58 1715 -58 1675.5 -8 c 128,-1,20
 1636 42 1636 42 1629.5 137.5 c 0,21,22
 1627.57954545 165.715909091 1627.57954545 165.715909091 1627.57954545 195.895919421 c 0,23,24
 1627.57954545 267.863636364 1627.57954545 267.863636364 1638.5 351 c 0,25,26
 1654 469 1654 469 1690 624 c 1,27,28
 1342 313 1342 313 938 0 c 1,29,30
 606 0 606 0 487.5 205 c 0,31,32
 418.155555556 324.962962963 418.155555556 324.962962963 418.155555556 499.71659808 c 0,33,34
 418.155555556 623.592592593 418.155555556 623.592592593 453 775 c 2,35,-1
 790 2234 l 1,36,-1
 1103 2234 l 1,37,-1
 769 787 l 2,38,39
 742.325670498 671.260536398 742.325670498 671.260536398 742.325670498 586.283422146 c 0,40,41
 742.325670498 483.302681992 742.325670498 483.302681992 781.5 425.5 c 0,42,43
 853 320 853 320 1017 320 c 0,0,1
EndSplineSet
EndChar

StartChar: v
Encoding: 118 118 89
Width: 1864
GlyphClass: 2
Flags: W
LayerCount: 2
Fore
SplineSet
720 0 m 1,0,-1
 607 2234 l 1,1,-1
 618.961816562 1946.91640251 l 2,2,3
 617.736543909 1973.37393768 617.736543909 1973.37393768 602.5 1995 c 0,4,5
 587 2017 587 2017 567 2017 c 0,6,7
 535 2017 535 2017 483.5 1970 c 128,-1,8
 432 1923 432 1923 384 1845 c 2,9,-1
 249 1629 l 1,10,-1
 191 1687 l 1,11,12
 314 1915 314 1915 407.5 2044 c 128,-1,13
 501 2173 501 2173 586.5 2231 c 128,-1,14
 672 2289 672 2289 768.5 2289 c 128,-1,15
 865 2289 865 2289 915 2225.5 c 128,-1,16
 965 2162 965 2162 969 2049 c 2,17,-1
 1027 378 l 1,18,-1
 1897 2078 l 2,19,20
 2006 2291 2006 2291 2168 2291 c 0,21,22
 2297 2291 2297 2291 2359 2161.5 c 128,-1,23
 2421 2032 2421 2032 2442 1712 c 1,24,-1
 2368 1658 l 1,25,-1
 2327 1907 l 2,26,27
 2317 1968 2317 1968 2288 2005.5 c 128,-1,28
 2259 2043 2259 2043 2232 2043 c 0,29,30
 2212 2043 2212 2043 2192 2021 c 128,-1,31
 2172 1999 2172 1999 2156 1970 c 1,32,-1
 2290 2234 l 1,33,-1
 1144 0 l 1,34,-1
 720 0 l 1,0,-1
618.961816562 1946.91640251 m 2,35,-1
 619 1946 l 2,36,37
 618.983002833 1946.45892351 618.983002833 1946.45892351 618.961816562 1946.91640251 c 2,35,-1
EndSplineSet
EndChar

StartChar: w
Encoding: 119 119 90
Width: 2824
GlyphClass: 2
Flags: W
LayerCount: 2
Fore
SplineSet
628 2234 m 1,0,-1
 969 2234 l 1,1,-1
 913 333 l 1,2,-1
 1749 2234 l 1,3,-1
 2118 2234 l 1,4,-1
 2076 333 l 1,5,-1
 2820 2030 l 2,6,7
 2876 2157 2876 2157 2947.5 2224.5 c 128,-1,8
 3019 2292 3019 2292 3105 2292 c 0,9,10
 3229 2292 3229 2292 3288.5 2164 c 128,-1,11
 3348 2036 3348 2036 3368 1723 c 1,12,-1
 3300 1670 l 1,13,-1
 3255 1932 l 2,14,15
 3246 1986 3246 1986 3217.5 2020.5 c 128,-1,16
 3189 2055 3189 2055 3164 2055 c 0,17,18
 3144 2055 3144 2055 3122 2031 c 0,19,20
 3101.97080292 2008.23954877 3101.97080292 2008.23954877 3090.23021608 1982.16365345 c 2,21,-1
 3199 2234 l 1,22,-1
 2218 0 l 1,23,-1
 1808 0 l 1,24,-1
 1844 1816 l 1,25,-1
 1042 0 l 1,26,-1
 658 0 l 1,27,-1
 628 2234 l 1,0,-1
3090.23021608 1982.16365345 m 2,28,29
 3088 1977 l 2,30,31
 3089.07498341 1979.59787658 3089.07498341 1979.59787658 3090.23021608 1982.16365345 c 2,28,29
EndSplineSet
EndChar

StartChar: x
Encoding: 120 120 91
Width: 1859
GlyphClass: 2
Flags: W
LayerCount: 2
Fore
SplineSet
1728 0 m 1,0,-1
 1386 0 l 1,1,-1
 1137 816 l 1,2,-1
 541 58 l 1,3,4
 453 -57 453 -57 332 -57 c 0,5,6
 201 -57 201 -57 140.5 77 c 128,-1,7
 80 211 80 211 60 544 c 1,8,-1
 135 602 l 1,9,-1
 173 342 l 2,10,11
 182 275 182 275 210.5 234.5 c 128,-1,12
 239 194 239 194 267 194 c 0,13,14
 278 194 278 194 291 204.5 c 0,15,16
 304 214 304 214 312 224 c 0,17,18
 319 234 319 234 334 254 c 2,19,-1
 1054 1168 l 1,20,-1
 693.32742473 2322.15224086 l 1,21,22
 794.143143062 2408 794.143143062 2408 901 2408 c 0,23,24
 1023.48095675 2408 1023.48095675 2408 1064.08647871 2311.92168367 c 1,25,-1
 1292 1488 l 1,26,-1
 1898.20340114 2310.22878898 l 1,27,28
 1982.78905908 2409 1982.78905908 2409 2094 2409 c 0,29,30
 2200.62492133 2409 2200.62492133 2409 2260.54477848 2320.22725391 c 1,31,-1
 1386 1184 l 1,32,-1
 1728 0 l 1,0,-1
2121.37745457 2136.66255679 m 1,33,-1
 2260.69190801 2320.00903956 l 1,34,35
 2274.30329248 2299.79931914 2274.30329248 2299.79931914 2285.5 2275 c 0,36,37
 2346 2141 2346 2141 2366 1808 c 1,38,-1
 2291 1750 l 1,39,-1
 2253 2010 l 2,40,41
 2244 2077 2244 2077 2215.5 2117.5 c 128,-1,42
 2187 2158 2187 2158 2159 2158 c 0,43,44
 2148 2158 2148 2158 2134.5 2147.5 c 0,45,46
 2126.9119502 2142.16026125 2126.9119502 2142.16026125 2121.37745457 2136.66255679 c 1,33,-1
2121.37745457 2136.66255679 m 2,47,48
 2092 2098 l 2,49,50
 2107 2118 2107 2118 2114 2128 c 0,51,52
 2117.06545566 2132.37922237 2117.06545566 2132.37922237 2121.37745457 2136.66255679 c 2,47,48
2260.69190801 2320.00903956 m 2,53,54
 2260.61837848 2320.1182137 2260.61837848 2320.1182137 2260.54477848 2320.22725391 c 2,55,-1
 2285 2352 l 1,56,-1
 2260.69190801 2320.00903956 l 2,53,54
1898.20340114 2310.22878898 m 2,57,58
 1891.51855215 2302.42284829 1891.51855215 2302.42284829 1885 2294 c 2,59,-1
 1929 2352 l 1,60,-1
 1898.20340114 2310.22878898 l 2,57,58
1064.08647871 2311.92168367 m 1,61,-1
 1053 2352 l 1,62,-1
 1071 2293 l 2,63,64
 1067.90533166 2302.88574607 1067.90533166 2302.88574607 1064.08647871 2311.92168367 c 1,61,-1
759.530399436 2098.92411618 m 2,65,66
 743.605719873 2150 743.605719873 2150 714 2150 c 0,67,68
 685 2150 685 2150 636 2106.5 c 128,-1,69
 587 2063 587 2063 544 1991 c 2,70,-1
 393 1742 l 1,71,-1
 342 1801 l 1,72,73
 518 2138 518 2138 642.5 2273 c 0,74,75
 667.55418642 2300.16719009 667.55418642 2300.16719009 692.993093503 2321.8672971 c 1,76,-1
 759.530399436 2098.92411618 l 2,65,66
759.530399436 2098.92411618 m 2,77,78
 760.280371547 2096.51869958 760.280371547 2096.51869958 761 2094 c 2,79,-1
 759.530399436 2098.92411618 l 2,77,78
692.993093503 2321.8672971 m 2,80,-1
 684 2352 l 1,81,-1
 693.32742473 2322.15224086 l 2,82,83
 693.160250811 2322.00988701 693.160250811 2322.00988701 692.993093503 2321.8672971 c 2,80,-1
EndSplineSet
EndChar

StartChar: y
Encoding: 121 121 92
Width: 1823
GlyphClass: 2
Flags: W
LayerCount: 2
Fore
SplineSet
585 -105 m 1,0,-1
 761 185 l 1,1,-1
 604 2234 l 1,2,-1
 622 1973 l 2,3,4
 620 2001 620 2001 606.5 2022.5 c 128,-1,5
 593 2044 593 2044 573 2044 c 0,6,7
 546 2044 546 2044 499.5 2006 c 128,-1,8
 453 1968 453 1968 415 1906 c 1,9,-1
 256 1656 l 1,10,-1
 209 1710 l 1,11,12
 379 2031 379 2031 500.5 2161 c 128,-1,13
 622 2291 622 2291 751 2291 c 0,14,15
 831 2291 831 2291 877 2238 c 0,16,17
 921.575671406 2186.64107425 921.575671406 2186.64107425 928.590086077 2093.02573467 c 2,18,-1
 919 2234 l 1,19,-1
 1055 687 l 1,20,-1
 1890 2117 l 1,21,22
 1988.4375 2291.00568182 1988.4375 2291.00568182 2132.35375775 2291.00568182 c 0,23,24
 2133.17613636 2291.00568182 2133.17613636 2291.00568182 2134 2291 c 0,25,26
 2263 2291 2263 2291 2324 2161.5 c 128,-1,27
 2385 2032 2385 2032 2407 1711 c 1,28,-1
 2333 1656 l 1,29,-1
 2292 1907 l 2,30,31
 2282 1968 2282 1968 2253.5 2006 c 128,-1,32
 2225 2044 2225 2044 2197 2044 c 0,33,34
 2165 2044 2165 2044 2124 1973 c 2,35,-1
 2274 2234 l 1,36,-1
 851 -196 l 1,37,38
 613 -576 613 -576 366 -576 c 2,39,-1
 65 -576 l 1,40,-1
 135 -272 l 1,41,-1
 354 -272 l 2,42,43
 478 -272 478 -272 585 -105 c 1,0,-1
EndSplineSet
EndChar

StartChar: z
Encoding: 122 122 93
Width: 1939
GlyphClass: 2
Flags: W
LayerCount: 2
Fore
SplineSet
725 2234 m 1,0,-1
 2216 2234 l 1,1,-1
 2146 1931 l 1,2,-1
 608 304 l 1,3,-1
 1771 304 l 1,4,-1
 1700 0 l 1,5,-1
 223 0 l 1,6,-1
 293 304 l 1,7,-1
 1835 1946 l 1,8,-1
 659 1946 l 1,9,-1
 725 2234 l 1,0,-1
EndSplineSet
EndChar

StartChar: braceleft
Encoding: 123 123 94
Width: 1018
GlyphClass: 2
Flags: W
LayerCount: 2
Fore
SplineSet
877 -432 m 1,0,1
 416.357864358 -432 416.357864358 -432 416.357864358 -59.7639307942 c 0,2,3
 416.357864358 24.5656565657 416.357864358 24.5656565657 440 128 c 1,4,-1
 647 1024 l 1,5,6
 683.003144654 1137.05660377 683.003144654 1137.05660377 683.003144654 1217.50658597 c 0,7,8
 683.003144654 1376.1509434 683.003144654 1376.1509434 543 1408 c 1,9,-1
 579 1568 l 1,10,11
 824 1600 824 1600 862 1952 c 1,12,-1
 1050 2768 l 2,13,14
 1183 3344 1183 3344 1748 3344 c 1,15,-1
 1700 3136 l 1,16,17
 1402 3136 1402 3136 1318 2768 c 1,18,-1
 1129 1952 l 2,19,20
 1051 1616 1051 1616 799 1488 c 1,21,22
 935.742424242 1384.36363636 935.742424242 1384.36363636 935.742424242 1189.56565657 c 0,23,24
 935.742424242 1113.6969697 935.742424242 1113.6969697 915 1024 c 2,25,-1
 708 128 l 2,26,27
 689.135770235 46.3289817232 689.135770235 46.3289817232 689.135770235 -17.2166147428 c 0,28,29
 689.135770235 -240 689.135770235 -240 921 -240 c 1,30,-1
 877 -432 l 1,0,1
EndSplineSet
EndChar

StartChar: bar
Encoding: 124 124 95
Width: 980
GlyphClass: 2
Flags: W
LayerCount: 2
Fore
SplineSet
1177 3520 m 1,0,-1
 1430 3520 l 1,1,-1
 484 -576 l 1,2,-1
 231 -576 l 1,3,-1
 1177 3520 l 1,0,-1
EndSplineSet
EndChar

StartChar: braceright
Encoding: 125 125 96
Width: 1023
GlyphClass: 2
Flags: W
LayerCount: 2
Fore
SplineSet
813 3344 m 1,0,1
 1287.47108604 3344 1287.47108604 3344 1287.47108604 2969.24145532 c 0,2,3
 1287.47108604 2885.8899859 1287.47108604 2885.8899859 1264 2784 c 2,4,-1
 1057 1888 l 1,5,6
 1012.43712575 1765.26946108 1012.43712575 1765.26946108 1012.43712575 1680.96439456 c 0,7,8
 1012.43712575 1534.46706587 1012.43712575 1534.46706587 1147 1504 c 1,9,-1
 1110 1344 l 1,10,11
 879 1312 879 1312 843 960 c 1,12,-1
 655 144 l 2,13,14
 522 -432 522 -432 -59 -432 c 1,15,-1
 -11 -224 l 1,16,17
 287 -224 287 -224 372 144 c 2,18,-1
 560 960 l 2,19,20
 638 1296 638 1296 905 1424 c 1,21,22
 754.372759857 1529.80645161 754.372759857 1529.80645161 754.372759857 1730.63223751 c 0,23,24
 754.372759857 1803.12544803 754.372759857 1803.12544803 774 1888 c 2,25,-1
 981 2784 l 2,26,27
 999.913612565 2865.88481675 999.913612565 2865.88481675 999.913612565 2929.54918999 c 0,28,29
 999.913612565 3152 999.913612565 3152 769 3152 c 1,30,-1
 813 3344 l 1,0,1
EndSplineSet
EndChar

StartChar: asciitilde
Encoding: 126 126 97
Width: 1541
GlyphClass: 2
Flags: W
LayerCount: 2
Fore
SplineSet
2044 2880 m 1,0,1
 1850.60465116 2608.74418605 1850.60465116 2608.74418605 1631.97620335 2608.74418605 c 0,2,3
 1502.41860465 2608.74418605 1502.41860465 2608.74418605 1364 2704 c 1,4,5
 1274.42857143 2786.28571429 1274.42857143 2786.28571429 1185.04081633 2786.28571429 c 0,6,7
 1065.85714286 2786.28571429 1065.85714286 2786.28571429 947 2640 c 1,8,-1
 809 2816 l 1,9,10
 1012.61702128 3122.38297872 1012.61702128 3122.38297872 1224.38252603 3122.38297872 c 0,11,12
 1344.38297872 3122.38297872 1344.38297872 3122.38297872 1467 3024 c 1,13,14
 1554.9375 2926 1554.9375 2926 1651.48828125 2926 c 0,15,16
 1775.625 2926 1775.625 2926 1914 3088 c 1,17,-1
 2044 2880 l 1,0,1
EndSplineSet
EndChar

StartChar: exclamdown
Encoding: 161 161 99
Width: 984
GlyphClass: 2
Flags: W
LayerCount: 2
Fore
SplineSet
1390 3248 m 1,0,-1
 1268 2720 l 1,1,-1
 985 2720 l 1,2,-1
 1107 3248 l 1,3,-1
 1390 3248 l 1,0,-1
257 -304 m 1,4,-1
 878 2192 l 1,5,-1
 1116 2192 l 1,6,-1
 585 -304 l 1,7,-1
 257 -304 l 1,4,-1
EndSplineSet
EndChar

StartChar: cent
Encoding: 162 162 100
Width: 2432
GlyphClass: 2
Flags: W
LayerCount: 2
Fore
SplineSet
1625 2176 m 1,0,1
 1394 2144 1394 2144 1197.5 2000 c 128,-1,2
 1001 1856 1001 1856 912 1472 c 0,3,4
 880.346820809 1335.12138728 880.346820809 1335.12138728 880.346820809 1223.12619867 c 0,5,6
 880.346820809 1073.29479769 880.346820809 1073.29479769 937 968 c 0,7,8
 1036 784 1036 784 1296 752 c 1,9,-1
 1625 2176 l 1,0,1
585 1472 m 0,10,11
 700 1968 700 1968 1019 2224 c 128,-1,12
 1338 2480 1338 2480 1695 2480 c 1,13,-1
 1802 2944 l 1,14,-1
 2100 2944 l 1,15,-1
 1993 2480 l 1,16,17
 2276 2480 2276 2480 2480.5 2272 c 0,18,19
 2641.65703276 2108.08477842 2641.65703276 2108.08477842 2641.65703276 1844.80491237 c 0,20,21
 2641.65703276 1773.99614644 2641.65703276 1773.99614644 2630 1696 c 1,22,-1
 2318 1696 l 1,23,24
 2332.22222222 1757.62962963 2332.22222222 1757.62962963 2332.22222222 1811.53360768 c 0,25,26
 2332.22222222 1939.55555556 2332.22222222 1939.55555556 2252 2024 c 0,27,28
 2138 2144 2138 2144 2030.5 2160 c 2,29,-1
 1923 2176 l 1,30,-1
 1590 736 l 1,31,32
 1835 768 1835 768 1986 904 c 128,-1,33
 2137 1040 2137 1040 2199 1248 c 1,34,-1
 2512 1248 l 1,35,36
 2408 864 2408 864 2129.5 656 c 128,-1,37
 1851 448 1851 448 1520 432 c 1,38,-1
 1420 0 l 1,39,-1
 1123 0 l 1,40,-1
 1222 432 l 1,41,42
 846 480 846 480 664 752 c 0,43,44
 547.775438596 925.698245614 547.775438596 925.698245614 547.775438596 1171.17025546 c 0,45,46
 547.775438596 1310.09122807 547.775438596 1310.09122807 585 1472 c 0,10,11
EndSplineSet
EndChar

StartChar: sterling
Encoding: 163 163 101
Width: 2634
GlyphClass: 2
Flags: W
LayerCount: 2
Fore
SplineSet
730 592 m 0,0,1
 596 592 596 592 538.5 536 c 128,-1,2
 481 480 481 480 463 400 c 0,3,4
 448 336 448 336 505.5 296 c 128,-1,5
 563 256 563 256 697 256 c 0,6,7
 950 256 950 256 1147 400 c 1,8,9
 1076 480 1076 480 992.5 536 c 128,-1,10
 909 592 909 592 730 592 c 0,0,1
1917 320 m 0,11,12
 2081 320 2081 320 2224 424 c 128,-1,13
 2367 528 2367 528 2422 896 c 1,14,-1
 2702 816 l 1,15,16
 2665 400 2665 400 2425.5 200 c 128,-1,17
 2186 0 2186 0 1844 0 c 0,18,19
 1561 0 1561 0 1468 80 c 128,-1,20
 1375 160 1375 160 1300 224 c 1,21,22
 1010 0 1010 0 638 0 c 0,23,24
 385 0 385 0 253 104 c 0,25,26
 154 182 154 182 154 309.5 c 0,27,28
 154 352 154 352 165 400 c 0,29,30
 213 608 213 608 395 720 c 128,-1,31
 577 832 577 832 786 832 c 0,32,33
 994 832 994 832 1109.5 784 c 128,-1,34
 1225 736 1225 736 1310 656 c 1,35,36
 1355 720 1355 720 1377 816 c 0,37,38
 1417.06622517 990.834437086 1417.06622517 990.834437086 1417.06622517 1110.47831235 c 0,39,40
 1417.06622517 1155.07284768 1417.06622517 1155.07284768 1411.5 1192 c 0,41,42
 1391 1328 1391 1328 1331 1520 c 1,43,-1
 796 1520 l 1,44,-1
 859 1792 l 1,45,-1
 1275 1792 l 1,46,47
 1242.67010309 1912.08247423 1242.67010309 1912.08247423 1242.67010309 2021.49941545 c 0,48,49
 1242.67010309 2101.60824742 1242.67010309 2101.60824742 1260 2176 c 0,50,51
 1326 2464 1326 2464 1552.5 2704 c 128,-1,52
 1779 2944 1779 2944 2181 2944 c 0,53,54
 2508 2944 2508 2944 2646 2768 c 0,55,56
 2750.63736264 2634.54945055 2750.63736264 2634.54945055 2750.63736264 2491.90001208 c 0,57,58
 2750.63736264 2446.41758242 2750.63736264 2446.41758242 2740 2400 c 1,59,-1
 2427 2400 l 1,60,61
 2432.23243243 2422.83243243 2432.23243243 2422.83243243 2432.23243243 2444.75979547 c 0,62,63
 2432.23243243 2515.02702703 2432.23243243 2515.02702703 2378.5 2576 c 0,64,65
 2308 2656 2308 2656 2114 2656 c 0,66,67
 1891 2656 1891 2656 1753.5 2512 c 128,-1,68
 1616 2368 1616 2368 1572 2176 c 1,69,70
 1560.77319588 2105.2371134 1560.77319588 2105.2371134 1560.77319588 2038.17791476 c 0,71,72
 1560.77319588 1908.12371134 1560.77319588 1908.12371134 1603 1792 c 1,73,-1
 2287 1792 l 1,74,-1
 2224 1520 l 1,75,-1
 1674 1520 l 1,76,77
 1734 1328 1734 1328 1741.5 1200 c 0,78,79
 1742.29787234 1186.38297872 1742.29787234 1186.38297872 1742.29787234 1171.13626075 c 0,80,81
 1742.29787234 1043.06382979 1742.29787234 1043.06382979 1686 800 c 0,82,83
 1642 608 1642 608 1538 480 c 1,84,85
 1579 400 1579 400 1658.5 360 c 128,-1,86
 1738 320 1738 320 1917 320 c 0,11,12
EndSplineSet
EndChar

StartChar: currency
Encoding: 164 164 102
Width: 1933
GlyphClass: 2
Flags: W
LayerCount: 2
Fore
SplineSet
672 1472 m 1,0,1
 772 1904 772 1904 994 2288 c 1,2,-1
 859 2800 l 1,3,-1
 1056 3072 l 1,4,-1
 1187 2544 l 1,5,6
 1410 2800 1410 2800 1618 2800 c 0,7,8
 1841 2800 1841 2800 1942 2528 c 1,9,-1
 2317 3056 l 1,10,-1
 2396 2816 l 1,11,-1
 2017 2272 l 1,12,13
 2026.25641026 2186.25641026 2026.25641026 2186.25641026 2026.25641026 2094.81656805 c 0,14,15
 2026.25641026 1810.87179487 2026.25641026 1810.87179487 1937 1472 c 1,16,17
 1834 1024 1834 1024 1633 672 c 1,18,-1
 1771 112 l 1,19,-1
 1597 -128 l 1,20,-1
 1455 416 l 1,21,22
 1232 160 1232 160 1009 160 c 0,23,24
 801 160 801 160 677 400 c 1,25,-1
 317 -128 l 1,26,-1
 242 128 l 1,27,-1
 617 656 l 1,28,29
 603.034482759 755.310344828 603.034482759 755.310344828 603.034482759 871.571938169 c 0,30,31
 603.034482759 1129.93103448 603.034482759 1129.93103448 672 1472 c 1,0,1
850 1472 m 0,32,33
 781.829896907 1177.97938144 781.829896907 1177.97938144 781.829896907 973.915187586 c 0,34,35
 781.829896907 833.731958763 781.829896907 833.731958763 814 736 c 0,36,37
 893 496 893 496 1086 496 c 0,38,39
 1324 496 1324 496 1508 808 c 128,-1,40
 1692 1120 1692 1120 1773 1472 c 0,41,42
 1833.42296073 1733.02719033 1833.42296073 1733.02719033 1833.42296073 1932.71868639 c 0,43,44
 1833.42296073 2063.51661631 1833.42296073 2063.51661631 1807.5 2168 c 0,45,46
 1742 2432 1742 2432 1533 2432 c 0,47,48
 1310 2432 1310 2432 1126 2152 c 128,-1,49
 942 1872 942 1872 850 1472 c 0,32,33
EndSplineSet
EndChar

StartChar: yen
Encoding: 165 165 103
Width: 2866
GlyphClass: 2
Flags: W
LayerCount: 2
Fore
SplineSet
1579 0 m 1,0,-1
 1282 0 l 1,1,-1
 1463 784 l 1,2,-1
 436 784 l 1,3,-1
 499 1056 l 1,4,-1
 1526 1056 l 1,5,-1
 1648 1584 l 1,6,-1
 621 1584 l 1,7,-1
 684 1856 l 1,8,-1
 1532 1856 l 1,9,-1
 957 3104 l 1,10,-1
 1359 3104 l 1,11,-1
 1870 1904 l 1,12,-1
 2891 3104 l 1,13,-1
 3308 3104 l 1,14,-1
 2186 1856 l 1,15,-1
 3035 1856 l 1,16,-1
 2972 1584 l 1,17,-1
 1945 1584 l 1,18,-1
 1823 1056 l 1,19,-1
 2850 1056 l 1,20,-1
 2787 784 l 1,21,-1
 1760 784 l 1,22,-1
 1579 0 l 1,0,-1
EndSplineSet
EndChar

StartChar: brokenbar
Encoding: 166 166 104
Width: 980
GlyphClass: 2
Flags: W
LayerCount: 2
Fore
SplineSet
1177 3520 m 1,0,-1
 1430 3520 l 1,1,-1
 484 -576 l 1,2,-1
 231 -576 l 1,3,-1
 1177 3520 l 1,0,-1
EndSplineSet
EndChar

StartChar: section
Encoding: 167 167 105
Width: 3094
GlyphClass: 2
Flags: W
LayerCount: 2
Fore
SplineSet
1606 1936 m 1,0,1
 1048 1776 1048 1776 1004 1584 c 0,2,3
 1000.86674392 1570.50289687 1000.86674392 1570.50289687 1000.86674392 1557.00579374 c 0,4,5
 1000.86674392 1346.50289687 1000.86674392 1346.50289687 1763 1136 c 1,6,-1
 2210 1008 l 1,7,8
 2686 1136 2686 1136 2738 1360 c 0,9,10
 2741.53926702 1375.2460733 2741.53926702 1375.2460733 2741.53926702 1390.41802582 c 0,11,12
 2741.53926702 1598.15706806 2741.53926702 1598.15706806 2078 1792 c 1,13,-1
 1606 1936 l 1,0,1
760 464 m 1,14,15
 756.650055371 433.789590255 756.650055371 433.789590255 756.650055371 405.419238689 c 0,16,17
 756.650055371 -32 756.650055371 -32 1553 -32 c 0,18,19
 2416 -32 2416 -32 2501 336 c 0,20,21
 2506.15644172 358.134969325 2506.15644172 358.134969325 2506.15644172 379.384169521 c 0,22,23
 2506.15644172 527.09202454 2506.15644172 527.09202454 2257 632 c 0,24,25
 1972 752 1972 752 1511 880 c 1,26,27
 923 1040 923 1040 740.5 1184 c 0,28,29
 602.585921325 1292.81987578 602.585921325 1292.81987578 602.585921325 1465.59990398 c 0,30,31
 602.585921325 1521.45755694 602.585921325 1521.45755694 617 1584 c 0,32,33
 672 1824 672 1824 1263 2064 c 1,34,35
 968.138823529 2237.25176471 968.138823529 2237.25176471 968.138823529 2477.10746574 c 0,36,37
 968.138823529 2525.21411765 968.138823529 2525.21411765 980 2576 c 0,38,39
 1054 2896 1054 2896 1384.5 3072 c 128,-1,40
 1715 3248 1715 3248 2310 3248 c 0,41,42
 3406.05263158 3248 3406.05263158 3248 3406.05263158 2596.47645429 c 0,43,44
 3406.05263158 2540.63157895 3406.05263158 2540.63157895 3398 2480 c 1,45,-1
 3026 2480 l 1,46,47
 3035.46201232 2527.3100616 3035.46201232 2527.3100616 3035.46201232 2569.95711919 c 0,48,49
 3035.46201232 2960 3035.46201232 2960 2244 2960 c 0,50,51
 1470 2960 1470 2960 1382 2576 c 0,52,53
 1374.78873239 2544.75117371 1374.78873239 2544.75117371 1374.78873239 2515.66911327 c 0,54,55
 1374.78873239 2351.17370892 1374.78873239 2351.17370892 1605.5 2256 c 0,56,57
 1877 2144 1877 2144 2201 2064 c 1,58,59
 2741 1888 2741 1888 2966 1736 c 0,60,61
 3146.80357143 1613.85714286 3146.80357143 1613.85714286 3146.80357143 1434.89030612 c 0,62,63
 3146.80357143 1391.14285714 3146.80357143 1391.14285714 3136 1344 c 0,64,65
 3070 1056 3070 1056 2534 864 c 1,66,67
 2899.92941176 701.364705882 2899.92941176 701.364705882 2899.92941176 435.40816609 c 0,68,69
 2899.92941176 387.388235294 2899.92941176 387.388235294 2888 336 c 0,70,71
 2822 48 2822 48 2424 -128 c 128,-1,72
 2026 -304 2026 -304 1490 -304 c 0,73,74
 353.830203443 -304 353.830203443 -304 353.830203443 378.768704034 c 0,75,76
 353.830203443 420.131455399 353.830203443 420.131455399 358 464 c 1,77,-1
 760 464 l 1,14,15
EndSplineSet
Substitution2: "'vert' Vertical Alternates (obs) in Hiragana & Katakana lookup 0 subtable" section.vert
EndChar

StartChar: dieresis
Encoding: 168 168 106
Width: 1770
GlyphClass: 2
Flags: W
LayerCount: 2
Fore
SplineSet
1832 3104 m 1,0,-1
 2293 3104 l 1,1,-1
 2183 2624 l 1,2,-1
 1721 2624 l 1,3,-1
 1832 3104 l 1,0,-1
910 3104 m 1,4,-1
 1371 3104 l 1,5,-1
 1260 2624 l 1,6,-1
 799 2624 l 1,7,-1
 910 3104 l 1,4,-1
EndSplineSet
Substitution2: "'vert' Vertical Alternates (obs) in Hiragana & Katakana lookup 0 subtable" dieresis.vert
EndChar

StartChar: copyright
Encoding: 169 169 107
Width: 2603
GlyphClass: 2
Flags: W
LayerCount: 2
Fore
SplineSet
764 1472 m 1,0,1
 730.241758242 1303.20879121 730.241758242 1303.20879121 730.241758242 1157.17039005 c 0,2,3
 730.241758242 887.912087912 730.241758242 887.912087912 845 696 c 0,4,5
 1022 400 1022 400 1394 400 c 128,-1,6
 1766 400 1766 400 2096.5 704 c 128,-1,7
 2427 1008 2427 1008 2534 1472 c 0,8,9
 2572.54882155 1639.16498316 2572.54882155 1639.16498316 2572.54882155 1785.56292442 c 0,10,11
 2572.54882155 2045.52188552 2572.54882155 2045.52188552 2451 2240 c 0,12,13
 2261 2544 2261 2544 1889 2544 c 128,-1,14
 1517 2544 1517 2544 1192 2232 c 128,-1,15
 867 1920 867 1920 764 1472 c 1,0,1
600 1472 m 0,16,17
 733 2048 733 2048 1132.5 2392 c 128,-1,18
 1532 2736 1532 2736 1934 2736 c 0,19,20
 2395 2736 2395 2736 2605.5 2392 c 0,21,22
 2734.49636099 2181.19359534 2734.49636099 2181.19359534 2734.49636099 1883.26301092 c 0,23,24
 2734.49636099 1695.02183406 2734.49636099 1695.02183406 2683 1472 c 0,25,26
 2561 944 2561 944 2186 576 c 128,-1,27
 1811 208 1811 208 1350 208 c 128,-1,28
 889 208 889 208 683.5 576 c 0,29,30
 554.552671756 806.912977099 554.552671756 806.912977099 554.552671756 1100.8231222 c 0,31,32
 554.552671756 1275.30992366 554.552671756 1275.30992366 600 1472 c 0,16,17
1087 1456 m 0,33,34
 1146 1712 1146 1712 1356 1912 c 128,-1,35
 1566 2112 1566 2112 1789 2112 c 0,36,37
 1982 2112 1982 2112 2087 1984 c 0,38,39
 2182.04310345 1868.13793103 2182.04310345 1868.13793103 2182.04310345 1660.51010702 c 0,40,41
 2182.04310345 1638.75862069 2182.04310345 1638.75862069 2181 1616 c 1,42,-1
 1987 1616 l 1,43,44
 1987.75968992 1633.36434109 1987.75968992 1633.36434109 1987.75968992 1649.692206 c 0,45,46
 1987.75968992 1783.81395349 1987.75968992 1783.81395349 1936.5 1848 c 0,47,48
 1879 1920 1879 1920 1745 1920 c 128,-1,49
 1611 1920 1611 1920 1472 1800 c 128,-1,50
 1333 1680 1333 1680 1281 1456 c 0,51,52
 1259.62450593 1363.92094862 1259.62450593 1363.92094862 1259.62450593 1288.06361605 c 0,53,54
 1259.62450593 1179.38339921 1259.62450593 1179.38339921 1303.5 1104 c 0,55,56
 1378 976 1378 976 1527 976 c 0,57,58
 1661 976 1661 976 1763 1064 c 128,-1,59
 1865 1152 1865 1152 1932 1312 c 1,60,-1
 2126 1312 l 1,61,62
 2059 1088 2059 1088 1884.5 944 c 128,-1,63
 1710 800 1710 800 1487 800 c 128,-1,64
 1264 800 1264 800 1144 992 c 0,65,66
 1065.31147541 1117.90163934 1065.31147541 1117.90163934 1065.31147541 1278.2026337 c 0,67,68
 1065.31147541 1362.36065574 1065.31147541 1362.36065574 1087 1456 c 0,33,34
EndSplineSet
EndChar

StartChar: ordfeminine
Encoding: 170 170 108
Width: 965
GlyphClass: 2
Flags: W
LayerCount: 2
Fore
SplineSet
1215 2704 m 1,0,1
 1074 2688 1074 2688 984 2624 c 128,-1,2
 894 2560 894 2560 861 2416 c 0,3,4
 843 2336 843 2336 860.5 2296 c 128,-1,5
 878 2256 878 2256 920 2256 c 0,6,7
 988 2256 988 2256 1036.5 2288 c 128,-1,8
 1085 2320 1085 2320 1152 2432 c 1,9,-1
 1215 2704 l 1,0,1
1245 3248 m 2,10,11
 1342 3248 1342 3248 1380.5 3144 c 0,12,13
 1399.38216561 3092.99363057 1399.38216561 3092.99363057 1399.38216561 3024.66858696 c 0,14,15
 1399.38216561 2953.68152866 1399.38216561 2953.68152866 1379 2864 c 2,16,-1
 1261 2352 l 1,17,-1
 1233 2112 l 1,18,-1
 1107 2112 l 1,19,-1
 1122 2240 l 1,20,21
 1066 2176 1066 2176 1016.5 2144 c 128,-1,22
 967 2112 967 2112 884 2112 c 0,23,24
 773 2112 773 2112 736 2192 c 0,25,26
 715.567164179 2236.17910448 715.567164179 2236.17910448 715.567164179 2294.9966585 c 0,27,28
 715.567164179 2342.68656716 715.567164179 2342.68656716 729 2400 c 0,29,30
 781 2624 781 2624 929 2728 c 128,-1,31
 1077 2832 1077 2832 1248 2848 c 1,32,-1
 1266 2928 l 2,33,34
 1272.52173913 2955.82608696 1272.52173913 2955.82608696 1272.52173913 2983.65217391 c 0,35,36
 1272.52173913 3019.82608696 1272.52173913 3019.82608696 1261.5 3056 c 0,37,38
 1242 3120 1242 3120 1174 3120 c 128,-1,39
 1106 3120 1106 3120 1058.5 3064 c 128,-1,40
 1011 3008 1011 3008 992 2928 c 1,41,-1
 879 2928 l 1,42,43
 912 3072 912 3072 988 3160 c 128,-1,44
 1064 3248 1064 3248 1148 3248 c 2,45,-1
 1245 3248 l 2,10,11
EndSplineSet
EndChar

StartChar: guillemotleft
Encoding: 171 171 109
Width: 2348
GlyphClass: 2
Flags: W
LayerCount: 2
Fore
SplineSet
2888 2656 m 1,0,-1
 1365 1472 l 1,1,-1
 2342 288 l 1,2,-1
 2175 144 l 1,3,-1
 1082 1472 l 1,4,-1
 2784 2784 l 1,5,-1
 2888 2656 l 1,0,-1
2278 2656 m 1,6,-1
 755 1472 l 1,7,-1
 1732 288 l 1,8,-1
 1565 144 l 1,9,-1
 487 1472 l 1,10,-1
 2174 2784 l 1,11,-1
 2278 2656 l 1,6,-1
EndSplineSet
EndChar

StartChar: logicalnot
Encoding: 172 172 110
Width: 3739
GlyphClass: 2
Flags: W
LayerCount: 2
Fore
SplineSet
670 2000 m 1,0,-1
 3884 2000 l 1,1,-1
 3603 784 l 1,2,-1
 3291 784 l 1,3,-1
 3509 1728 l 1,4,-1
 607 1728 l 1,5,-1
 670 2000 l 1,0,-1
EndSplineSet
EndChar

StartChar: uni00AD
Encoding: 173 173 111
Width: 2224
GlyphClass: 2
Flags: W
LayerCount: 2
Fore
SplineSet
653 1616 m 1,0,-1
 2320 1616 l 1,1,-1
 2257 1344 l 1,2,-1
 591 1344 l 1,3,-1
 653 1616 l 1,0,-1
EndSplineSet
EndChar

StartChar: registered
Encoding: 174 174 112
Width: 2603
GlyphClass: 2
Flags: W
LayerCount: 2
Fore
SplineSet
1433 1600 m 1,0,-1
 1761 1600 l 2,1,2
 1850 1600 1850 1600 1922.5 1656 c 128,-1,3
 1995 1712 1995 1712 2024 1840 c 0,4,5
 2033.32413793 1880.16551724 2033.32413793 1880.16551724 2033.32413793 1913.12894174 c 0,6,7
 2033.32413793 1972.08275862 2033.32413793 1972.08275862 2003.5 2008 c 0,8,9
 1957 2064 1957 2064 1868 2064 c 2,10,-1
 1540 2064 l 1,11,-1
 1433 1600 l 1,0,-1
1996 752 m 1,12,-1
 1818 752 l 1,13,-1
 1642 1472 l 1,14,-1
 1404 1472 l 1,15,-1
 1237 752 l 1,16,-1
 1103 752 l 1,17,-1
 1440 2208 l 1,18,-1
 1901 2208 l 2,19,20
 2080 2208 2080 2208 2150.5 2096 c 0,21,22
 2198.52173913 2019.71014493 2198.52173913 2019.71014493 2198.52173913 1928.57298887 c 0,23,24
 2198.52173913 1885.91304348 2198.52173913 1885.91304348 2188 1840 c 0,25,26
 2155 1696 2155 1696 2064 1592 c 128,-1,27
 1973 1488 1973 1488 1790 1472 c 1,28,-1
 1996 752 l 1,12,-1
764 1472 m 1,29,30
 730.241758242 1303.20879121 730.241758242 1303.20879121 730.241758242 1157.17039005 c 0,31,32
 730.241758242 887.912087912 730.241758242 887.912087912 845 696 c 0,33,34
 1022 400 1022 400 1394 400 c 128,-1,35
 1766 400 1766 400 2096.5 704 c 128,-1,36
 2427 1008 2427 1008 2534 1472 c 0,37,38
 2572.54882155 1639.16498316 2572.54882155 1639.16498316 2572.54882155 1785.56292442 c 0,39,40
 2572.54882155 2045.52188552 2572.54882155 2045.52188552 2451 2240 c 0,41,42
 2261 2544 2261 2544 1889 2544 c 128,-1,43
 1517 2544 1517 2544 1192 2232 c 128,-1,44
 867 1920 867 1920 764 1472 c 1,29,30
600 1472 m 0,45,46
 733 2048 733 2048 1132.5 2392 c 128,-1,47
 1532 2736 1532 2736 1934 2736 c 0,48,49
 2395 2736 2395 2736 2605.5 2392 c 0,50,51
 2734.49636099 2181.19359534 2734.49636099 2181.19359534 2734.49636099 1883.26301092 c 0,52,53
 2734.49636099 1695.02183406 2734.49636099 1695.02183406 2683 1472 c 0,54,55
 2561 944 2561 944 2186 576 c 128,-1,56
 1811 208 1811 208 1350 208 c 128,-1,57
 889 208 889 208 683.5 576 c 0,58,59
 554.552671756 806.912977099 554.552671756 806.912977099 554.552671756 1100.8231222 c 0,60,61
 554.552671756 1275.30992366 554.552671756 1275.30992366 600 1472 c 0,45,46
EndSplineSet
EndChar

StartChar: macron
Encoding: 175 175 113
Width: 3045
GlyphClass: 2
Flags: W
LayerCount: 2
Fore
SplineSet
1067 3520 m 1,0,-1
 3612 3520 l 1,1,-1
 3549 3248 l 1,2,-1
 1005 3248 l 1,3,-1
 1067 3520 l 1,0,-1
EndSplineSet
EndChar

StartChar: degree
Encoding: 176 176 114
Width: 1616
GlyphClass: 2
Flags: W
LayerCount: 2
Fore
SplineSet
1504 3024 m 0,0,1
 1325 3024 1325 3024 1202.5 2912 c 128,-1,2
 1080 2800 1080 2800 1036 2608 c 0,3,4
 1020.38709677 2539.87096774 1020.38709677 2539.87096774 1020.38709677 2482.82206035 c 0,5,6
 1020.38709677 2379.09677419 1020.38709677 2379.09677419 1072 2312 c 0,7,8
 1152 2208 1152 2208 1315 2208 c 0,9,10
 1464 2208 1464 2208 1592 2312 c 128,-1,11
 1720 2416 1720 2416 1765 2608 c 0,12,13
 1778.16346154 2664.92307692 1778.16346154 2664.92307692 1778.16346154 2717.79585799 c 0,14,15
 1778.16346154 2813.53846154 1778.16346154 2813.53846154 1735 2896 c 0,16,17
 1668 3024 1668 3024 1504 3024 c 0,0,1
1570 3312 m 0,18,19
 1823 3312 1823 3312 1972 3120 c 0,20,21
 2071.55605381 2991.71300448 2071.55605381 2991.71300448 2071.55605381 2806.28172696 c 0,22,23
 2071.55605381 2714.18834081 2071.55605381 2714.18834081 2047 2608 c 0,24,25
 1969 2272 1969 2272 1741 2088 c 128,-1,26
 1513 1904 1513 1904 1245 1904 c 128,-1,27
 977 1904 977 1904 833.5 2088 c 0,28,29
 740.532731377 2207.20541761 740.532731377 2207.20541761 740.532731377 2390.20778705 c 0,30,31
 740.532731377 2489.67945824 740.532731377 2489.67945824 768 2608 c 0,32,33
 842 2928 842 2928 1057 3120 c 128,-1,34
 1272 3312 1272 3312 1570 3312 c 0,18,19
EndSplineSet
Substitution2: "'vert' Vertical Alternates (obs) in Hiragana & Katakana lookup 0 subtable" degree.vert
EndChar

StartChar: plusminus
Encoding: 177 177 115
Width: 2985
GlyphClass: 2
Flags: W
LayerCount: 2
Fore
SplineSet
174 -16 m 1,0,-1
 2793 -16 l 1,1,-1
 2726 -304 l 1,2,-1
 107 -304 l 1,3,-1
 174 -16 l 1,0,-1
2103 3248 m 1,4,-1
 2371 3248 l 1,5,-1
 2094 2048 l 1,6,-1
 3269 2048 l 1,7,-1
 3195 1728 l 1,8,-1
 2020 1728 l 1,9,-1
 1739 512 l 1,10,-1
 1471 512 l 1,11,-1
 1752 1728 l 1,12,-1
 576 1728 l 1,13,-1
 650 2048 l 1,14,-1
 1826 2048 l 1,15,-1
 2103 3248 l 1,4,-1
EndSplineSet
Substitution2: "'vert' Vertical Alternates (obs) in Hiragana & Katakana lookup 0 subtable" plusminus.vert
EndChar

StartChar: uni00B2
Encoding: 178 178 116
Width: 822
GlyphClass: 2
Flags: W
LayerCount: 2
Fore
SplineSet
1188 3424 m 0,0,1
 1277 3424 1277 3424 1314.5 3328 c 0,2,3
 1332.41401274 3282.14012739 1332.41401274 3282.14012739 1332.41401274 3218.02393606 c 0,4,5
 1332.41401274 3147.92356688 1332.41401274 3147.92356688 1311 3056 c 0,6,7
 1263 2848 1263 2848 1126 2640 c 1,8,-1
 821 2224 l 1,9,-1
 1119 2224 l 1,10,-1
 1082 2064 l 1,11,-1
 680 2064 l 1,12,-1
 721 2240 l 1,13,-1
 1048 2688 l 1,14,15
 1196 2880 1196 2880 1237 3056 c 0,16,17
 1252.38461538 3121.64102564 1252.38461538 3121.64102564 1252.38461538 3164.13938199 c 0,18,19
 1252.38461538 3204.51282051 1252.38461538 3204.51282051 1238.5 3224 c 0,20,21
 1210 3264 1210 3264 1151 3264 c 0,22,23
 1106 3264 1106 3264 1059.5 3224 c 128,-1,24
 1013 3184 1013 3184 980 3040 c 1,25,-1
 906 3040 l 1,26,27
 947 3216 947 3216 1030.5 3320 c 128,-1,28
 1114 3424 1114 3424 1188 3424 c 0,0,1
EndSplineSet
EndChar

StartChar: uni00B3
Encoding: 179 179 117
Width: 787
GlyphClass: 2
Flags: W
LayerCount: 2
Fore
SplineSet
1067 2912 m 1,0,1
 1194.56506849 2912 1194.56506849 2912 1194.56506849 2723.2735973 c 0,2,3
 1194.56506849 2626.46575342 1194.56506849 2626.46575342 1161 2480 c 0,4,5
 1065 2064 1065 2064 827 2064 c 2,6,-1
 663 2064 l 1,7,-1
 696 2208 l 1,8,-1
 860 2208 l 2,9,10
 994 2208 994 2208 1057 2480 c 0,11,12
 1081.01960784 2584.31372549 1081.01960784 2584.31372549 1081.01960784 2652.83352557 c 0,13,14
 1081.01960784 2784 1081.01960784 2784 993 2784 c 2,15,-1
 889 2784 l 1,16,-1
 915 2896 l 1,17,-1
 1212 3280 l 1,18,-1
 944 3280 l 1,19,-1
 977 3424 l 1,20,-1
 1379 3424 l 1,21,-1
 1346 3280 l 1,22,-1
 1067 2912 l 1,0,1
EndSplineSet
EndChar

StartChar: acute
Encoding: 180 180 118
Width: 1041
GlyphClass: 2
Flags: W
LayerCount: 2
Fore
SplineSet
1159 3104 m 1,0,-1
 1620 3104 l 1,1,-1
 1059 2608 l 1,2,-1
 761 2608 l 1,3,-1
 1159 3104 l 1,0,-1
EndSplineSet
Substitution2: "'vert' Vertical Alternates (obs) in Hiragana & Katakana lookup 0 subtable" acute.vert
EndChar

StartChar: uni00B5
Encoding: 181 181 119
Width: 1917
GlyphClass: 2
Flags: W
LayerCount: 2
Fore
SplineSet
1716 561 m 2,0,1
 1674 378 1674 378 1657 266 c 1,2,3
 1657 239 1657 239 1675 215.5 c 128,-1,4
 1693 192 1693 192 1715 192 c 0,5,6
 1744 192 1744 192 1792 231.5 c 128,-1,7
 1840 271 1840 271 1881 335 c 2,8,-1
 2027 560 l 1,9,-1
 2079 508 l 1,10,11
 1906 196 1906 196 1782.5 71 c 128,-1,12
 1659 -54 1659 -54 1523 -54 c 0,13,14
 1467 -54 1467 -54 1428.5 -31.5 c 128,-1,15
 1390 -9 1390 -9 1370.5 35.5 c 128,-1,16
 1351 80 1351 80 1343.5 136.5 c 0,17,18
 1339.48214286 166.767857143 1339.48214286 166.767857143 1339.48214286 202.34502551 c 0,19,20
 1339.48214286 233.178571429 1339.48214286 233.178571429 1342.5 268 c 0,21,22
 1349 343 1349 343 1362 419.5 c 0,23,24
 1372.62022389 481.995932894 1372.62022389 481.995932894 1388.57957943 555.503824733 c 0,25,26
 1388.78976869 555.751797443 1388.78976869 555.751797443 1389 556 c 2,27,-1
 1678 1808 l 1,28,-1
 2004 1808 l 1,29,-1
 1716 561 l 2,0,1
1191.60072166 366.909409574 m 1,30,31
 1299.64000827 497.663514946 1299.64000827 497.663514946 1396 589 c 1,32,33
 1392.15574631 571.97544781 1392.15574631 571.97544781 1388.57957943 555.503824733 c 1,34,35
 1284.98560582 433.287882727 1284.98560582 433.287882727 1191.60072166 366.909409574 c 1,30,31
1191.60072166 366.909409574 m 1,36,37
 1063.06579248 211.350536549 1063.06579248 211.350536549 918 0 c 1,38,39
 754 0 754 0 712 176 c 1,40,-1
 538 -576 l 1,41,-1
 197 -576 l 1,42,-1
 747 1808 l 1,43,-1
 1089 1808 l 1,44,-1
 793 526 l 1,45,46
 848 288 848 288 984 288 c 0,47,48
 1080.58662751 288 1080.58662751 288 1191.60072166 366.909409574 c 1,36,37
EndSplineSet
EndChar

StartChar: paragraph
Encoding: 182 182 120
Width: 1268
GlyphClass: 2
Flags: W
LayerCount: 2
Fore
SplineSet
372 -304 m 1,0,-1
 885 1920 l 1,1,2
 874.384615385 1918.76923077 874.384615385 1918.76923077 864.319526627 1918.76923077 c 0,3,4
 743.538461538 1918.76923077 743.538461538 1918.76923077 702 2096 c 0,5,6
 684.543103448 2170.48275862 684.543103448 2170.48275862 684.543103448 2261.82045184 c 0,7,8
 684.543103448 2405.93103448 684.543103448 2405.93103448 728 2592 c 1,9,10
 794 2880 794 2880 926 3064 c 128,-1,11
 1058 3248 1058 3248 1206 3248 c 2,12,-1
 1712 3248 l 1,13,-1
 1653 2992 l 1,14,-1
 1609 2992 l 1,15,-1
 848 -304 l 1,16,-1
 699 -304 l 1,17,-1
 1460 2992 l 1,18,-1
 1281 2992 l 1,19,-1
 520 -304 l 1,20,-1
 372 -304 l 1,0,-1
EndSplineSet
Substitution2: "'vert' Vertical Alternates (obs) in Hiragana & Katakana lookup 0 subtable" paragraph.vert
EndChar

StartChar: periodcentered
Encoding: 183 183 121
Width: 755
GlyphClass: 2
Flags: W
LayerCount: 2
Fore
SplineSet
586 1280 m 1,0,-1
 700 1776 l 1,1,-1
 879 1776 l 1,2,-1
 764 1280 l 1,3,-1
 586 1280 l 1,0,-1
EndSplineSet
EndChar

StartChar: cedilla
Encoding: 184 184 122
Width: 651
GlyphClass: 2
Flags: W
LayerCount: 2
Fore
SplineSet
254 288 m 0,0,1
 284 416 284 416 347 528 c 128,-1,2
 410 640 410 640 469 640 c 0,3,4
 529 640 529 640 542 536 c 0,5,6
 545.673913043 506.608695652 545.673913043 506.608695652 545.673913043 474.02268431 c 0,7,8
 545.673913043 391.304347826 545.673913043 391.304347826 522 288 c 1,9,10
 448 -96 448 -96 331 -312 c 128,-1,11
 214 -528 214 -528 69 -576 c 1,12,-1
 95 -400 l 1,13,14
 173 -384 173 -384 217.5 -320 c 128,-1,15
 262 -256 262 -256 299 -160 c 128,-1,16
 336 -64 336 -64 307 -64 c 0,17,18
 247 -64 247 -64 232 32 c 0,19,20
 227.673076923 59.6923076923 227.673076923 59.6923076923 227.673076923 92.7100591716 c 0,21,22
 227.673076923 174.153846154 227.673076923 174.153846154 254 288 c 0,0,1
EndSplineSet
EndChar

StartChar: uni00B9
Encoding: 185 185 123
Width: 628
GlyphClass: 2
Flags: W
LayerCount: 2
Fore
SplineSet
868 2064 m 1,0,-1
 734 2064 l 1,1,-1
 960 3040 l 1,2,-1
 856 3040 l 1,3,-1
 900 3232 l 1,4,5
 1019 3232 1019 3232 1093 3424 c 1,6,-1
 1182 3424 l 1,7,-1
 868 2064 l 1,0,-1
EndSplineSet
EndChar

StartChar: ordmasculine
Encoding: 186 186 124
Width: 794
GlyphClass: 2
Flags: W
LayerCount: 2
Fore
SplineSet
897 2752 m 0,0,1
 847.81300813 2537.36585366 847.81300813 2537.36585366 847.81300813 2418.7063256 c 0,2,3
 847.81300813 2404.68292683 847.81300813 2404.68292683 848.5 2392 c 0,4,5
 855 2272 855 2272 910 2272 c 128,-1,6
 965 2272 965 2272 1026.5 2392 c 128,-1,7
 1088 2512 1088 2512 1144 2752 c 0,8,9
 1191.63779528 2959.87401575 1191.63779528 2959.87401575 1191.63779528 3071.72223944 c 0,10,11
 1191.63779528 3089.00787402 1191.63779528 3089.00787402 1190.5 3104 c 0,12,13
 1182 3216 1182 3216 1128 3216 c 0,14,15
 1073 3216 1073 3216 1012.5 3104 c 128,-1,16
 952 2992 952 2992 897 2752 c 0,0,1
812 2752 m 0,17,18
 871 3008 871 3008 974.5 3216 c 128,-1,19
 1078 3424 1078 3424 1176 3424 c 0,20,21
 1273 3424 1273 3424 1284 3232 c 0,22,23
 1285.57142857 3204.57142857 1285.57142857 3204.57142857 1285.57142857 3175.18367347 c 0,24,25
 1285.57142857 2998.85714286 1285.57142857 2998.85714286 1229 2752 c 0,26,27
 1159 2448 1159 2448 1059 2256 c 128,-1,28
 959 2064 959 2064 862 2064 c 128,-1,29
 765 2064 765 2064 755.5 2264 c 0,30,31
 754.304635762 2289.16556291 754.304635762 2289.16556291 754.304635762 2315.72439805 c 0,32,33
 754.304635762 2500.2384106 754.304635762 2500.2384106 812 2752 c 0,17,18
EndSplineSet
EndChar

StartChar: guillemotright
Encoding: 187 187 125
Width: 2333
GlyphClass: 2
Flags: W
LayerCount: 2
Fore
SplineSet
736 288 m 1,0,-1
 2260 1472 l 1,1,-1
 1283 2656 l 1,2,-1
 1465 2800 l 1,3,-1
 2527 1472 l 1,4,-1
 856 160 l 1,5,-1
 736 288 l 1,0,-1
141 288 m 1,6,-1
 1649 1472 l 1,7,-1
 688 2656 l 1,8,-1
 855 2800 l 1,9,-1
 1932 1472 l 1,10,-1
 245 160 l 1,11,-1
 141 288 l 1,6,-1
EndSplineSet
EndChar

StartChar: onequarter
Encoding: 188 188 126
Width: 1844
GlyphClass: 2
Flags: W
LayerCount: 2
Fore
SplineSet
1561 0 m 1,0,-1
 1367 0 l 1,1,-1
 1445 336 l 1,2,-1
 894 336 l 1,3,-1
 913 416 l 1,4,-1
 1737 1472 l 1,5,-1
 1901 1472 l 1,6,-1
 1679 512 l 1,7,-1
 1902 512 l 1,8,-1
 1862 336 l 1,9,-1
 1638 336 l 1,10,-1
 1561 0 l 1,0,-1
1626 1120 m 1,11,-1
 1143 512 l 1,12,-1
 1486 512 l 1,13,-1
 1626 1120 l 1,11,-1
2158 3104 m 1,14,-1
 2270 3072 l 1,15,-1
 374 16 l 1,16,-1
 266 64 l 1,17,-1
 2158 3104 l 1,14,-1
822 1632 m 1,18,-1
 643 1632 l 1,19,-1
 916 2816 l 1,20,-1
 723 2816 l 1,21,-1
 756 2960 l 1,22,23
 964 2960 964 2960 1027 3104 c 1,24,-1
 1161 3104 l 1,25,-1
 822 1632 l 1,18,-1
EndSplineSet
EndChar

StartChar: onehalf
Encoding: 189 189 127
Width: 1961
GlyphClass: 2
Flags: W
LayerCount: 2
Fore
SplineSet
1674 1472 m 0,0,1
 1853 1472 1853 1472 1946 1360 c 0,2,3
 2008.67391304 1284.52173913 2008.67391304 1284.52173913 2008.67391304 1172.71077505 c 0,4,5
 2008.67391304 1118.60869565 2008.67391304 1118.60869565 1994 1056 c 0,6,7
 1946 848 1946 848 1701 624 c 1,8,-1
 1181 176 l 1,9,-1
 1791 176 l 1,10,-1
 1751 0 l 1,11,-1
 947 0 l 1,12,-1
 991 192 l 1,13,-1
 1549 672 l 1,14,15
 1776 880 1776 880 1816 1056 c 0,16,17
 1828.23595506 1109.39325843 1828.23595506 1109.39325843 1828.23595506 1149.58818331 c 0,18,19
 1828.23595506 1217.79775281 1828.23595506 1217.79775281 1793 1248 c 0,20,21
 1737 1296 1737 1296 1633 1296 c 0,22,23
 1544 1296 1544 1296 1466 1248 c 128,-1,24
 1388 1200 1388 1200 1351 1040 c 1,25,-1
 1172 1040 l 1,26,27
 1216 1232 1216 1232 1363 1352 c 128,-1,28
 1510 1472 1510 1472 1674 1472 c 0,0,1
818 1632 m 1,29,-1
 639 1632 l 1,30,-1
 916 2832 l 1,31,-1
 723 2832 l 1,32,-1
 753 2960 l 1,33,34
 965 2976 965 2976 1024 3104 c 1,35,-1
 1158 3104 l 1,36,-1
 818 1632 l 1,29,-1
2155 3104 m 1,37,-1
 2266 3072 l 1,38,-1
 370 16 l 1,39,-1
 262 64 l 1,40,-1
 2155 3104 l 1,37,-1
EndSplineSet
EndChar

StartChar: threequarters
Encoding: 190 190 128
Width: 2033
GlyphClass: 2
Flags: W
LayerCount: 2
Fore
SplineSet
1748 0 m 1,0,-1
 1569 0 l 1,1,-1
 1647 336 l 1,2,-1
 1081 336 l 1,3,-1
 1129 544 l 1,4,-1
 1894 1472 l 1,5,-1
 2088 1472 l 1,6,-1
 1866 512 l 1,7,-1
 2104 512 l 1,8,-1
 2063 336 l 1,9,-1
 1825 336 l 1,10,-1
 1748 0 l 1,0,-1
1831 1136 m 1,11,-1
 1315 512 l 1,12,-1
 1687 512 l 1,13,-1
 1831 1136 l 1,11,-1
2286 3104 m 1,14,-1
 2397 3072 l 1,15,-1
 501 16 l 1,16,-1
 394 64 l 1,17,-1
 2286 3104 l 1,14,-1
1174 2544 m 1,18,19
 1479.65102041 2544 1479.65102041 2544 1479.65102041 2264.54763848 c 0,20,21
 1479.65102041 2190.17142857 1479.65102041 2190.17142857 1458 2096 c 0,22,23
 1351 1632 1351 1632 875 1632 c 2,24,-1
 577 1632 l 1,25,-1
 614 1792 l 1,26,-1
 912 1792 l 2,27,28
 1165 1792 1165 1792 1235 2096 c 0,29,30
 1251.74617737 2168.41590214 1251.74617737 2168.41590214 1251.74617737 2224.44410777 c 0,31,32
 1251.74617737 2416 1251.74617737 2416 1056 2416 c 2,33,-1
 862 2416 l 1,34,-1
 892 2544 l 1,35,-1
 1371 2944 l 1,36,-1
 880 2944 l 1,37,-1
 917 3104 l 1,38,-1
 1691 3104 l 1,39,-1
 1654 2944 l 1,40,-1
 1174 2544 l 1,18,19
EndSplineSet
EndChar

StartChar: questiondown
Encoding: 191 191 129
Width: 1731
GlyphClass: 2
Flags: W
LayerCount: 2
Fore
SplineSet
1827 3168 m 1,0,-1
 1724 2720 l 1,1,-1
 1367 2720 l 1,2,-1
 1470 3168 l 1,3,-1
 1827 3168 l 1,0,-1
836 -160 m 1,4,5
 813.172413793 -161.103448276 813.172413793 -161.103448276 791.200951249 -161.103448276 c 0,6,7
 494.586206897 -161.103448276 494.586206897 -161.103448276 354 40 c 0,8,9
 250.828054299 187.583710407 250.828054299 187.583710407 250.828054299 376.249462542 c 0,10,11
 250.828054299 463.71040724 250.828054299 463.71040724 273 560 c 0,12,13
 351 896 351 896 525.5 1072 c 128,-1,14
 700 1248 700 1248 893 1376 c 1,15,16
 1090 1520 1090 1520 1149 1680 c 128,-1,17
 1208 1840 1208 1840 1242 1984 c 2,18,-1
 1297 2224 l 1,19,-1
 1580 2224 l 1,20,-1
 1524 1984 l 2,21,22
 1487 1824 1487 1824 1415 1640 c 128,-1,23
 1343 1456 1343 1456 1102 1248 c 1,24,25
 872 1088 872 1088 736 952 c 128,-1,26
 600 816 600 816 545 576 c 0,27,28
 529.387096774 507.870967742 529.387096774 507.870967742 529.387096774 446.792924037 c 0,29,30
 529.387096774 335.741935484 529.387096774 335.741935484 581 248 c 0,31,32
 661 112 661 112 899 112 c 0,33,34
 1152 112 1152 112 1308 272 c 128,-1,35
 1464 432 1464 432 1519 672 c 2,36,-1
 1560 848 l 1,37,-1
 1813 848 l 1,38,-1
 1772 672 l 2,39,40
 1687 304 1687 304 1425 72 c 128,-1,41
 1163 -160 1163 -160 836 -160 c 1,4,5
EndSplineSet
EndChar

StartChar: Agrave
Encoding: 192 192 130
Width: 1705
GlyphClass: 2
Flags: W
LayerCount: 2
Fore
SplineSet
1283 3520 m 1,0,-1
 1685 3520 l 1,1,-1
 1843 2720 l 1,2,-1
 1619 2720 l 1,3,-1
 1283 3520 l 1,0,-1
1572 0 m 1,4,-1
 1319 0 l 1,5,-1
 1295 672 l 1,6,-1
 700 672 l 1,7,-1
 381 0 l 1,8,-1
 128 0 l 1,9,-1
 1252 2352 l 1,10,-1
 1534 2352 l 1,11,-1
 1572 0 l 1,4,-1
841 960 m 1,12,-1
 1302 960 l 1,13,-1
 1282 1904 l 1,14,-1
 841 960 l 1,12,-1
EndSplineSet
EndChar

StartChar: Aacute
Encoding: 193 193 131
Width: 1705
GlyphClass: 2
Flags: W
LayerCount: 2
Fore
SplineSet
2042 3520 m 1,0,-1
 1351 2720 l 1,1,-1
 1113 2720 l 1,2,-1
 1640 3520 l 1,3,-1
 2042 3520 l 1,0,-1
1572 0 m 1,4,-1
 1319 0 l 1,5,-1
 1295 672 l 1,6,-1
 700 672 l 1,7,-1
 381 0 l 1,8,-1
 128 0 l 1,9,-1
 1252 2352 l 1,10,-1
 1534 2352 l 1,11,-1
 1572 0 l 1,4,-1
841 960 m 1,12,-1
 1302 960 l 1,13,-1
 1282 1904 l 1,14,-1
 841 960 l 1,12,-1
EndSplineSet
EndChar

StartChar: Acircumflex
Encoding: 194 194 132
Width: 1707
GlyphClass: 2
Flags: W
LayerCount: 2
Fore
SplineSet
1597 3520 m 1,0,-1
 1716 3520 l 1,1,-1
 1959 2832 l 1,2,-1
 1773 2672 l 1,3,-1
 1586 3216 l 1,4,-1
 1148 2672 l 1,5,-1
 1036 2832 l 1,6,-1
 1597 3520 l 1,0,-1
1573 0 m 1,7,-1
 1320 0 l 1,8,-1
 1296 672 l 1,9,-1
 701 672 l 1,10,-1
 382 0 l 1,11,-1
 129 0 l 1,12,-1
 1253 2352 l 1,13,-1
 1535 2352 l 1,14,-1
 1573 0 l 1,7,-1
842 960 m 1,15,-1
 1303 960 l 1,16,-1
 1298 1904 l 1,17,-1
 842 960 l 1,15,-1
EndSplineSet
EndChar

StartChar: Atilde
Encoding: 195 195 133
Width: 1785
GlyphClass: 2
Flags: W
LayerCount: 2
Fore
SplineSet
2224 2960 m 1,0,1
 1945 2656 1945 2656 1812 2656 c 0,2,3
 1678 2656 1678 2656 1607 2800 c 1,4,-1
 1484 3040 l 1,5,6
 1435 3152 1435 3152 1331 3152 c 0,7,8
 1212 3152 1212 3152 893 2800 c 1,9,-1
 985 3200 l 1,10,11
 1282 3520 1282 3520 1416 3520 c 128,-1,12
 1550 3520 1550 3520 1602 3360 c 1,13,-1
 1726 3120 l 1,14,15
 1789 3008 1789 3008 1893 3008 c 128,-1,16
 1997 3008 1997 3008 2317 3360 c 1,17,-1
 2224 2960 l 1,0,1
1615 0 m 1,18,-1
 1362 0 l 1,19,-1
 1339 672 l 1,20,-1
 744 672 l 1,21,-1
 425 0 l 1,22,-1
 172 0 l 1,23,-1
 1295 2352 l 1,24,-1
 1578 2352 l 1,25,-1
 1615 0 l 1,18,-1
885 960 m 1,26,-1
 1346 960 l 1,27,-1
 1326 1904 l 1,28,-1
 885 960 l 1,26,-1
EndSplineSet
EndChar

StartChar: Adieresis
Encoding: 196 196 134
Width: 1775
GlyphClass: 2
Flags: W
LayerCount: 2
Fore
SplineSet
923 2720 m 1,0,-1
 1108 3520 l 1,1,-1
 1480 3520 l 1,2,-1
 1295 2720 l 1,3,-1
 923 2720 l 1,0,-1
1697 2720 m 1,4,-1
 1881 3520 l 1,5,-1
 2268 3520 l 1,6,-1
 2084 2720 l 1,7,-1
 1697 2720 l 1,4,-1
1619 0 m 1,8,-1
 1351 0 l 1,9,-1
 1343 672 l 1,10,-1
 748 672 l 1,11,-1
 429 0 l 1,12,-1
 161 0 l 1,13,-1
 1284 2352 l 1,14,-1
 1582 2352 l 1,15,-1
 1619 0 l 1,8,-1
874 960 m 1,16,-1
 1350 960 l 1,17,-1
 1330 1904 l 1,18,-1
 874 960 l 1,16,-1
EndSplineSet
EndChar

StartChar: Aring
Encoding: 197 197 135
Width: 1706
GlyphClass: 2
Flags: W
LayerCount: 2
Fore
SplineSet
1187 3104 m 0,0,1
 1224 3264 1224 3264 1373 3392 c 1,2,3
 1507 3520 1507 3520 1670 3520 c 0,4,5
 1819 3520 1819 3520 1908 3392 c 0,6,7
 1971.368 3300.864 1971.368 3300.864 1971.368 3193.505792 c 0,8,9
 1971.368 3150.08 1971.368 3150.08 1961 3104 c 0,10,11
 1920 2928 1920 2928 1775 2816 c 1,12,13
 1626 2688 1626 2688 1478 2688 c 0,14,15
 1314 2688 1314 2688 1240 2816 c 1,16,17
 1174.54814815 2893.98518519 1174.54814815 2893.98518519 1174.54814815 3002.99939643 c 0,18,19
 1174.54814815 3050.54814815 1174.54814815 3050.54814815 1187 3104 c 0,0,1
1321 3104 m 0,20,21
 1309.60759494 3055.39240506 1309.60759494 3055.39240506 1309.60759494 3013.70677776 c 0,22,23
 1309.60759494 2945.62025316 1309.60759494 2945.62025316 1340 2896 c 0,24,25
 1389 2816 1389 2816 1508 2816 c 0,26,27
 1612 2816 1612 2816 1708 2912 c 1,28,29
 1797 2976 1797 2976 1827 3104 c 0,30,31
 1835.24390244 3139.51219512 1835.24390244 3139.51219512 1835.24390244 3171.80725758 c 0,32,33
 1835.24390244 3241.36585366 1835.24390244 3241.36585366 1797 3296 c 0,34,35
 1741 3376 1741 3376 1637 3376 c 0,36,37
 1518 3376 1518 3376 1440 3296 c 1,38,39
 1347 3216 1347 3216 1321 3104 c 0,20,21
1572 0 m 1,40,-1
 1319 0 l 1,41,-1
 1295 672 l 1,42,-1
 700 672 l 1,43,-1
 381 0 l 1,44,-1
 128 0 l 1,45,-1
 1252 2352 l 1,46,-1
 1534 2352 l 1,47,-1
 1572 0 l 1,40,-1
841 960 m 1,48,-1
 1302 960 l 1,49,-1
 1282 1904 l 1,50,-1
 841 960 l 1,48,-1
EndSplineSet
EndChar

StartChar: AE
Encoding: 198 198 136
Width: 2411
GlyphClass: 2
Flags: W
LayerCount: 2
Fore
SplineSet
1555 1840 m 1,0,-1
 980 960 l 1,1,-1
 1352 960 l 1,2,-1
 1555 1840 l 1,0,-1
1289 688 m 1,3,-1
 798 688 l 1,4,-1
 357 0 l 1,5,-1
 104 0 l 1,6,-1
 1659 2352 l 1,7,-1
 2730 2352 l 1,8,-1
 2667 2080 l 1,9,-1
 1804 2080 l 1,10,-1
 1642 1376 l 1,11,-1
 2341 1376 l 1,12,-1
 2274 1088 l 1,13,-1
 1575 1088 l 1,14,-1
 1387 272 l 1,15,-1
 2250 272 l 1,16,-1
 2187 0 l 1,17,-1
 1130 0 l 1,18,-1
 1289 688 l 1,3,-1
EndSplineSet
EndChar

StartChar: Ccedilla
Encoding: 199 199 137
Width: 2803
GlyphClass: 2
Flags: W
LayerCount: 2
Fore
SplineSet
1237 0 m 1,0,1
 817 48 817 48 583.5 392 c 0,2,3
 421.952592593 629.997037037 421.952592593 629.997037037 421.952592593 917.774608505 c 0,4,5
 421.952592593 1045.94962963 421.952592593 1045.94962963 454 1184 c 0,6,7
 561 1648 561 1648 977 2000 c 128,-1,8
 1393 2352 1393 2352 1977 2368 c 1,9,10
 2569 2352 2569 2352 2766 2144 c 0,11,12
 2927.03319502 1973.97510373 2927.03319502 1973.97510373 2927.03319502 1686.34920198 c 0,13,14
 2927.03319502 1622.10788382 2927.03319502 1622.10788382 2919 1552 c 1,15,-1
 2488 1552 l 1,16,17
 2476 1824 2476 1824 2349.5 1952 c 128,-1,18
 2223 2080 2223 2080 1910 2080 c 0,19,20
 1568 2080 1568 2080 1285.5 1856 c 128,-1,21
 1003 1632 1003 1632 900 1184 c 0,22,23
 865.547663551 1034.70654206 865.547663551 1034.70654206 865.547663551 906.020089091 c 0,24,25
 865.547663551 676.127102804 865.547663551 676.127102804 975.5 512 c 0,26,27
 1147 256 1147 256 1445 256 c 128,-1,28
 1743 256 1743 256 1973 384 c 128,-1,29
 2203 512 2203 512 2322 832 c 1,30,-1
 2753 832 l 1,31,32
 2646 432 2646 432 2309.5 232 c 128,-1,33
 1973 32 1973 32 1549 0 c 1,34,35
 1616 -32 1616 -32 1676 -32 c 1,36,37
 1877 -64 1877 -64 1905 -136 c 0,38,39
 1921.68085106 -178.893617021 1921.68085106 -178.893617021 1921.68085106 -224.626527841 c 0,40,41
 1921.68085106 -255.659574468 1921.68085106 -255.659574468 1914 -288 c 0,42,43
 1877 -448 1877 -448 1691 -512 c 128,-1,44
 1505 -576 1505 -576 1312 -576 c 1,45,46
 1275.6 -579.2 1275.6 -579.2 1240.82 -579.2 c 0,47,48
 1101.7 -579.2 1101.7 -579.2 988.5 -528 c 0,49,50
 847 -464 847 -464 802 -400 c 1,51,-1
 1096 -288 l 1,52,-1
 1187 -344 l 2,53,54
 1278 -400 1278 -400 1353 -400 c 0,55,56
 1457 -400 1457 -400 1503.5 -392 c 128,-1,57
 1550 -384 1550 -384 1587 -288 c 0,58,59
 1596.18791946 -264.161073826 1596.18791946 -264.161073826 1596.18791946 -244.268636548 c 0,60,61
 1596.18791946 -184.053691275 1596.18791946 -184.053691275 1512 -160 c 1,62,63
 1286 -112 1286 -112 1237 0 c 1,0,1
EndSplineSet
EndChar

StartChar: Egrave
Encoding: 200 200 138
Width: 2299
GlyphClass: 2
Flags: W
LayerCount: 2
Fore
SplineSet
1471 3536 m 1,0,-1
 2051 3536 l 1,1,-1
 2354 2720 l 1,2,-1
 2026 2720 l 1,3,-1
 1471 3536 l 1,0,-1
2641 2352 m 1,4,-1
 2578 2080 l 1,5,-1
 1149 2080 l 1,6,-1
 987 1376 l 1,7,-1
 2177 1376 l 1,8,-1
 2111 1088 l 1,9,-1
 920 1088 l 1,10,-1
 732 272 l 1,11,-1
 2161 272 l 1,12,-1
 2098 0 l 1,13,-1
 312 0 l 1,14,-1
 855 2352 l 1,15,-1
 2641 2352 l 1,4,-1
EndSplineSet
EndChar

StartChar: Eacute
Encoding: 201 201 139
Width: 2299
GlyphClass: 2
Flags: W
LayerCount: 2
Fore
SplineSet
2556 3536 m 1,0,-1
 1639 2720 l 1,1,-1
 1296 2720 l 1,2,-1
 1991 3536 l 1,3,-1
 2556 3536 l 1,0,-1
2640 2352 m 1,4,-1
 2573 2064 l 1,5,-1
 1145 2064 l 1,6,-1
 982 1360 l 1,7,-1
 2173 1360 l 1,8,-1
 2110 1088 l 1,9,-1
 920 1088 l 1,10,-1
 731 272 l 1,11,-1
 2160 272 l 1,12,-1
 2097 0 l 1,13,-1
 311 0 l 1,14,-1
 854 2352 l 1,15,-1
 2640 2352 l 1,4,-1
EndSplineSet
EndChar

StartChar: Ecircumflex
Encoding: 202 202 140
Width: 2298
GlyphClass: 2
Flags: W
LayerCount: 2
Fore
SplineSet
1932 3536 m 1,0,-1
 2096 3536 l 1,1,-1
 2499 2768 l 1,2,-1
 2246 2576 l 1,3,-1
 1940 3184 l 1,4,-1
 1338 2576 l 1,5,-1
 1159 2768 l 1,6,-1
 1932 3536 l 1,0,-1
2641 2352 m 1,7,-1
 2578 2080 l 1,8,-1
 1149 2080 l 1,9,-1
 987 1376 l 1,10,-1
 2177 1376 l 1,11,-1
 2111 1088 l 1,12,-1
 920 1088 l 1,13,-1
 732 272 l 1,14,-1
 2161 272 l 1,15,-1
 2098 0 l 1,16,-1
 312 0 l 1,17,-1
 855 2352 l 1,18,-1
 2641 2352 l 1,7,-1
EndSplineSet
EndChar

StartChar: Edieresis
Encoding: 203 203 141
Width: 2332
GlyphClass: 2
Flags: W
LayerCount: 2
Fore
SplineSet
1117 2720 m 1,0,-1
 1302 3520 l 1,1,-1
 1808 3520 l 1,2,-1
 1623 2720 l 1,3,-1
 1117 2720 l 1,0,-1
2055 2720 m 1,4,-1
 2240 3520 l 1,5,-1
 2745 3520 l 1,6,-1
 2561 2720 l 1,7,-1
 2055 2720 l 1,4,-1
2654 2352 m 1,8,-1
 2592 2080 l 1,9,-1
 1163 2080 l 1,10,-1
 1001 1376 l 1,11,-1
 2191 1376 l 1,12,-1
 2124 1088 l 1,13,-1
 934 1088 l 1,14,-1
 746 272 l 1,15,-1
 2174 272 l 1,16,-1
 2111 0 l 1,17,-1
 326 0 l 1,18,-1
 869 2352 l 1,19,-1
 2654 2352 l 1,8,-1
EndSplineSet
EndChar

StartChar: Igrave
Encoding: 204 204 142
Width: 870
GlyphClass: 2
Flags: W
LayerCount: 2
Fore
SplineSet
904 3536 m 1,0,-1
 1246 3536 l 1,1,-1
 1340 2720 l 1,2,-1
 1147 2720 l 1,3,-1
 904 3536 l 1,0,-1
519 0 m 1,4,-1
 296 0 l 1,5,-1
 839 2352 l 1,6,-1
 1062 2352 l 1,7,-1
 519 0 l 1,4,-1
EndSplineSet
EndChar

StartChar: Iacute
Encoding: 205 205 143
Width: 841
GlyphClass: 2
Flags: W
LayerCount: 2
Fore
SplineSet
1507 3536 m 1,0,-1
 972 2832 l 1,1,-1
 809 2832 l 1,2,-1
 1224 3536 l 1,3,-1
 1507 3536 l 1,0,-1
527 0 m 1,4,-1
 333 0 l 1,5,-1
 876 2352 l 1,6,-1
 1070 2352 l 1,7,-1
 527 0 l 1,4,-1
EndSplineSet
EndChar

StartChar: Icircumflex
Encoding: 206 206 144
Width: 1110
GlyphClass: 2
Flags: W
LayerCount: 2
Fore
SplineSet
1298 3520 m 1,0,-1
 1432 3520 l 1,1,-1
 1749 2960 l 1,2,-1
 1552 2816 l 1,3,-1
 1313 3264 l 1,4,-1
 853 2816 l 1,5,-1
 722 2960 l 1,6,-1
 1298 3520 l 1,0,-1
694 0 m 1,7,-1
 426 0 l 1,8,-1
 969 2352 l 1,9,-1
 1237 2352 l 1,10,-1
 694 0 l 1,7,-1
EndSplineSet
EndChar

StartChar: Idieresis
Encoding: 207 207 145
Width: 1062
GlyphClass: 2
Flags: W
LayerCount: 2
Fore
SplineSet
764 3056 m 1,0,-1
 875 3536 l 1,1,-1
 1172 3536 l 1,2,-1
 1061 3056 l 1,3,-1
 764 3056 l 1,0,-1
1389 3056 m 1,4,-1
 1500 3536 l 1,5,-1
 1797 3536 l 1,6,-1
 1686 3056 l 1,7,-1
 1389 3056 l 1,4,-1
668 0 m 1,8,-1
 445 0 l 1,9,-1
 988 2352 l 1,10,-1
 1211 2352 l 1,11,-1
 668 0 l 1,8,-1
EndSplineSet
EndChar

StartChar: Eth
Encoding: 208 208 146
Width: 2211
GlyphClass: 2
Flags: W
LayerCount: 2
Fore
SplineSet
1054 1472 m 1,0,-1
 785 304 l 1,1,-1
 1082 304 l 2,2,3
 1454 304 1454 304 1682.5 648 c 128,-1,4
 1911 992 1911 992 2038.5 1544 c 0,5,6
 2123.38903394 1911.51958225 2123.38903394 1911.51958225 2123.38903394 2197.47476634 c 0,7,8
 2123.38903394 2341.01305483 2123.38903394 2341.01305483 2102 2464 c 0,9,10
 2038 2832 2038 2832 1666 2832 c 2,11,-1
 1368 2832 l 1,12,-1
 1117 1744 l 1,13,-1
 1549 1744 l 1,14,-1
 1486 1472 l 1,15,-1
 1054 1472 l 1,0,-1
831 1472 m 1,16,-1
 459 1472 l 1,17,-1
 522 1744 l 1,18,-1
 894 1744 l 1,19,-1
 1208 3104 l 1,20,-1
 1729 3104 l 2,21,22
 2250 3104 2250 3104 2360 2680 c 0,23,24
 2404.40366972 2508.8440367 2404.40366972 2508.8440367 2404.40366972 2292.06228432 c 0,25,26
 2404.40366972 1971.81651376 2404.40366972 1971.81651376 2307.5 1552 c 0,27,28
 2145 848 2145 848 1839 424 c 128,-1,29
 1533 0 1533 0 1012 0 c 2,30,-1
 491 0 l 1,31,-1
 831 1472 l 1,16,-1
EndSplineSet
EndChar

StartChar: Ntilde
Encoding: 209 209 147
Width: 2725
GlyphClass: 2
Flags: W
LayerCount: 2
Fore
SplineSet
3052 3104 m 1,0,1
 2669 2864 2669 2864 2461 2864 c 0,2,3
 2268 2864 2268 2864 2144 2976 c 1,4,-1
 1921 3168 l 1,5,6
 1820 3248 1820 3248 1657 3248 c 0,7,8
 1493 3248 1493 3248 1058 2976 c 1,9,-1
 1128 3280 l 1,10,11
 1511 3520 1511 3520 1719 3520 c 128,-1,12
 1927 3520 1927 3520 2036 3408 c 1,13,-1
 2259 3216 l 1,14,15
 2360 3136 2360 3136 2523 3136 c 0,16,17
 2702 3136 2702 3136 3122 3408 c 1,18,-1
 3052 3104 l 1,0,1
758 0 m 1,19,-1
 341 0 l 1,20,-1
 884 2352 l 1,21,-1
 1420 2352 l 1,22,-1
 2096 576 l 1,23,-1
 2506 2352 l 1,24,-1
 2923 2352 l 1,25,-1
 2380 0 l 1,26,-1
 1859 0 l 1,27,-1
 1179 1824 l 1,28,-1
 758 0 l 1,19,-1
EndSplineSet
EndChar

StartChar: Ograve
Encoding: 210 210 148
Width: 2374
GlyphClass: 2
Flags: W
LayerCount: 2
Fore
SplineSet
1443 3520 m 1,0,-1
 1993 3520 l 1,1,-1
 2318 2864 l 1,2,-1
 1991 2864 l 1,3,-1
 1443 3520 l 1,0,-1
453 1168 m 0,4,5
 560 1632 560 1632 881.5 1992 c 128,-1,6
 1203 2352 1203 2352 1590 2352 c 2,7,-1
 1813 2352 l 2,8,9
 2185 2352 2185 2352 2355 1992 c 0,10,11
 2459.33212996 1771.06137184 2459.33212996 1771.06137184 2459.33212996 1510.95111366 c 0,12,13
 2459.33212996 1347.23465704 2459.33212996 1347.23465704 2418 1168 c 0,14,15
 2303 672 2303 672 1948.5 328 c 128,-1,16
 1594 -16 1594 -16 1155 -16 c 128,-1,17
 716 -16 716 -16 527 328 c 0,18,19
 409.496710526 541.868421053 409.496710526 541.868421053 409.496710526 814.488486842 c 0,20,21
 409.496710526 980.368421053 409.496710526 980.368421053 453 1168 c 0,4,5
766 1168 m 0,22,23
 722.55028463 979.582542694 722.55028463 979.582542694 722.55028463 830.739778705 c 0,24,25
 722.55028463 613.039848197 722.55028463 613.039848197 815.5 480 c 0,26,27
 972 256 972 256 1217.5 256 c 128,-1,28
 1463 256 1463 256 1730.5 480 c 128,-1,29
 1998 704 1998 704 2105 1168 c 0,30,31
 2146.52250489 1348.60273973 2146.52250489 1348.60273973 2146.52250489 1495.40242263 c 0,32,33
 2146.52250489 1712.75146771 2146.52250489 1712.75146771 2055.5 1856 c 0,34,35
 1903 2096 1903 2096 1694 2096 c 2,36,-1
 1590 2096 l 2,37,38
 1397 2096 1397 2096 1129.5 1840 c 128,-1,39
 862 1584 862 1584 766 1168 c 0,22,23
EndSplineSet
EndChar

StartChar: Oacute
Encoding: 211 211 149
Width: 2371
GlyphClass: 2
Flags: W
LayerCount: 2
Fore
SplineSet
2439 3520 m 1,0,-1
 1696 2816 l 1,1,-1
 1428 2816 l 1,2,-1
 1978 3520 l 1,3,-1
 2439 3520 l 1,0,-1
453 1168 m 0,4,5
 560 1632 560 1632 881 1992 c 128,-1,6
 1202 2352 1202 2352 1589 2352 c 2,7,-1
 1812 2352 l 2,8,9
 2184 2352 2184 2352 2354 1992 c 0,10,11
 2458.33212996 1771.06137184 2458.33212996 1771.06137184 2458.33212996 1510.95111366 c 0,12,13
 2458.33212996 1347.23465704 2458.33212996 1347.23465704 2417 1168 c 0,14,15
 2302 672 2302 672 1947.5 328 c 128,-1,16
 1593 -16 1593 -16 1154 -16 c 128,-1,17
 715 -16 715 -16 526.5 328 c 0,18,19
 409.425041186 541.654036244 409.425041186 541.654036244 409.425041186 813.941989258 c 0,20,21
 409.425041186 980.059308072 409.425041186 980.059308072 453 1168 c 0,4,5
765 1168 m 0,22,23
 721.55028463 979.582542694 721.55028463 979.582542694 721.55028463 830.739778705 c 0,24,25
 721.55028463 613.039848197 721.55028463 613.039848197 814.5 480 c 0,26,27
 971 256 971 256 1216.5 256 c 128,-1,28
 1462 256 1462 256 1729.5 480 c 128,-1,29
 1997 704 1997 704 2104 1168 c 0,30,31
 2145.52250489 1348.60273973 2145.52250489 1348.60273973 2145.52250489 1495.40242263 c 0,32,33
 2145.52250489 1712.75146771 2145.52250489 1712.75146771 2054.5 1856 c 0,34,35
 1902 2096 1902 2096 1694 2096 c 2,36,-1
 1589 2096 l 2,37,38
 1396 2096 1396 2096 1128.5 1840 c 128,-1,39
 861 1584 861 1584 765 1168 c 0,22,23
EndSplineSet
EndChar

StartChar: Ocircumflex
Encoding: 212 212 150
Width: 2371
GlyphClass: 2
Flags: W
LayerCount: 2
Fore
SplineSet
1903 3520 m 1,0,-1
 2037 3520 l 1,1,-1
 2369 2960 l 1,2,-1
 2172 2816 l 1,3,-1
 1922 3280 l 1,4,-1
 1458 2816 l 1,5,-1
 1313 2960 l 1,6,-1
 1903 3520 l 1,0,-1
453 1168 m 0,7,8
 560 1632 560 1632 881 1992 c 128,-1,9
 1202 2352 1202 2352 1589 2352 c 2,10,-1
 1812 2352 l 2,11,12
 2184 2352 2184 2352 2354 1992 c 0,13,14
 2458.33212996 1771.06137184 2458.33212996 1771.06137184 2458.33212996 1510.95111366 c 0,15,16
 2458.33212996 1347.23465704 2458.33212996 1347.23465704 2417 1168 c 0,17,18
 2302 672 2302 672 1947.5 328 c 128,-1,19
 1593 -16 1593 -16 1154 -16 c 128,-1,20
 715 -16 715 -16 526.5 328 c 0,21,22
 409.425041186 541.654036244 409.425041186 541.654036244 409.425041186 813.941989258 c 0,23,24
 409.425041186 980.059308072 409.425041186 980.059308072 453 1168 c 0,7,8
765 1168 m 0,25,26
 721.55028463 979.582542694 721.55028463 979.582542694 721.55028463 830.739778705 c 0,27,28
 721.55028463 613.039848197 721.55028463 613.039848197 814.5 480 c 0,29,30
 971 256 971 256 1216.5 256 c 128,-1,31
 1462 256 1462 256 1729.5 480 c 128,-1,32
 1997 704 1997 704 2104 1168 c 0,33,34
 2145.52250489 1348.60273973 2145.52250489 1348.60273973 2145.52250489 1495.40242263 c 0,35,36
 2145.52250489 1712.75146771 2145.52250489 1712.75146771 2054.5 1856 c 0,37,38
 1902 2096 1902 2096 1694 2096 c 2,39,-1
 1589 2096 l 2,40,41
 1396 2096 1396 2096 1128.5 1840 c 128,-1,42
 861 1584 861 1584 765 1168 c 0,25,26
EndSplineSet
EndChar

StartChar: Otilde
Encoding: 213 213 151
Width: 2380
GlyphClass: 2
Flags: W
LayerCount: 2
Fore
SplineSet
2556 3104 m 1,0,1
 2292 2864 2292 2864 2143 2864 c 128,-1,2
 1994 2864 1994 2864 1916 2976 c 2,3,-1
 1782 3168 l 1,4,5
 1711 3248 1711 3248 1607 3248 c 0,6,7
 1488 3248 1488 3248 1172 2976 c 1,8,-1
 1246 3296 l 1,9,10
 1525 3536 1525 3536 1673 3536 c 0,11,12
 1807 3536 1807 3536 1886 3424 c 2,13,-1
 2020 3232 l 1,14,15
 2091 3152 2091 3152 2210 3152 c 128,-1,16
 2329 3152 2329 3152 2630 3424 c 1,17,-1
 2556 3104 l 1,0,1
457 1168 m 0,18,19
 564 1632 564 1632 885.5 1992 c 128,-1,20
 1207 2352 1207 2352 1594 2352 c 2,21,-1
 1817 2352 l 2,22,23
 2189 2352 2189 2352 2358.5 1992 c 0,24,25
 2462.40687161 1771.31283906 2462.40687161 1771.31283906 2462.40687161 1511.54316583 c 0,26,27
 2462.40687161 1347.55877034 2462.40687161 1347.55877034 2421 1168 c 0,28,29
 2306 672 2306 672 1951.5 328 c 128,-1,30
 1597 -16 1597 -16 1158 -16 c 128,-1,31
 719 -16 719 -16 530.5 328 c 0,32,33
 413.425041186 541.654036244 413.425041186 541.654036244 413.425041186 813.941989258 c 0,34,35
 413.425041186 980.059308072 413.425041186 980.059308072 457 1168 c 0,18,19
770 1168 m 0,36,37
 726.55028463 979.582542694 726.55028463 979.582542694 726.55028463 830.739778705 c 0,38,39
 726.55028463 613.039848197 726.55028463 613.039848197 819.5 480 c 0,40,41
 976 256 976 256 1221.5 256 c 128,-1,42
 1467 256 1467 256 1734.5 480 c 128,-1,43
 2002 704 2002 704 2109 1168 c 0,44,45
 2150.44140625 1348.25 2150.44140625 1348.25 2150.44140625 1494.82885742 c 0,46,47
 2150.44140625 1712.5625 2150.44140625 1712.5625 2059 1856 c 0,48,49
 1906 2096 1906 2096 1698 2096 c 2,50,-1
 1594 2096 l 2,51,52
 1401 2096 1401 2096 1133.5 1840 c 128,-1,53
 866 1584 866 1584 770 1168 c 0,36,37
EndSplineSet
EndChar

StartChar: Odieresis
Encoding: 214 214 152
Width: 2382
GlyphClass: 2
Flags: W
LayerCount: 2
Fore
SplineSet
1188 2720 m 1,0,-1
 1373 3520 l 1,1,-1
 1775 3520 l 1,2,-1
 1590 2720 l 1,3,-1
 1188 2720 l 1,0,-1
2007 2720 m 1,4,-1
 2191 3520 l 1,5,-1
 2593 3520 l 1,6,-1
 2408 2720 l 1,7,-1
 2007 2720 l 1,4,-1
458 1168 m 0,8,9
 565 1632 565 1632 871.5 1992 c 128,-1,10
 1178 2352 1178 2352 1594 2352 c 2,11,-1
 1818 2352 l 2,12,13
 2235 2352 2235 2352 2382 1992 c 0,14,15
 2467.07480315 1783.65354331 2467.07480315 1783.65354331 2467.07480315 1540.47330895 c 0,16,17
 2467.07480315 1363.46456693 2467.07480315 1363.46456693 2422 1168 c 0,18,19
 2307 672 2307 672 1984 336 c 128,-1,20
 1661 0 1661 0 1260 0 c 2,21,-1
 1066 0 l 2,22,23
 679 0 679 0 511 336 c 0,24,25
 411.268551237 535.462897527 411.268551237 535.462897527 411.268551237 791.311066439 c 0,26,27
 411.268551237 966.445229682 411.268551237 966.445229682 458 1168 c 0,8,9
771 1168 m 0,28,29
 724.173824131 964.940695297 724.173824131 964.940695297 724.173824131 810.910024632 c 0,30,31
 724.173824131 612.973415133 724.173824131 612.973415133 801.5 496 c 0,32,33
 939 288 939 288 1177 288 c 2,34,-1
 1282 288 l 2,35,36
 1490 288 1490 288 1746.5 496 c 128,-1,37
 2003 704 2003 704 2110 1168 c 0,38,39
 2156.12608696 1368.62608696 2156.12608696 1368.62608696 2156.12608696 1524.32937618 c 0,40,41
 2156.12608696 1716.31304348 2156.12608696 1716.31304348 2086 1840 c 0,42,43
 1959 2064 1959 2064 1692 2064 c 2,44,-1
 1587 2064 l 2,45,46
 1319 2064 1319 2064 1093 1824 c 128,-1,47
 867 1584 867 1584 771 1168 c 0,28,29
EndSplineSet
EndChar

StartChar: multiply
Encoding: 215 215 153
Width: 2654
GlyphClass: 2
Flags: W
LayerCount: 2
Fore
SplineSet
974 2832 m 1,0,-1
 1712 1776 l 1,1,-1
 2938 2832 l 1,2,-1
 3084 2624 l 1,3,-1
 1858 1568 l 1,4,-1
 2622 496 l 1,5,-1
 2377 272 l 1,6,-1
 1616 1360 l 1,7,-1
 368 272 l 1,8,-1
 226 496 l 1,9,-1
 1471 1568 l 1,10,-1
 733 2624 l 1,11,-1
 974 2832 l 1,0,-1
EndSplineSet
Substitution2: "'vert' Vertical Alternates (obs) in Hiragana & Katakana lookup 0 subtable" multiply.vert
EndChar

StartChar: Oslash
Encoding: 216 216 154
Width: 2144
GlyphClass: 2
Flags: W
LayerCount: 2
Fore
SplineSet
1957 2560 m 1,0,1
 1871 2768 1871 2768 1693 2768 c 0,2,3
 1500 2768 1500 2768 1279 2456 c 128,-1,4
 1058 2144 1058 2144 925 1568 c 0,5,6
 828.554545455 1148.50909091 828.554545455 1148.50909091 828.554545455 869.302479339 c 0,7,8
 828.554545455 850.327272727 828.554545455 850.327272727 829 832 c 1,9,-1
 1957 2560 l 1,0,1
2017 2304 m 1,10,-1
 871 560 l 1,11,12
 946 304 946 304 1124 304 c 0,13,14
 1332 304 1332 304 1564 632 c 128,-1,15
 1796 960 1796 960 1937 1568 c 0,16,17
 2020.05932203 1930.44067797 2020.05932203 1930.44067797 2020.05932203 2202.7831083 c 0,18,19
 2020.05932203 2255.05084746 2020.05932203 2255.05084746 2017 2304 c 1,10,-1
577 448 m 1,20,21
 526.602996255 649.588014981 526.602996255 649.588014981 526.602996255 887.416571982 c 0,22,23
 526.602996255 1197.00374532 526.602996255 1197.00374532 612 1568 c 0,24,25
 752 2176 752 2176 1082.5 2640 c 128,-1,26
 1413 3104 1413 3104 1770 3104 c 0,27,28
 2038 3104 2038 3104 2161 2864 c 1,29,-1
 2503 3376 l 1,30,-1
 2656 3264 l 1,31,-1
 2247 2656 l 1,32,33
 2307.4082397 2427.68539326 2307.4082397 2427.68539326 2307.4082397 2170.41103115 c 0,34,35
 2307.4082397 1886.80149813 2307.4082397 1886.80149813 2234 1568 c 0,36,37
 2083 912 2083 912 1747 456 c 128,-1,38
 1411 0 1411 0 1054 0 c 0,39,40
 801 0 801 0 663 240 c 1,41,-1
 318 -288 l 1,42,-1
 169 -160 l 1,43,-1
 577 448 l 1,20,21
EndSplineSet
EndChar

StartChar: Ugrave
Encoding: 217 217 155
Width: 2539
GlyphClass: 2
Flags: W
LayerCount: 2
Fore
SplineSet
1560 3536 m 1,0,-1
 2200 3536 l 1,1,-1
 2603 2832 l 1,2,-1
 2216 2832 l 1,3,-1
 1560 3536 l 1,0,-1
1323 320 m 128,-1,5
 1591 320 1591 320 1784.5 480 c 128,-1,6
 1978 640 1978 640 2070 1040 c 2,7,-1
 2373 2352 l 1,8,-1
 2790 2352 l 1,9,-1
 2487 1040 l 2,10,11
 2350 448 2350 448 2006.5 216 c 128,-1,12
 1663 -16 1663 -16 1231.5 -16 c 128,-1,13
 800 -16 800 -16 585.5 216 c 0,14,15
 454.603129445 357.576102418 454.603129445 357.576102418 454.603129445 633.21443357 c 0,16,17
 454.603129445 809.263157895 454.603129445 809.263157895 508 1040 c 2,18,-1
 811 2352 l 1,19,-1
 1227 2352 l 1,20,-1
 924 1040 l 2,21,22
 882.407862408 859.164619165 882.407862408 859.164619165 882.407862408 727.381390772 c 0,23,24
 882.407862408 567.665847666 882.407862408 567.665847666 943.5 480 c 0,25,4
 1055 320 1055 320 1323 320 c 128,-1,5
EndSplineSet
EndChar

StartChar: Uacute
Encoding: 218 218 156
Width: 2540
GlyphClass: 2
Flags: W
LayerCount: 2
Fore
SplineSet
2632 3536 m 1,0,-1
 1637 2832 l 1,1,-1
 1265 2832 l 1,2,-1
 1978 3536 l 1,3,-1
 2632 3536 l 1,0,-1
1324 320 m 128,-1,5
 1592 320 1592 320 1785.5 480 c 128,-1,6
 1979 640 1979 640 2071 1040 c 2,7,-1
 2374 2352 l 1,8,-1
 2790 2352 l 1,9,-1
 2488 1040 l 2,10,11
 2351 448 2351 448 2007 216 c 128,-1,12
 1663 -16 1663 -16 1231.5 -16 c 128,-1,13
 800 -16 800 -16 586 216 c 0,14,15
 455.527065527 357.447293447 455.527065527 357.447293447 455.527065527 632.712981226 c 0,16,17
 455.527065527 808.934472934 455.527065527 808.934472934 509 1040 c 2,18,-1
 811 2352 l 1,19,-1
 1228 2352 l 1,20,-1
 925 1040 l 2,21,22
 883.407862408 859.164619165 883.407862408 859.164619165 883.407862408 727.381390772 c 0,23,24
 883.407862408 567.665847666 883.407862408 567.665847666 944.5 480 c 0,25,4
 1056 320 1056 320 1324 320 c 128,-1,5
EndSplineSet
EndChar

StartChar: Ucircumflex
Encoding: 219 219 157
Width: 2543
GlyphClass: 2
Flags: W
LayerCount: 2
Fore
SplineSet
1976 3520 m 1,0,-1
 2169 3520 l 1,1,-1
 2695 2960 l 1,2,-1
 2423 2816 l 1,3,-1
 2006 3264 l 1,4,-1
 1397 2816 l 1,5,-1
 1177 2960 l 1,6,-1
 1976 3520 l 1,0,-1
1326 320 m 128,-1,8
 1594 320 1594 320 1787 480 c 128,-1,9
 1980 640 1980 640 2073 1040 c 2,10,-1
 2376 2352 l 1,11,-1
 2792 2352 l 1,12,-1
 2489 1040 l 2,13,14
 2352 448 2352 448 2008.5 216 c 128,-1,15
 1665 -16 1665 -16 1233.5 -16 c 128,-1,16
 802 -16 802 -16 588 216 c 0,17,18
 457.154285714 357.851428571 457.154285714 357.851428571 457.154285714 634.287020408 c 0,19,20
 457.154285714 809.965714286 457.154285714 809.965714286 510 1040 c 2,21,-1
 813 2352 l 1,22,-1
 1230 2352 l 1,23,-1
 927 1040 l 2,24,25
 885.407862408 859.164619165 885.407862408 859.164619165 885.407862408 727.381390772 c 0,26,27
 885.407862408 567.665847666 885.407862408 567.665847666 946.5 480 c 0,28,7
 1058 320 1058 320 1326 320 c 128,-1,8
EndSplineSet
EndChar

StartChar: Udieresis
Encoding: 220 220 158
Width: 2578
GlyphClass: 2
Flags: W
LayerCount: 2
Fore
SplineSet
1049 3056 m 1,0,-1
 1159 3536 l 1,1,-1
 1740 3536 l 1,2,-1
 1629 3056 l 1,3,-1
 1049 3056 l 1,0,-1
2239 3056 m 1,4,-1
 2350 3536 l 1,5,-1
 2915 3536 l 1,6,-1
 2804 3056 l 1,7,-1
 2239 3056 l 1,4,-1
1354 320 m 128,-1,9
 1622 320 1622 320 1815.5 480 c 128,-1,10
 2009 640 2009 640 2101 1040 c 2,11,-1
 2404 2352 l 1,12,-1
 2821 2352 l 1,13,-1
 2518 1040 l 2,14,15
 2381 448 2381 448 2037.5 216 c 128,-1,16
 1694 -16 1694 -16 1262 -16 c 128,-1,17
 830 -16 830 -16 616 216 c 0,18,19
 485.527065527 357.447293447 485.527065527 357.447293447 485.527065527 632.712981226 c 0,20,21
 485.527065527 808.934472934 485.527065527 808.934472934 539 1040 c 2,22,-1
 841 2352 l 1,23,-1
 1258 2352 l 1,24,-1
 955 1040 l 2,25,26
 913.407862408 859.164619165 913.407862408 859.164619165 913.407862408 727.381390772 c 0,27,28
 913.407862408 567.665847666 913.407862408 567.665847666 974.5 480 c 0,29,8
 1086 320 1086 320 1354 320 c 128,-1,9
EndSplineSet
EndChar

StartChar: Yacute
Encoding: 221 221 159
Width: 1953
GlyphClass: 2
Flags: W
LayerCount: 2
Fore
SplineSet
2365 3520 m 1,0,-1
 1443 2816 l 1,1,-1
 1086 2816 l 1,2,-1
 1769 3520 l 1,3,-1
 2365 3520 l 1,0,-1
1165 0 m 1,4,-1
 778 0 l 1,5,-1
 1033 1104 l 1,6,-1
 592 2352 l 1,7,-1
 979 2352 l 1,8,-1
 1297 1408 l 1,9,-1
 2050 2352 l 1,10,-1
 2437 2352 l 1,11,-1
 1420 1104 l 1,12,-1
 1165 0 l 1,4,-1
EndSplineSet
EndChar

StartChar: Thorn
Encoding: 222 222 160
Width: 2165
GlyphClass: 2
Flags: W
LayerCount: 2
Fore
SplineSet
696 0 m 1,0,-1
 354 0 l 1,1,-1
 1104 3248 l 1,2,-1
 1446 3248 l 1,3,-1
 1247 2384 l 1,4,-1
 1753 2384 l 2,5,6
 2351.46959459 2384 2351.46959459 2384 2351.46959459 1877.18791088 c 0,7,8
 2351.46959459 1766.64864865 2351.46959459 1766.64864865 2323 1632 c 0,9,10
 2164 880 2164 880 1402 864 c 1,11,-1
 896 864 l 1,12,-1
 696 0 l 1,0,-1
2025 1632 m 1,13,14
 2045.85428051 1722.43351548 2045.85428051 1722.43351548 2045.85428051 1795.84933029 c 0,15,16
 2045.85428051 2099.11839709 2045.85428051 2099.11839709 1690 2112 c 1,17,-1
 1184 2112 l 1,18,-1
 955 1120 l 1,19,-1
 1461 1120 l 2,20,21
 1892 1120 1892 1120 2025 1632 c 1,13,14
EndSplineSet
EndChar

StartChar: germandbls
Encoding: 223 223 161
Width: 2182
GlyphClass: 2
Flags: W
LayerCount: 2
Fore
SplineSet
1821 3104 m 2,0,1
 2086 3104 2086 3104 2227 2872 c 0,2,3
 2318.19724771 2721.94495413 2318.19724771 2721.94495413 2318.19724771 2528.3829644 c 0,4,5
 2318.19724771 2422.67889908 2318.19724771 2422.67889908 2291 2304 c 0,6,7
 2225 2016 2225 2016 2051 1848 c 128,-1,8
 1877 1680 1877 1680 1770 1648 c 1,9,10
 1972 1600 1972 1600 2090.5 1376 c 0,11,12
 2164.99469496 1235.18302387 2164.99469496 1235.18302387 2164.99469496 1062.75026209 c 0,13,14
 2164.99469496 960.891246684 2164.99469496 960.891246684 2139 848 c 0,15,16
 1943 0 1943 0 1258 -0 c 0,17,18
 1245 0 1245 0 1233 0 c 2,19,-1
 829 0 l 1,20,-1
 895 288 l 1,21,-1
 1241 288 l 2,22,23
 1697 288 1697 288 1823 832 c 0,24,25
 1845.87218045 930.526315789 1845.87218045 930.526315789 1845.87218045 1015.29492905 c 0,26,27
 1845.87218045 1219.60902256 1845.87218045 1219.60902256 1713 1344 c 0,28,29
 1525 1520 1525 1520 1275 1520 c 1,30,-1
 1334 1776 l 1,31,32
 1567 1776 1567 1776 1737.5 1920 c 128,-1,33
 1908 2064 1908 2064 1963 2304 c 0,34,35
 1989.1980198 2417.10891089 1989.1980198 2417.10891089 1989.1980198 2503.93333987 c 0,36,37
 1989.1980198 2625.9009901 1989.1980198 2625.9009901 1937.5 2696 c 0,38,39
 1849 2816 1849 2816 1643 2816 c 0,40,41
 1492 2816 1492 2816 1354.5 2664 c 128,-1,42
 1217 2512 1217 2512 1139 2176 c 2,43,-1
 637 0 l 1,44,-1
 310 0 l 1,45,-1
 812 2176 l 2,46,47
 934 2704 934 2704 1182 2904 c 128,-1,48
 1430 3104 1430 3104 1653 3104 c 2,49,-1
 1821 3104 l 2,0,1
EndSplineSet
EndChar

StartChar: agrave
Encoding: 224 224 162
Width: 1786
GlyphClass: 2
Flags: W
LayerCount: 2
Fore
SplineSet
1446 1040 m 1,0,-1
 1172 1040 l 2,1,2
 748 1040 748 1040 630 592 c 1,3,4
 609.874651811 504.86908078 609.874651811 504.86908078 609.874651811 438.368044941 c 0,5,6
 609.874651811 224 609.874651811 224 819 224 c 0,7,8
 1038 224 1038 224 1305 432 c 1,9,-1
 1446 1040 l 1,0,-1
1547 0 m 1,10,-1
 1291 0 l 1,11,-1
 1275 176 l 1,12,13
 1027 0 1027 0 694 0 c 0,14,15
 304.327073552 0 304.327073552 0 304.327073552 370.768606072 c 0,16,17
 304.327073552 474.791862285 304.327073552 474.791862285 335 608 c 0,18,19
 490 1280 490 1280 1224 1280 c 2,20,-1
 1501 1280 l 1,21,-1
 1527 1392 l 2,22,23
 1540.96938776 1452.40816327 1540.96938776 1452.40816327 1540.96938776 1499.13202832 c 0,24,25
 1540.96938776 1576.16326531 1540.96938776 1576.16326531 1503 1616 c 0,26,27
 1442 1680 1442 1680 1318 1680 c 2,28,-1
 1083 1680 l 2,29,30
 849 1680 849 1680 685 1568 c 1,31,-1
 612 1744 l 1,32,33
 876 1920 876 1920 1126 1920 c 2,34,-1
 1433 1920 l 2,35,36
 1614 1920 1614 1920 1739.5 1800 c 0,37,38
 1821.74673629 1721.35770235 1821.74673629 1721.35770235 1821.74673629 1570.56160994 c 0,39,40
 1821.74673629 1491.25848564 1821.74673629 1491.25848564 1799 1392 c 2,41,-1
 1573 416 l 1,42,-1
 1547 0 l 1,10,-1
1215 3248 m 1,43,-1
 1654 3248 l 1,44,-1
 1878 2544 l 1,45,-1
 1614 2544 l 1,46,-1
 1215 3248 l 1,43,-1
EndSplineSet
EndChar

StartChar: aacute
Encoding: 225 225 163
Width: 1787
GlyphClass: 2
Flags: W
LayerCount: 2
Fore
SplineSet
1446 1040 m 1,0,-1
 1172 1040 l 2,1,2
 748 1040 748 1040 630 592 c 1,3,4
 609.874651811 504.86908078 609.874651811 504.86908078 609.874651811 438.368044941 c 0,5,6
 609.874651811 224 609.874651811 224 819 224 c 0,7,8
 1038 224 1038 224 1305 432 c 1,9,-1
 1446 1040 l 1,0,-1
1547 0 m 1,10,-1
 1291 0 l 1,11,-1
 1275 176 l 1,12,13
 1027 0 1027 0 694 0 c 0,14,15
 304.327073552 0 304.327073552 0 304.327073552 370.768606072 c 0,16,17
 304.327073552 474.791862285 304.327073552 474.791862285 335 608 c 0,18,19
 490 1280 490 1280 1224 1280 c 2,20,-1
 1501 1280 l 1,21,-1
 1527 1392 l 2,22,23
 1540.96938776 1452.40816327 1540.96938776 1452.40816327 1540.96938776 1499.13202832 c 0,24,25
 1540.96938776 1576.16326531 1540.96938776 1576.16326531 1503 1616 c 0,26,27
 1442 1680 1442 1680 1318 1680 c 2,28,-1
 1083 1680 l 2,29,30
 849 1680 849 1680 685 1568 c 1,31,-1
 612 1744 l 1,32,33
 876 1920 876 1920 1126 1920 c 2,34,-1
 1433 1920 l 2,35,36
 1614 1920 1614 1920 1739.5 1800 c 0,37,38
 1821.74673629 1721.35770235 1821.74673629 1721.35770235 1821.74673629 1570.56160994 c 0,39,40
 1821.74673629 1491.25848564 1821.74673629 1491.25848564 1799 1392 c 2,41,-1
 1573 416 l 1,42,-1
 1547 0 l 1,10,-1
2041 3248 m 1,43,-1
 1313 2544 l 1,44,-1
 1053 2544 l 1,45,-1
 1599 3248 l 1,46,-1
 2041 3248 l 1,43,-1
EndSplineSet
EndChar

StartChar: acircumflex
Encoding: 226 226 164
Width: 1796
GlyphClass: 2
Flags: W
LayerCount: 2
Fore
SplineSet
1451 1040 m 1,0,-1
 1177 1040 l 2,1,2
 753 1040 753 1040 635 592 c 1,3,4
 614.874651811 504.86908078 614.874651811 504.86908078 614.874651811 438.368044941 c 0,5,6
 614.874651811 224 614.874651811 224 824 224 c 0,7,8
 1043 224 1043 224 1310 432 c 1,9,-1
 1451 1040 l 1,0,-1
1552 0 m 1,10,-1
 1296 0 l 1,11,-1
 1280 176 l 1,12,13
 1032 0 1032 0 699 0 c 0,14,15
 309.327073552 0 309.327073552 0 309.327073552 370.768606072 c 0,16,17
 309.327073552 474.791862285 309.327073552 474.791862285 340 608 c 0,18,19
 495 1280 495 1280 1229 1280 c 2,20,-1
 1506 1280 l 1,21,-1
 1532 1392 l 2,22,23
 1545.96938776 1452.40816327 1545.96938776 1452.40816327 1545.96938776 1499.13202832 c 0,24,25
 1545.96938776 1576.16326531 1545.96938776 1576.16326531 1508 1616 c 0,26,27
 1447 1680 1447 1680 1323 1680 c 2,28,-1
 1088 1680 l 2,29,30
 854 1680 854 1680 690 1568 c 1,31,-1
 617 1744 l 1,32,33
 881 1920 881 1920 1131 1920 c 2,34,-1
 1438 1920 l 2,35,36
 1619 1920 1619 1920 1744.5 1800 c 0,37,38
 1826.74673629 1721.35770235 1826.74673629 1721.35770235 1826.74673629 1570.56160994 c 0,39,40
 1826.74673629 1491.25848564 1826.74673629 1491.25848564 1804 1392 c 2,41,-1
 1579 416 l 1,42,-1
 1552 0 l 1,10,-1
1563 3248 m 1,43,-1
 1700 3248 l 1,44,-1
 2027 2672 l 1,45,-1
 1827 2544 l 1,46,-1
 1573 2992 l 1,47,-1
 1127 2544 l 1,48,-1
 973 2672 l 1,49,-1
 1563 3248 l 1,43,-1
EndSplineSet
EndChar

StartChar: atilde
Encoding: 227 227 165
Width: 1878
GlyphClass: 2
Flags: W
LayerCount: 2
Fore
SplineSet
1492 1040 m 1,0,-1
 1219 1040 l 2,1,2
 795 1040 795 1040 677 592 c 1,3,4
 656.874651811 504.86908078 656.874651811 504.86908078 656.874651811 438.368044941 c 0,5,6
 656.874651811 224 656.874651811 224 866 224 c 0,7,8
 1085 224 1085 224 1352 432 c 1,9,-1
 1492 1040 l 1,0,-1
1593 0 m 1,10,-1
 1338 0 l 1,11,-1
 1321 176 l 1,12,13
 1073 0 1073 0 740 0 c 0,14,15
 350.9359375 0 350.9359375 0 350.9359375 369.610859375 c 0,16,17
 350.9359375 474.05 350.9359375 474.05 382 608 c 0,18,19
 537 1280 537 1280 1271 1280 c 2,20,-1
 1548 1280 l 1,21,-1
 1574 1392 l 2,22,23
 1587.89847716 1452.10152284 1587.89847716 1452.10152284 1587.89847716 1498.65732176 c 0,24,25
 1587.89847716 1576.04060914 1587.89847716 1576.04060914 1549.5 1616 c 0,26,27
 1488 1680 1488 1680 1364 1680 c 2,28,-1
 1130 1680 l 2,29,30
 896 1680 896 1680 732 1568 c 1,31,-1
 658 1744 l 1,32,33
 922 1920 922 1920 1173 1920 c 2,34,-1
 1480 1920 l 2,35,36
 1661 1920 1661 1920 1786.5 1800 c 0,37,38
 1868.31948052 1721.76623377 1868.31948052 1721.76623377 1868.31948052 1572.12637544 c 0,39,40
 1868.31948052 1492.23896104 1868.31948052 1492.23896104 1845 1392 c 2,41,-1
 1620 416 l 1,42,-1
 1593 0 l 1,10,-1
2224 2672 m 1,43,44
 1945 2432 1945 2432 1805 2432 c 128,-1,45
 1665 2432 1665 2432 1579 2544 c 1,46,-1
 1445 2736 l 1,47,48
 1380 2816 1380 2816 1269 2816 c 0,49,50
 1143 2816 1143 2816 829 2544 c 1,51,-1
 899 2848 l 1,52,53
 1177 3088 1177 3088 1331 3088 c 0,54,55
 1470 3088 1470 3088 1542 2976 c 1,56,-1
 1675 2784 l 1,57,58
 1755 2704 1755 2704 1867 2704 c 128,-1,59
 1979 2704 1979 2704 2294 2976 c 1,60,-1
 2224 2672 l 1,43,44
EndSplineSet
EndChar

StartChar: adieresis
Encoding: 228 228 166
Width: 1885
GlyphClass: 2
Flags: W
LayerCount: 2
Fore
SplineSet
1514 1040 m 1,0,-1
 1236 1040 l 2,1,2
 805 1040 805 1040 688 592 c 1,3,4
 668.096418733 505.829201102 668.096418733 505.829201102 668.096418733 439.836137483 c 0,5,6
 668.096418733 224 668.096418733 224 881 224 c 0,7,8
 1104 224 1104 224 1374 432 c 1,9,-1
 1514 1040 l 1,0,-1
1615 0 m 1,10,-1
 1360 0 l 1,11,-1
 1343 176 l 1,12,13
 1092 0 1092 0 756 0 c 0,14,15
 361.565217391 0 361.565217391 0 361.565217391 372.38563327 c 0,16,17
 361.565217391 475.826086957 361.565217391 475.826086957 392 608 c 0,18,19
 547 1280 547 1280 1290 1280 c 2,20,-1
 1570 1280 l 1,21,-1
 1596 1392 l 2,22,23
 1609.75879397 1451.49748744 1609.75879397 1451.49748744 1609.75879397 1497.72015858 c 0,24,25
 1609.75879397 1575.79899497 1609.75879397 1575.79899497 1570.5 1616 c 0,26,27
 1508 1680 1508 1680 1383 1680 c 2,28,-1
 1145 1680 l 2,29,30
 907 1680 907 1680 742 1568 c 1,31,-1
 669 1744 l 1,32,33
 935 1920 935 1920 1187 1920 c 2,34,-1
 1497 1920 l 2,35,36
 1680 1920 1680 1920 1806.5 1800 c 0,37,38
 1889.62857143 1721.14285714 1889.62857143 1721.14285714 1889.62857143 1569.73714286 c 0,39,40
 1889.62857143 1490.74285714 1889.62857143 1490.74285714 1867 1392 c 2,41,-1
 1642 416 l 1,42,-1
 1615 0 l 1,10,-1
1661 2352 m 1,43,-1
 1834 3104 l 1,44,-1
 2233 3104 l 1,45,-1
 2059 2352 l 1,46,-1
 1661 2352 l 1,43,-1
838 2352 m 1,47,-1
 1011 3104 l 1,48,-1
 1410 3104 l 1,49,-1
 1236 2352 l 1,50,-1
 838 2352 l 1,47,-1
EndSplineSet
EndChar

StartChar: aring
Encoding: 229 229 167
Width: 1793
GlyphClass: 2
Flags: W
LayerCount: 2
Fore
SplineSet
1453 1040 m 1,0,-1
 1176 1040 l 2,1,2
 747 1040 747 1040 630 592 c 1,3,4
 609.986149584 505.351800554 609.986149584 505.351800554 609.986149584 439.105531726 c 0,5,6
 609.986149584 224 609.986149584 224 821 224 c 0,7,8
 1042 224 1042 224 1312 432 c 1,9,-1
 1453 1040 l 1,0,-1
1554 0 m 1,10,-1
 1298 0 l 1,11,-1
 1282 176 l 1,12,13
 1032 0 1032 0 696 0 c 0,14,15
 303.128881988 0 303.128881988 0 303.128881988 370.909378496 c 0,16,17
 303.128881988 474.881987578 303.128881988 474.881987578 334 608 c 0,18,19
 489 1280 489 1280 1229 1280 c 2,20,-1
 1508 1280 l 1,21,-1
 1534 1392 l 2,22,23
 1547.82828283 1451.7979798 1547.82828283 1451.7979798 1547.82828283 1498.18671564 c 0,24,25
 1547.82828283 1575.91919192 1547.82828283 1575.91919192 1509 1616 c 0,26,27
 1447 1680 1447 1680 1322 1680 c 2,28,-1
 1086 1680 l 2,29,30
 849 1680 849 1680 684 1568 c 1,31,-1
 611 1744 l 1,32,33
 876 1920 876 1920 1128 1920 c 2,34,-1
 1436 1920 l 2,35,36
 1618 1920 1618 1920 1745 1800 c 0,37,38
 1828.13917526 1721.44329897 1828.13917526 1721.44329897 1828.13917526 1570.88978637 c 0,39,40
 1828.13917526 1491.46391753 1828.13917526 1491.46391753 1805 1392 c 2,41,-1
 1580 416 l 1,42,-1
 1554 0 l 1,10,-1
1264 2784 m 0,43,44
 1253.15662651 2737.73493976 1253.15662651 2737.73493976 1253.15662651 2695.65045725 c 0,45,46
 1253.15662651 2621.30120482 1253.15662651 2621.30120482 1287 2560 c 0,47,48
 1340 2464 1340 2464 1450 2464 c 0,49,50
 1559 2464 1559 2464 1663 2560 c 1,51,52
 1754 2656 1754 2656 1784 2784 c 0,53,54
 1796.6627907 2839.25581395 1796.6627907 2839.25581395 1796.6627907 2887.4440238 c 0,55,56
 1796.6627907 2964.8372093 1796.6627907 2964.8372093 1764 3024 c 0,57,58
 1711 3120 1711 3120 1601 3120 c 128,-1,59
 1491 3120 1491 3120 1387 3024 c 1,60,61
 1297 2928 1297 2928 1264 2784 c 0,43,44
1125 2800 m 0,62,63
 1169 2992 1169 2992 1331 3136 c 1,64,65
 1474 3280 1474 3280 1639 3280 c 128,-1,66
 1804 3280 1804 3280 1894 3136 c 1,67,68
 1946.07142857 3043.42857143 1946.07142857 3043.42857143 1946.07142857 2931.02040816 c 0,69,70
 1946.07142857 2868.57142857 1946.07142857 2868.57142857 1930 2800 c 0,71,72
 1882 2592 1882 2592 1735 2448 c 1,73,74
 1578 2304 1578 2304 1413 2304 c 128,-1,75
 1248 2304 1248 2304 1172 2448 c 1,76,77
 1108.88811189 2543.66433566 1108.88811189 2543.66433566 1108.88811189 2667.57455132 c 0,78,79
 1108.88811189 2730.18181818 1108.88811189 2730.18181818 1125 2800 c 0,62,63
EndSplineSet
EndChar

StartChar: ae
Encoding: 230 230 168
Width: 2495
GlyphClass: 2
Flags: W
LayerCount: 2
Fore
SplineSet
1154 489 m 1,0,-1
 1258 940 l 1,1,2
 956 882 956 882 790.5 788 c 128,-1,3
 625 694 625 694 571 462 c 0,4,5
 562.623036649 425.560209424 562.623036649 425.560209424 562.623036649 396.751788602 c 0,6,7
 562.623036649 288 562.623036649 288 682 288 c 0,8,9
 929 288 929 288 1154 489 c 1,0,-1
1554 1541 m 1,10,11
 1739 1808 1739 1808 1986 1808 c 2,12,-1
 2123 1808 l 2,13,14
 2315 1808 2315 1808 2430 1564 c 0,15,16
 2491.79906542 1432.87850467 2491.79906542 1432.87850467 2491.79906542 1248.62136431 c 0,17,18
 2491.79906542 1090 2491.79906542 1090 2446 892 c 1,19,-1
 1489 892 l 1,20,21
 1458.04137931 758.924137931 1458.04137931 758.924137931 1458.04137931 651.896218787 c 0,22,23
 1458.04137931 527.296551724 1458.04137931 527.296551724 1500 438 c 0,24,25
 1578 272 1578 272 1742 272 c 0,26,27
 1865 272 1865 272 1958.5 351.5 c 128,-1,28
 2052 431 2052 431 2127 576 c 1,29,-1
 2359 576 l 1,30,31
 2113 -16 2113 -16 1674 -16 c 0,32,33
 1345 -16 1345 -16 1264 288 c 1,34,35
 921 0 921 0 613 -16 c 1,36,37
 402 -16 402 -16 340 113 c 0,38,39
 305.369369369 185.054054054 305.369369369 185.054054054 305.369369369 283.003084165 c 0,40,41
 305.369369369 360.414414414 305.369369369 360.414414414 327 454 c 0,42,43
 418 848 418 848 668 999.5 c 128,-1,44
 918 1151 918 1151 1317 1196 c 1,45,46
 1336.68285714 1281.37142857 1336.68285714 1281.37142857 1336.68285714 1348.07226122 c 0,47,48
 1336.68285714 1562.64 1336.68285714 1562.64 1133 1584 c 1,49,50
 900 1584 900 1584 810 1311 c 1,51,-1
 554 1311 l 1,52,53
 665 1612 665 1612 813 1710 c 128,-1,54
 961 1808 961 1808 1100 1808 c 2,55,-1
 1281 1808 l 2,56,57
 1504 1808 1504 1808 1554 1541 c 1,10,11
1561 1148 m 1,58,-1
 2232 1148 l 1,59,60
 2235.58223684 1189.14144737 2235.58223684 1189.14144737 2235.58223684 1225.98185379 c 0,61,62
 2235.58223684 1528.51973684 2235.58223684 1528.51973684 1994 1541 c 1,63,64
 1703 1527 1703 1527 1561 1148 c 1,58,-1
EndSplineSet
EndChar

StartChar: ccedilla
Encoding: 231 231 169
Width: 1919
GlyphClass: 2
Flags: W
LayerCount: 2
Fore
SplineSet
1042 -21 m 1,0,1
 1098 -83 1098 -83 1178 -98 c 1,2,3
 1266 -144 1266 -144 1304.5 -190.5 c 128,-1,4
 1343 -237 1343 -237 1329 -299 c 0,5,6
 1301 -422 1301 -422 1172.5 -499 c 128,-1,7
 1044 -576 1044 -576 850 -576 c 0,8,9
 684 -576 684 -576 590 -536.5 c 128,-1,10
 496 -497 496 -497 404 -354 c 1,11,-1
 559 -218 l 1,12,13
 630 -324 630 -324 705.5 -354 c 128,-1,14
 781 -384 781 -384 890 -384 c 0,15,16
 972 -384 972 -384 1037.5 -369 c 128,-1,17
 1103 -354 1103 -354 1117 -293 c 0,18,19
 1117.86428571 -289.385714286 1117.86428571 -289.385714286 1117.86428571 -285.771428571 c 0,20,21
 1117.86428571 -243.385714286 1117.86428571 -243.385714286 999 -201 c 1,22,23
 844 -155 844 -155 834 -19 c 1,24,25
 551 11 551 11 427.5 255 c 0,26,27
 358.641083521 391.045146727 358.641083521 391.045146727 358.641083521 583.66962889 c 0,28,29
 358.641083521 736.521444695 358.641083521 736.521444695 402 925 c 0,30,31
 497 1336 497 1336 740 1572 c 128,-1,32
 983 1808 983 1808 1276 1808 c 2,33,-1
 1457 1808 l 2,34,35
 1708 1808 1708 1808 1839.5 1592 c 0,36,37
 1934.77410468 1435.50413223 1934.77410468 1435.50413223 1934.77410468 1246.46284027 c 0,38,39
 1934.77410468 1174.58402204 1934.77410468 1174.58402204 1921 1098 c 1,40,-1
 1651 1098 l 1,41,42
 1654.01395349 1130.98604651 1654.01395349 1130.98604651 1654.01395349 1161.82727961 c 0,43,44
 1654.01395349 1315.17674419 1654.01395349 1315.17674419 1579.5 1415.5 c 0,45,46
 1490 1536 1490 1536 1297 1536 c 0,47,48
 1076 1536 1076 1536 899.5 1370 c 128,-1,49
 723 1204 723 1204 656 916 c 0,50,51
 618.368 753.376 618.368 753.376 618.368 633.301248 c 0,52,53
 618.368 485.352 618.368 485.352 675.5 402 c 0,54,55
 779 251 779 251 1000 251 c 0,56,57
 1207 251 1207 251 1342 357 c 128,-1,58
 1477 463 1477 463 1553 674 c 1,59,-1
 1823 674 l 1,60,61
 1721 356 1721 356 1533 182.5 c 128,-1,62
 1345 9 1345 9 1042 -21 c 1,0,1
EndSplineSet
EndChar

StartChar: egrave
Encoding: 232 232 170
Width: 1806
GlyphClass: 2
Flags: W
LayerCount: 2
Fore
SplineSet
1558 1280 m 1,0,1
 1566.73053892 1336.91017964 1566.73053892 1336.91017964 1566.73053892 1387.12868873 c 0,2,3
 1566.73053892 1492.21556886 1566.73053892 1492.21556886 1528.5 1568 c 0,4,5
 1472 1680 1472 1680 1281 1680 c 0,6,7
 1076 1680 1076 1680 972.5 1560 c 128,-1,8
 869 1440 869 1440 819 1280 c 1,9,-1
 1558 1280 l 1,0,1
753 1056 m 1,10,11
 716 896 716 896 683 752 c 1,12,13
 670.634146341 660.682926829 670.634146341 660.682926829 670.634146341 587.060083284 c 0,14,15
 670.634146341 428.487804878 670.634146341 428.487804878 728 352 c 0,16,17
 812 240 812 240 949 240 c 128,-1,18
 1086 240 1086 240 1202 296 c 128,-1,19
 1318 352 1318 352 1441 528 c 1,20,-1
 1632 368 l 1,21,22
 1509 208 1509 208 1345 104 c 128,-1,23
 1181 0 1181 0 974 0 c 2,24,-1
 825 0 l 2,25,26
 549 0 549 0 422.5 216 c 0,27,28
 353.967880086 333.019271949 353.967880086 333.019271949 353.967880086 522.826405733 c 0,29,30
 353.967880086 683.374732334 353.967880086 683.374732334 403 896 c 1,31,-1
 448 1088 l 1,32,33
 551 1536 551 1536 778.5 1728 c 128,-1,34
 1006 1920 1006 1920 1254 1920 c 2,35,-1
 1418 1920 l 2,36,37
 1653 1920 1653 1920 1784.5 1728 c 0,38,39
 1874.79895561 1596.15665796 1874.79895561 1596.15665796 1874.79895561 1434.13507489 c 0,40,41
 1874.79895561 1360.20887728 1874.79895561 1360.20887728 1856 1280 c 1,42,-1
 1805 1056 l 1,43,-1
 753 1056 l 1,10,11
1188 3248 m 1,44,-1
 1656 3248 l 1,45,-1
 1907 2544 l 1,46,-1
 1630 2544 l 1,47,-1
 1188 3248 l 1,44,-1
EndSplineSet
EndChar

StartChar: eacute
Encoding: 233 233 171
Width: 1805
GlyphClass: 2
Flags: W
LayerCount: 2
Fore
SplineSet
1557 1280 m 1,0,1
 1565.78313253 1337.25301205 1565.78313253 1337.25301205 1565.78313253 1387.73348817 c 0,2,3
 1565.78313253 1492.43373494 1565.78313253 1492.43373494 1528 1568 c 0,4,5
 1472 1680 1472 1680 1280 1680 c 0,6,7
 1075 1680 1075 1680 971.5 1560 c 128,-1,8
 868 1440 868 1440 818 1280 c 1,9,-1
 1557 1280 l 1,0,1
752 1056 m 1,10,11
 715 896 715 896 682 752 c 1,12,13
 669.634146341 660.682926829 669.634146341 660.682926829 669.634146341 587.060083284 c 0,14,15
 669.634146341 428.487804878 669.634146341 428.487804878 727 352 c 0,16,17
 811 240 811 240 948 240 c 128,-1,18
 1085 240 1085 240 1201.5 296 c 128,-1,19
 1318 352 1318 352 1441 528 c 1,20,-1
 1631 368 l 1,21,22
 1508 208 1508 208 1344 104 c 128,-1,23
 1180 0 1180 0 973 0 c 2,24,-1
 824 0 l 2,25,26
 548 0 548 0 421.5 216 c 0,27,28
 352.967880086 333.019271949 352.967880086 333.019271949 352.967880086 522.826405733 c 0,29,30
 352.967880086 683.374732334 352.967880086 683.374732334 402 896 c 1,31,-1
 447 1088 l 1,32,33
 550 1536 550 1536 777.5 1728 c 128,-1,34
 1005 1920 1005 1920 1253 1920 c 2,35,-1
 1417 1920 l 2,36,37
 1652 1920 1652 1920 1783.5 1728 c 0,38,39
 1874.27296588 1595.46456693 1874.27296588 1595.46456693 1874.27296588 1432.43322931 c 0,40,41
 1874.27296588 1359.28608924 1874.27296588 1359.28608924 1856 1280 c 2,42,-1
 1804 1056 l 1,43,-1
 752 1056 l 1,10,11
2069 3248 m 1,44,-1
 1301 2544 l 1,45,-1
 1025 2544 l 1,46,-1
 1601 3248 l 1,47,-1
 2069 3248 l 1,44,-1
EndSplineSet
EndChar

StartChar: ecircumflex
Encoding: 234 234 172
Width: 1819
GlyphClass: 2
Flags: W
LayerCount: 2
Fore
SplineSet
1565 1280 m 1,0,1
 1573.73053892 1336.91017964 1573.73053892 1336.91017964 1573.73053892 1387.12868873 c 0,2,3
 1573.73053892 1492.21556886 1573.73053892 1492.21556886 1535.5 1568 c 0,4,5
 1479 1680 1479 1680 1288 1680 c 0,6,7
 1083 1680 1083 1680 979.5 1560 c 128,-1,8
 876 1440 876 1440 826 1280 c 1,9,-1
 1565 1280 l 1,0,1
760 1056 m 1,10,11
 723 896 723 896 690 752 c 1,12,13
 677.634146341 660.682926829 677.634146341 660.682926829 677.634146341 587.060083284 c 0,14,15
 677.634146341 428.487804878 677.634146341 428.487804878 735 352 c 0,16,17
 819 240 819 240 956 240 c 128,-1,18
 1093 240 1093 240 1209 296 c 128,-1,19
 1325 352 1325 352 1448 528 c 1,20,-1
 1639 368 l 1,21,22
 1516 208 1516 208 1351.5 104 c 128,-1,23
 1187 0 1187 0 981 0 c 2,24,-1
 831 0 l 2,25,26
 555 0 555 0 429 216 c 0,27,28
 360.862660944 332.806866953 360.862660944 332.806866953 360.862660944 522.137596935 c 0,29,30
 360.862660944 682.918454936 360.862660944 682.918454936 410 896 c 1,31,-1
 455 1088 l 1,32,33
 558 1536 558 1536 785 1728 c 128,-1,34
 1012 1920 1012 1920 1261 1920 c 2,35,-1
 1424 1920 l 2,36,37
 1659 1920 1659 1920 1790.5 1728 c 0,38,39
 1881.27296588 1595.46456693 1881.27296588 1595.46456693 1881.27296588 1432.43322931 c 0,40,41
 1881.27296588 1359.28608924 1881.27296588 1359.28608924 1863 1280 c 2,42,-1
 1812 1056 l 1,43,-1
 760 1056 l 1,10,11
1567 3248 m 1,44,-1
 1704 3248 l 1,45,-1
 2057 2672 l 1,46,-1
 1842 2544 l 1,47,-1
 1577 2992 l 1,48,-1
 1104 2544 l 1,49,-1
 948 2672 l 1,50,-1
 1567 3248 l 1,44,-1
EndSplineSet
EndChar

StartChar: edieresis
Encoding: 235 235 173
Width: 1911
GlyphClass: 2
Flags: W
LayerCount: 2
Fore
SplineSet
1631 1280 m 1,0,1
 1639.62721893 1336.23668639 1639.62721893 1336.23668639 1639.62721893 1385.93914779 c 0,2,3
 1639.62721893 1491.78698225 1639.62721893 1491.78698225 1600.5 1568 c 0,4,5
 1543 1680 1543 1680 1348 1680 c 0,6,7
 1139 1680 1139 1680 1035 1560 c 128,-1,8
 931 1440 931 1440 880 1280 c 1,9,-1
 1631 1280 l 1,0,1
814 1056 m 1,10,11
 777 896 777 896 744 752 c 1,12,13
 731.832 662.144 731.832 662.144 731.832 589.420544 c 0,14,15
 731.832 429.056 731.832 429.056 791 352 c 0,16,17
 877 240 877 240 1016 240 c 128,-1,18
 1155 240 1155 240 1272.5 296 c 128,-1,19
 1390 352 1390 352 1515 528 c 1,20,-1
 1706 368 l 1,21,22
 1583 208 1583 208 1417 104 c 128,-1,23
 1251 0 1251 0 1038 0 c 2,24,-1
 889 0 l 2,25,26
 610 0 610 0 483.5 216 c 0,27,28
 414.967880086 333.019271949 414.967880086 333.019271949 414.967880086 522.826405733 c 0,29,30
 414.967880086 683.374732334 414.967880086 683.374732334 464 896 c 2,31,-1
 508 1088 l 2,32,33
 611 1536 611 1536 839.5 1728 c 128,-1,34
 1068 1920 1068 1920 1319 1920 c 2,35,-1
 1482 1920 l 2,36,37
 1723 1920 1723 1920 1856 1728 c 0,38,39
 1948.13020833 1595 1948.13020833 1595 1948.13020833 1431.28993056 c 0,40,41
 1948.13020833 1358.66666667 1948.13020833 1358.66666667 1930 1280 c 2,42,-1
 1878 1056 l 1,43,-1
 814 1056 l 1,10,11
1710 2544 m 1,44,-1
 1820 3024 l 1,45,-1
 2248 3024 l 1,46,-1
 2137 2544 l 1,47,-1
 1710 2544 l 1,44,-1
844 2544 m 1,48,-1
 955 3024 l 1,49,-1
 1382 3024 l 1,50,-1
 1271 2544 l 1,51,-1
 844 2544 l 1,48,-1
EndSplineSet
EndChar

StartChar: igrave
Encoding: 236 236 174
Width: 796
GlyphClass: 2
Flags: W
LayerCount: 2
Fore
SplineSet
601 540 m 2,0,1
 589 490 589 490 556 351 c 128,-1,2
 523 212 523 212 516 178 c 1,3,4
 515 153 515 153 532 128.5 c 128,-1,5
 549 104 549 104 570 104 c 0,6,7
 584 104 584 104 615.5 115.5 c 128,-1,8
 647 127 647 127 657 139 c 1,9,-1
 876 485 l 1,10,-1
 896 439 l 1,11,12
 761 176 761 176 655.5 57.5 c 128,-1,13
 550 -61 550 -61 456 -61 c 0,14,15
 378 -61 378 -61 366.5 106 c 0,16,17
 365.022346369 127.458100559 365.022346369 127.458100559 365.022346369 151.739427608 c 0,18,19
 365.022346369 316.430167598 365.022346369 316.430167598 433 611 c 2,20,-1
 735 1920 l 1,21,-1
 920 1920 l 1,22,-1
 601 540 l 2,0,1
877 3248 m 1,23,-1
 1155 3248 l 1,24,-1
 1228 2544 l 1,25,-1
 1064 2544 l 1,26,-1
 877 3248 l 1,23,-1
EndSplineSet
EndChar

StartChar: iacute
Encoding: 237 237 175
Width: 793
GlyphClass: 2
Flags: W
LayerCount: 2
Fore
SplineSet
604 540 m 2,0,1
 592 490 592 490 559 351 c 128,-1,2
 526 212 526 212 519 178 c 1,3,4
 518 153 518 153 535.5 128.5 c 128,-1,5
 553 104 553 104 573 104 c 0,6,7
 587 104 587 104 618.5 115.5 c 128,-1,8
 650 127 650 127 661 139 c 1,9,-1
 880 485 l 1,10,-1
 899 439 l 1,11,12
 764 176 764 176 659 57.5 c 128,-1,13
 554 -61 554 -61 460 -61 c 0,14,15
 382 -61 382 -61 370 106 c 0,16,17
 368.4 128.266666667 368.4 128.266666667 368.4 153.573333333 c 0,18,19
 368.4 318.066666667 368.4 318.066666667 436 611 c 2,20,-1
 738 1920 l 1,21,-1
 923 1920 l 1,22,-1
 604 540 l 2,0,1
1394 3248 m 1,23,-1
 882 2544 l 1,24,-1
 718 2544 l 1,25,-1
 1116 3248 l 1,26,-1
 1394 3248 l 1,23,-1
EndSplineSet
EndChar

StartChar: icircumflex
Encoding: 238 238 176
Width: 1011
GlyphClass: 2
Flags: W
LayerCount: 2
Fore
SplineSet
765 565 m 2,0,1
 708 319 708 319 692 231 c 1,2,3
 691 205 691 205 709 181 c 128,-1,4
 727 157 727 157 748 157 c 0,5,6
 772 157 772 157 813.5 187 c 128,-1,7
 855 217 855 217 884 262 c 2,8,-1
 1061 542 l 1,9,-1
 1100 490 l 1,10,11
 942 192 942 192 825 68 c 128,-1,12
 708 -56 708 -56 588 -56 c 0,13,14
 523 -56 523 -56 487.5 -9.5 c 128,-1,15
 452 37 452 37 445.5 126.5 c 0,16,17
 443.534883721 153.558139535 443.534883721 153.558139535 443.534883721 183.312601406 c 0,18,19
 443.534883721 251.976744186 443.534883721 251.976744186 454 335 c 0,20,21
 469 454 469 454 505 611 c 2,22,-1
 807 1920 l 1,23,-1
 1077 1920 l 1,24,-1
 765 565 l 2,0,1
1185 3248 m 1,25,-1
 1313 3248 l 1,26,-1
 1597 2688 l 1,27,-1
 1413 2544 l 1,28,-1
 1197 2992 l 1,29,-1
 759 2544 l 1,30,-1
 642 2688 l 1,31,-1
 1185 3248 l 1,25,-1
EndSplineSet
EndChar

StartChar: idieresis
Encoding: 239 239 177
Width: 1111
GlyphClass: 2
Flags: W
LayerCount: 2
Fore
SplineSet
680 0 m 1,0,-1
 452 0 l 1,1,-1
 895 1920 l 1,2,-1
 1123 1920 l 1,3,-1
 680 0 l 1,0,-1
1294 2544 m 1,4,-1
 1405 3024 l 1,5,-1
 1704 3024 l 1,6,-1
 1593 2544 l 1,7,-1
 1294 2544 l 1,4,-1
657 2544 m 1,8,-1
 768 3024 l 1,9,-1
 1081 3024 l 1,10,-1
 971 2544 l 1,11,-1
 657 2544 l 1,8,-1
EndSplineSet
EndChar

StartChar: eth
Encoding: 240 240 178
Width: 1950
GlyphClass: 2
Flags: W
LayerCount: 2
Fore
SplineSet
1964 2608 m 1,0,-1
 2364 2752 l 1,1,-1
 2387 2496 l 1,2,-1
 2051 2368 l 1,3,4
 2078.16165414 2250.40601504 2078.16165414 2250.40601504 2078.16165414 2090.33365368 c 0,5,6
 2078.16165414 1749.47368421 2078.16165414 1749.47368421 1955 1216 c 0,7,8
 1811 592 1811 592 1534 296 c 128,-1,9
 1257 0 1257 0 909 0 c 1,10,11
 890.333333333 -0.820512820513 890.333333333 -0.820512820513 872.309664694 -0.820512820513 c 0,12,13
 538.871794872 -0.820512820513 538.871794872 -0.820512820513 425.5 280 c 0,14,15
 355.66992665 452.968215159 355.66992665 452.968215159 355.66992665 650.522079615 c 0,16,17
 355.66992665 791.041564792 355.66992665 791.041564792 391 944 c 0,18,19
 506 1440 506 1440 761 1648 c 128,-1,20
 1016 1856 1016 1856 1320 1856 c 0,21,22
 1444 1856 1444 1856 1562.5 1800 c 128,-1,23
 1681 1744 1681 1744 1728 1648 c 1,24,25
 1777.928 1900.8 1777.928 1900.8 1777.928 2083.301376 c 0,26,27
 1777.928 2189.568 1777.928 2189.568 1761 2272 c 1,28,-1
 880 1952 l 1,29,-1
 854 2208 l 1,30,-1
 1663 2496 l 1,31,32
 1563 2656 1563 2656 1373 2784 c 1,33,-1
 1566 3024 l 1,34,35
 1793 2880 1793 2880 1964 2608 c 1,0,-1
952 304 m 0,36,37
 1198 304 1198 304 1337.5 464 c 128,-1,38
 1477 624 1477 624 1551 944 c 0,39,40
 1583.40236686 1084.1183432 1583.40236686 1084.1183432 1583.40236686 1192.02604951 c 0,41,42
 1583.40236686 1330.55621302 1583.40236686 1330.55621302 1530 1416 c 0,43,44
 1435 1568 1435 1568 1244 1568 c 0,45,46
 1025 1568 1025 1568 867 1360 c 128,-1,47
 709 1152 709 1152 661 944 c 0,48,49
 629.618911175 808.297994269 629.618911175 808.297994269 629.618911175 701.369479725 c 0,50,51
 629.618911175 556.148997135 629.618911175 556.148997135 687.5 464 c 0,52,53
 788 304 788 304 952 304 c 0,36,37
EndSplineSet
EndChar

StartChar: ntilde
Encoding: 241 241 179
Width: 1855
GlyphClass: 2
Flags: W
LayerCount: 2
Fore
SplineSet
1663 574 m 2,0,1
 1619 382 1619 382 1595 249 c 1,2,3
 1594 222 1594 222 1612 198 c 128,-1,4
 1630 174 1630 174 1652 174 c 0,5,6
 1679 174 1679 174 1723.5 209.5 c 128,-1,7
 1768 245 1768 245 1804 302 c 2,8,-1
 1966 561 l 1,9,-1
 2011 507 l 1,10,11
 1846 198 1846 198 1726 71.5 c 128,-1,12
 1606 -55 1606 -55 1479 -55 c 0,13,14
 1407 -55 1407 -55 1367.5 -6 c 128,-1,15
 1328 43 1328 43 1321.5 136 c 0,16,17
 1319.53488372 164.11627907 1319.53488372 164.11627907 1319.53488372 194.243374797 c 0,18,19
 1319.53488372 263.76744186 1319.53488372 263.76744186 1330 344 c 0,20,21
 1345 459 1345 459 1380 611 c 2,22,-1
 1557 1376 l 2,23,24
 1572.89781022 1445.37226277 1572.89781022 1445.37226277 1572.89781022 1494.32106132 c 0,25,26
 1572.89781022 1546.97810219 1572.89781022 1546.97810219 1554.5 1576 c 0,27,28
 1519 1632 1519 1632 1380 1632 c 0,29,30
 1269 1632 1269 1632 1171.5 1568 c 128,-1,31
 1074 1504 1074 1504 909 1328 c 1,32,-1
 602 0 l 1,33,-1
 304 0 l 1,34,-1
 747 1920 l 1,35,-1
 1046 1920 l 1,36,-1
 983 1648 l 1,37,38
 1082 1776 1082 1776 1181.5 1848 c 128,-1,39
 1281 1920 1281 1920 1433 1920 c 2,40,-1
 1600 1920 l 2,41,42
 1780 1920 1780 1920 1847.5 1792 c 0,43,44
 1884.39271255 1722.04048583 1884.39271255 1722.04048583 1884.39271255 1618.62361291 c 0,45,46
 1884.39271255 1532.82591093 1884.39271255 1532.82591093 1859 1424 c 2,47,-1
 1663 574 l 2,0,1
2243 2672 m 1,48,49
 1965 2432 1965 2432 1812 2432 c 128,-1,50
 1659 2432 1659 2432 1573 2544 c 2,51,-1
 1425 2736 l 1,52,53
 1359 2816 1359 2816 1247 2816 c 0,54,55
 1122 2816 1122 2816 795 2544 c 1,56,-1
 865 2848 l 1,57,58
 1157 3088 1157 3088 1309 3088 c 0,59,60
 1449 3088 1449 3088 1536 2976 c 2,61,-1
 1683 2784 l 1,62,63
 1748 2704 1748 2704 1874 2704 c 128,-1,64
 2000 2704 2000 2704 2313 2976 c 1,65,-1
 2243 2672 l 1,48,49
EndSplineSet
EndChar

StartChar: ograve
Encoding: 242 242 180
Width: 1975
GlyphClass: 2
Flags: W
LayerCount: 2
Fore
SplineSet
732 1008 m 2,0,-1
 721 960 l 2,1,2
 665.608391608 721.006993007 665.608391608 721.006993007 665.608391608 571.880091936 c 0,3,4
 665.608391608 481.398601399 665.608391608 481.398601399 686 424 c 0,5,6
 740 272 740 272 904 272 c 2,7,-1
 1109 272 l 2,8,9
 1273 272 1273 272 1417 448 c 128,-1,10
 1561 624 1561 624 1638 960 c 2,11,-1
 1649 1008 l 2,12,13
 1690.17293233 1186.04511278 1690.17293233 1186.04511278 1690.17293233 1314.5588784 c 0,14,15
 1690.17293233 1417.02255639 1690.17293233 1417.02255639 1664 1488 c 0,16,17
 1605 1648 1605 1648 1427 1648 c 2,18,-1
 1222 1648 l 2,19,20
 1072 1648 1072 1648 941 1496 c 128,-1,21
 810 1344 810 1344 732 1008 c 2,0,-1
1489 1920 m 2,22,23
 1835 1920 1835 1920 1944.5 1664 c 0,24,25
 2004.00496278 1524.88337469 2004.00496278 1524.88337469 2004.00496278 1343.24211097 c 0,26,27
 2004.00496278 1190.63027295 2004.00496278 1190.63027295 1962 1008 c 2,28,-1
 1951 960 l 2,29,30
 1848 512 1848 512 1613 256 c 128,-1,31
 1378 0 1378 0 1046 0 c 2,32,-1
 842 0 l 2,33,34
 510 0 510 0 403.5 240 c 0,35,36
 351.351724138 357.517241379 351.351724138 357.517241379 351.351724138 532.577407848 c 0,37,38
 351.351724138 715.034482759 351.351724138 715.034482759 408 960 c 2,39,-1
 419 1008 l 2,40,41
 515 1424 515 1424 748 1672 c 128,-1,42
 981 1920 981 1920 1285 1920 c 2,43,-1
 1489 1920 l 2,22,23
1263 3248 m 1,44,-1
 1728 3248 l 1,45,-1
 1976 2544 l 1,46,-1
 1702 2544 l 1,47,-1
 1263 3248 l 1,44,-1
EndSplineSet
EndChar

StartChar: oacute
Encoding: 243 243 181
Width: 1976
GlyphClass: 2
Flags: W
LayerCount: 2
Fore
SplineSet
732 1008 m 2,0,-1
 721 960 l 2,1,2
 665.608391608 721.006993007 665.608391608 721.006993007 665.608391608 571.880091936 c 0,3,4
 665.608391608 481.398601399 665.608391608 481.398601399 686 424 c 0,5,6
 740 272 740 272 904 272 c 2,7,-1
 1109 272 l 2,8,9
 1273 272 1273 272 1417 448 c 128,-1,10
 1561 624 1561 624 1638 960 c 2,11,-1
 1649 1008 l 2,12,13
 1690.17293233 1186.04511278 1690.17293233 1186.04511278 1690.17293233 1314.5588784 c 0,14,15
 1690.17293233 1417.02255639 1690.17293233 1417.02255639 1664 1488 c 0,16,17
 1605 1648 1605 1648 1427 1648 c 2,18,-1
 1222 1648 l 2,19,20
 1072 1648 1072 1648 941 1496 c 128,-1,21
 810 1344 810 1344 732 1008 c 2,0,-1
1489 1920 m 2,22,23
 1835 1920 1835 1920 1944.5 1664 c 0,24,25
 2004.00496278 1524.88337469 2004.00496278 1524.88337469 2004.00496278 1343.24211097 c 0,26,27
 2004.00496278 1190.63027295 2004.00496278 1190.63027295 1962 1008 c 2,28,-1
 1951 960 l 2,29,30
 1848 512 1848 512 1613 256 c 128,-1,31
 1378 0 1378 0 1046 0 c 2,32,-1
 842 0 l 2,33,34
 510 0 510 0 403.5 240 c 0,35,36
 351.351724138 357.517241379 351.351724138 357.517241379 351.351724138 532.577407848 c 0,37,38
 351.351724138 715.034482759 351.351724138 715.034482759 408 960 c 2,39,-1
 419 1008 l 2,40,41
 515 1424 515 1424 748 1672 c 128,-1,42
 981 1920 981 1920 1285 1920 c 2,43,-1
 1489 1920 l 2,22,23
2138 3248 m 1,44,-1
 1374 2544 l 1,45,-1
 1100 2544 l 1,46,-1
 1673 3248 l 1,47,-1
 2138 3248 l 1,44,-1
EndSplineSet
EndChar

StartChar: ocircumflex
Encoding: 244 244 182
Width: 1979
GlyphClass: 2
Flags: W
LayerCount: 2
Fore
SplineSet
734 1008 m 2,0,-1
 723 960 l 2,1,2
 667.608391608 721.006993007 667.608391608 721.006993007 667.608391608 571.880091936 c 0,3,4
 667.608391608 481.398601399 667.608391608 481.398601399 688 424 c 0,5,6
 742 272 742 272 906 272 c 2,7,-1
 1111 272 l 2,8,9
 1275 272 1275 272 1418.5 448 c 128,-1,10
 1562 624 1562 624 1640 960 c 2,11,-1
 1651 1008 l 2,12,13
 1692.01872659 1185.37827715 1692.01872659 1185.37827715 1692.01872659 1313.59553367 c 0,14,15
 1692.01872659 1416.68913858 1692.01872659 1416.68913858 1665.5 1488 c 0,16,17
 1606 1648 1606 1648 1429 1648 c 2,18,-1
 1223 1648 l 2,19,20
 1073 1648 1073 1648 942.5 1496 c 128,-1,21
 812 1344 812 1344 734 1008 c 2,0,-1
1491 1920 m 2,22,23
 1837 1920 1837 1920 1946.5 1664 c 0,24,25
 2005.71111111 1525.57037037 2005.71111111 1525.57037037 2005.71111111 1345.03506173 c 0,26,27
 2005.71111111 1191.7037037 2005.71111111 1191.7037037 1963 1008 c 1,28,-1
 1952 960 l 2,29,30
 1849 512 1849 512 1614 256 c 128,-1,31
 1379 0 1379 0 1048 0 c 2,32,-1
 843 0 l 2,33,34
 511 0 511 0 405 240 c 0,35,36
 352.981481481 357.777777778 352.981481481 357.777777778 352.981481481 533.353909465 c 0,37,38
 352.981481481 715.555555556 352.981481481 715.555555556 409 960 c 1,39,-1
 421 1008 l 1,40,41
 517 1424 517 1424 750 1672 c 128,-1,42
 983 1920 983 1920 1287 1920 c 2,43,-1
 1491 1920 l 2,22,23
1634 3248 m 1,44,-1
 1771 3248 l 1,45,-1
 2121 2672 l 1,46,-1
 1923 2544 l 1,47,-1
 1643 2992 l 1,48,-1
 1170 2544 l 1,49,-1
 1018 2672 l 1,50,-1
 1634 3248 l 1,44,-1
EndSplineSet
EndChar

StartChar: otilde
Encoding: 245 245 183
Width: 2043
GlyphClass: 2
Flags: W
LayerCount: 2
Fore
SplineSet
769 1008 m 2,0,-1
 758 960 l 2,1,2
 702.608391608 721.006993007 702.608391608 721.006993007 702.608391608 571.880091936 c 0,3,4
 702.608391608 481.398601399 702.608391608 481.398601399 723 424 c 0,5,6
 777 272 777 272 941 272 c 2,7,-1
 1146 272 l 2,8,9
 1310 272 1310 272 1454 448 c 128,-1,10
 1598 624 1598 624 1675 960 c 2,11,-1
 1686 1008 l 2,12,13
 1727.17293233 1186.04511278 1727.17293233 1186.04511278 1727.17293233 1314.5588784 c 0,14,15
 1727.17293233 1417.02255639 1727.17293233 1417.02255639 1701 1488 c 0,16,17
 1642 1648 1642 1648 1464 1648 c 2,18,-1
 1259 1648 l 2,19,20
 1109 1648 1109 1648 978 1496 c 128,-1,21
 847 1344 847 1344 769 1008 c 2,0,-1
1526 1920 m 2,22,23
 1872 1920 1872 1920 1981.5 1664 c 0,24,25
 2041.00496278 1524.88337469 2041.00496278 1524.88337469 2041.00496278 1343.24211097 c 0,26,27
 2041.00496278 1190.63027295 2041.00496278 1190.63027295 1999 1008 c 2,28,-1
 1988 960 l 2,29,30
 1885 512 1885 512 1650 256 c 128,-1,31
 1415 0 1415 0 1083 0 c 2,32,-1
 879 0 l 2,33,34
 547 0 547 0 440.5 240 c 0,35,36
 388.351724138 357.517241379 388.351724138 357.517241379 388.351724138 532.577407848 c 0,37,38
 388.351724138 715.034482759 388.351724138 715.034482759 445 960 c 2,39,-1
 456 1008 l 2,40,41
 552 1424 552 1424 785 1672 c 128,-1,42
 1018 1920 1018 1920 1322 1920 c 2,43,-1
 1526 1920 l 2,22,23
2327 2672 m 1,44,45
 2035 2432 2035 2432 1882 2432 c 128,-1,46
 1729 2432 1729 2432 1643 2544 c 2,47,-1
 1496 2736 l 1,48,49
 1431 2816 1431 2816 1306 2816 c 128,-1,50
 1181 2816 1181 2816 853 2544 c 1,51,-1
 924 2848 l 1,52,53
 1216 3088 1216 3088 1368 3088 c 0,54,55
 1521 3088 1521 3088 1606 2976 c 1,56,-1
 1754 2784 l 1,57,58
 1819 2704 1819 2704 1944 2704 c 128,-1,59
 2069 2704 2069 2704 2397 2976 c 1,60,-1
 2327 2672 l 1,44,45
EndSplineSet
EndChar

StartChar: odieresis
Encoding: 246 246 184
Width: 2052
GlyphClass: 2
Flags: W
LayerCount: 2
Fore
SplineSet
773 1008 m 2,0,-1
 762 960 l 2,1,2
 707.560137457 725.113402062 707.560137457 725.113402062 707.560137457 577.031258488 c 0,3,4
 707.560137457 483.024054983 707.560137457 483.024054983 729.5 424 c 0,5,6
 786 272 786 272 953 272 c 2,7,-1
 1157 272 l 2,8,9
 1326 272 1326 272 1473.5 448 c 128,-1,10
 1621 624 1621 624 1698 960 c 2,11,-1
 1709 1008 l 2,12,13
 1749.11721612 1181.47985348 1749.11721612 1181.47985348 1749.11721612 1307.93586389 c 0,14,15
 1749.11721612 1414.73992674 1749.11721612 1414.73992674 1720.5 1488 c 0,16,17
 1658 1648 1658 1648 1474 1648 c 2,18,-1
 1270 1648 l 2,19,20
 1118 1648 1118 1648 984.5 1496 c 128,-1,21
 851 1344 851 1344 773 1008 c 2,0,-1
1537 1920 m 2,22,23
 1892 1920 1892 1920 2003 1664 c 0,24,25
 2063.69458128 1524.01970443 2063.69458128 1524.01970443 2063.69458128 1340.98512461 c 0,26,27
 2063.69458128 1189.28078818 2063.69458128 1189.28078818 2022 1008 c 2,28,-1
 2011 960 l 2,29,30
 1908 512 1908 512 1671 256 c 128,-1,31
 1434 0 1434 0 1094 0 c 2,32,-1
 890 0 l 2,33,34
 553 0 553 0 445.5 240 c 0,35,36
 392.367816092 358.620689655 392.367816092 358.620689655 392.367816092 535.869996036 c 0,37,38
 392.367816092 717.24137931 392.367816092 717.24137931 448 960 c 2,39,-1
 459 1008 l 2,40,41
 555 1424 555 1424 789.5 1672 c 128,-1,42
 1024 1920 1024 1920 1334 1920 c 2,43,-1
 1537 1920 l 2,22,23
1765 2544 m 1,44,-1
 1876 3024 l 1,45,-1
 2317 3024 l 1,46,-1
 2206 2544 l 1,47,-1
 1765 2544 l 1,44,-1
885 2544 m 1,48,-1
 996 3024 l 1,49,-1
 1437 3024 l 1,50,-1
 1326 2544 l 1,51,-1
 885 2544 l 1,48,-1
EndSplineSet
EndChar

StartChar: divide
Encoding: 247 247 185
Width: 2974
GlyphClass: 2
Flags: W
LayerCount: 2
Fore
SplineSet
1697 928 m 0,0,1
 1875.88129496 928 1875.88129496 928 1875.88129496 773.570105067 c 0,2,3
 1875.88129496 735.482014388 1875.88129496 735.482014388 1865 688 c 0,4,5
 1810 448 1810 448 1586 448 c 0,6,7
 1407.11870504 448 1407.11870504 448 1407.11870504 602.429894933 c 0,8,9
 1407.11870504 640.517985612 1407.11870504 640.517985612 1418 688 c 0,10,11
 1474 928 1474 928 1697 928 c 0,0,1
2100 2672 m 0,12,13
 2263.87878788 2672 2263.87878788 2672 2263.87878788 2523.01928375 c 0,14,15
 2263.87878788 2482.90909091 2263.87878788 2482.90909091 2252 2432 c 0,16,17
 2197 2192 2197 2192 1989 2192 c 0,18,19
 1810.11870504 2192 1810.11870504 2192 1810.11870504 2346.42989493 c 0,20,21
 1810.11870504 2384.51798561 1810.11870504 2384.51798561 1821 2432 c 0,22,23
 1877 2672 1877 2672 2100 2672 c 0,12,13
546 1680 m 1,24,-1
 3150 1680 l 1,25,-1
 3091 1424 l 1,26,-1
 487 1424 l 1,27,-1
 546 1680 l 1,24,-1
EndSplineSet
Substitution2: "'vert' Vertical Alternates (obs) in Hiragana & Katakana lookup 0 subtable" divide.vert
EndChar

StartChar: oslash
Encoding: 248 248 186
Width: 2046
GlyphClass: 2
Flags: W
LayerCount: 2
Fore
SplineSet
1634 1371 m 1,0,-1
 788 311 l 1,1,2
 901 207 901 207 1038 207 c 0,3,4
 1216 207 1216 207 1404.5 371 c 128,-1,5
 1593 535 1593 535 1672 878 c 0,6,7
 1700.48351648 1002.21978022 1700.48351648 1002.21978022 1700.48351648 1105.31167733 c 0,8,9
 1700.48351648 1262.81318681 1700.48351648 1262.81318681 1634 1371 c 1,0,-1
530 207 m 1,10,11
 362.441358025 413.391975309 362.441358025 413.391975309 362.441358025 674.602518671 c 0,12,13
 362.441358025 776.62037037 362.441358025 776.62037037 388 887 c 0,14,15
 468 1234 468 1234 756 1521 c 128,-1,16
 1044 1808 1044 1808 1403 1808 c 0,17,18
 1597 1808 1597 1808 1731 1728 c 1,19,-1
 1996 2068 l 2,20,21
 2047 2133 2047 2133 2095 2157.5 c 128,-1,22
 2143 2182 2143 2182 2208 2182 c 0,23,24
 2300 2182 2300 2182 2354.5 2112.5 c 0,25,26
 2405.27350427 2047.75213675 2405.27350427 2047.75213675 2405.27350427 1944.38169333 c 0,27,28
 2405.27350427 1936.79487179 2405.27350427 1936.79487179 2405 1929 c 1,29,30
 2400 1832 2400 1832 2352 1766.5 c 128,-1,31
 2304 1701 2304 1701 2236 1701 c 0,32,33
 2181 1701 2181 1701 2106 1758 c 1,34,35
 2058 1800 2058 1800 2023 1800 c 0,36,37
 2003 1800 2003 1800 1984 1786 c 0,38,39
 1971.38626916 1777.5908461 1971.38626916 1777.5908461 1956.24704298 1762.68756136 c 1,40,-1
 1842 1616 l 1,41,42
 2039.45430809 1409.92950392 2039.45430809 1409.92950392 2039.45430809 1110.0295455 c 0,43,44
 2039.45430809 992.250652742 2039.45430809 992.250652742 2009 860 c 0,45,46
 1922 482 1922 482 1636 232.5 c 128,-1,47
 1350 -17 1350 -17 990 -17 c 0,48,49
 755 -17 755 -17 642 95 c 1,50,-1
 338 -256 l 1,51,-1
 220 -152 l 1,52,-1
 530 207 l 1,10,11
1532 1461 m 1,53,54
 1451.3442623 1520.01639344 1451.3442623 1520.01639344 1344.56651438 1520.01639344 c 0,55,56
 1342.78688525 1520.01639344 1342.78688525 1520.01639344 1341 1520 c 1,57,58
 1163 1520 1163 1520 974.5 1356 c 128,-1,59
 786 1192 786 1192 710 864 c 0,60,61
 681.231404959 740.148760331 681.231404959 740.148760331 681.231404959 641.262003961 c 0,62,63
 681.231404959 537.347107438 681.231404959 537.347107438 713 461 c 1,64,-1
 1532 1461 l 1,53,54
EndSplineSet
EndChar

StartChar: ugrave
Encoding: 249 249 187
Width: 1795
GlyphClass: 2
Flags: W
LayerCount: 2
Fore
SplineSet
1630 582 m 2,0,1
 1585 386 1585 386 1566 266 c 1,2,3
 1566 239 1566 239 1584 215.5 c 128,-1,4
 1602 192 1602 192 1624 192 c 0,5,6
 1653 192 1653 192 1701.5 233.5 c 128,-1,7
 1750 275 1750 275 1792 343 c 2,8,-1
 1940 580 l 1,9,-1
 1992 524 l 1,10,11
 1817 203 1817 203 1692.5 74.5 c 128,-1,12
 1568 -54 1568 -54 1431 -54 c 0,13,14
 1375 -54 1375 -54 1337 -30.5 c 128,-1,15
 1299 -7 1299 -7 1280 39 c 128,-1,16
 1261 85 1261 85 1254 143 c 0,17,18
 1250.5 172 1250.5 172 1250.5 206 c 128,-1,19
 1250.5 240 1250.5 240 1254 279 c 0,20,21
 1261 357 1261 357 1274.5 436 c 0,22,23
 1286.66629367 507.195348154 1286.66629367 507.195348154 1305.73606589 592.197653394 c 2,24,-1
 1612 1920 l 1,25,-1
 1939 1920 l 1,26,-1
 1630 582 l 2,0,1
1188 3248 m 1,27,-1
 1658 3248 l 1,28,-1
 1913 2544 l 1,29,-1
 1632 2544 l 1,30,-1
 1188 3248 l 1,27,-1
1015.20196488 324.474527465 m 1,31,32
 1192.18061693 497.016596841 1192.18061693 497.016596841 1310 611 c 1,33,34
 1307.82655265 601.515866111 1307.82655265 601.515866111 1305.73606589 592.197653394 c 2,35,-1
 1302 576 l 1,36,37
 1153.20733681 390.492262899 1153.20733681 390.492262899 1015.20196488 324.474527465 c 1,31,32
1015.20196488 324.474527465 m 1,38,39
 869.225181685 182.157156911 869.225181685 182.157156911 683 0 c 1,40,41
 475 0 475 0 395.5 136 c 0,42,43
 349.866425993 214.064981949 349.866425993 214.064981949 349.866425993 331.668078562 c 0,44,45
 349.866425993 418.945848375 349.866425993 418.945848375 375 528 c 2,46,-1
 696 1920 l 1,47,-1
 1023 1920 l 1,48,-1
 706 544 l 2,49,50
 693.478417266 489.669064748 693.478417266 489.669064748 693.478417266 446.868795611 c 0,51,52
 693.478417266 288 693.478417266 288 866 288 c 0,53,54
 938.954562512 288 938.954562512 288 1015.20196488 324.474527465 c 1,38,39
EndSplineSet
EndChar

StartChar: uacute
Encoding: 250 250 188
Width: 1794
GlyphClass: 2
Flags: W
LayerCount: 2
Fore
SplineSet
1629 582 m 2,0,1
 1584 386 1584 386 1565 266 c 1,2,3
 1565 239 1565 239 1583 215.5 c 128,-1,4
 1601 192 1601 192 1623 192 c 0,5,6
 1652 192 1652 192 1700.5 233.5 c 128,-1,7
 1749 275 1749 275 1791 343 c 2,8,-1
 1939 580 l 1,9,-1
 1991 524 l 1,10,11
 1816 203 1816 203 1691.5 74.5 c 128,-1,12
 1567 -54 1567 -54 1430 -54 c 0,13,14
 1374 -54 1374 -54 1336 -30.5 c 128,-1,15
 1298 -7 1298 -7 1279 39 c 128,-1,16
 1260 85 1260 85 1253 143 c 0,17,18
 1249.5 172 1249.5 172 1249.5 206 c 128,-1,19
 1249.5 240 1249.5 240 1253 279 c 0,20,21
 1260 357 1260 357 1273.5 436 c 0,22,23
 1285.66629367 507.195348154 1285.66629367 507.195348154 1304.73606589 592.197653394 c 2,24,-1
 1611 1920 l 1,25,-1
 1938 1920 l 1,26,-1
 1629 582 l 2,0,1
2074 3248 m 1,27,-1
 1303 2544 l 1,28,-1
 1024 2544 l 1,29,-1
 1603 3248 l 1,30,-1
 2074 3248 l 1,27,-1
1014.20196488 324.474527465 m 1,31,32
 1191.18061693 497.016596841 1191.18061693 497.016596841 1309 611 c 1,33,34
 1306.82655265 601.515866111 1306.82655265 601.515866111 1304.73606589 592.197653394 c 2,35,-1
 1301 576 l 1,36,37
 1152.20733681 390.492262899 1152.20733681 390.492262899 1014.20196488 324.474527465 c 1,31,32
1014.20196488 324.474527465 m 1,38,39
 868.225181685 182.157156911 868.225181685 182.157156911 682 0 c 1,40,41
 474 0 474 0 394.5 136 c 0,42,43
 348.866425993 214.064981949 348.866425993 214.064981949 348.866425993 331.668078562 c 0,44,45
 348.866425993 418.945848375 348.866425993 418.945848375 374 528 c 2,46,-1
 695 1920 l 1,47,-1
 1022 1920 l 1,48,-1
 705 544 l 2,49,50
 692.478417266 489.669064748 692.478417266 489.669064748 692.478417266 446.868795611 c 0,51,52
 692.478417266 288 692.478417266 288 865 288 c 0,53,54
 937.954562512 288 937.954562512 288 1014.20196488 324.474527465 c 1,38,39
EndSplineSet
EndChar

StartChar: ucircumflex
Encoding: 251 251 189
Width: 1837
GlyphClass: 2
Flags: W
LayerCount: 2
Fore
SplineSet
1505 0 m 1,0,-1
 1178 0 l 1,1,-1
 1226 208 l 1,2,3
 1011 0 1011 0 693 0 c 0,4,5
 485 0 485 0 405 136 c 0,6,7
 358.956834532 214.273381295 358.956834532 214.273381295 358.956834532 332.296257958 c 0,8,9
 358.956834532 419.338129496 358.956834532 419.338129496 384 528 c 2,10,-1
 706 1920 l 1,11,-1
 1033 1920 l 1,12,-1
 715 544 l 2,13,14
 702.478417266 489.669064748 702.478417266 489.669064748 702.478417266 446.868795611 c 0,15,16
 702.478417266 288 702.478417266 288 875 288 c 0,17,18
 1080 288 1080 288 1311 576 c 1,19,-1
 1622 1920 l 1,20,-1
 1948 1920 l 1,21,-1
 1505 0 l 1,0,-1
1572 3248 m 1,22,-1
 1709 3248 l 1,23,-1
 2069 2688 l 1,24,-1
 1851 2544 l 1,25,-1
 1581 2992 l 1,26,-1
 1106 2544 l 1,27,-1
 954 2688 l 1,28,-1
 1572 3248 l 1,22,-1
EndSplineSet
EndChar

StartChar: udieresis
Encoding: 252 252 190
Width: 1878
GlyphClass: 2
Flags: W
LayerCount: 2
Fore
SplineSet
1684 582 m 2,0,1
 1639 386 1639 386 1619 266 c 1,2,3
 1619 239 1619 239 1637 215.5 c 128,-1,4
 1655 192 1655 192 1677 192 c 0,5,6
 1706 192 1706 192 1754.5 233.5 c 128,-1,7
 1803 275 1803 275 1846 343 c 2,8,-1
 1994 580 l 1,9,-1
 2046 524 l 1,10,11
 1871 203 1871 203 1746.5 74.5 c 128,-1,12
 1622 -54 1622 -54 1485 -54 c 0,13,14
 1429 -54 1429 -54 1390.5 -30.5 c 128,-1,15
 1352 -7 1352 -7 1333 39 c 128,-1,16
 1314 85 1314 85 1307 143 c 0,17,18
 1303.5 172 1303.5 172 1303.5 206 c 128,-1,19
 1303.5 240 1303.5 240 1307 279 c 0,20,21
 1314 357 1314 357 1327.5 436 c 0,22,23
 1339.54761577 506.500862658 1339.54761577 506.500862658 1358.36468498 590.540632189 c 2,24,-1
 1666 1920 l 1,25,-1
 1993 1920 l 1,26,-1
 1684 582 l 2,0,1
1696 2544 m 1,27,-1
 1807 3024 l 1,28,-1
 2234 3024 l 1,29,-1
 2123 2544 l 1,30,-1
 1696 2544 l 1,27,-1
831 2544 m 1,31,-1
 941 3024 l 1,32,-1
 1368 3024 l 1,33,-1
 1257 2544 l 1,34,-1
 831 2544 l 1,31,-1
1067.94867762 325.583555036 m 1,35,36
 1245.01323561 497.383115773 1245.01323561 497.383115773 1363 611 c 1,37,38
 1360.63315163 600.671934369 1360.63315163 600.671934369 1358.36468498 590.540632189 c 2,39,-1
 1355 576 l 1,40,41
 1206.17024678 392.038761092 1206.17024678 392.038761092 1067.94867762 325.583555036 c 1,35,36
1067.94867762 325.583555036 m 1,42,43
 920.858702081 182.867286299 920.858702081 182.867286299 733 0 c 1,44,45
 523 0 523 0 443 136 c 0,46,47
 396.956834532 214.273381295 396.956834532 214.273381295 396.956834532 332.296257958 c 0,48,49
 396.956834532 419.338129496 396.956834532 419.338129496 422 528 c 2,50,-1
 743 1920 l 1,51,-1
 1071 1920 l 1,52,-1
 753 544 l 2,53,54
 740.567857143 490.057142857 740.567857143 490.057142857 740.567857143 447.480816327 c 0,55,56
 740.567857143 288 740.567857143 288 915 288 c 0,57,58
 989.777859168 288 989.777859168 288 1067.94867762 325.583555036 c 1,42,43
EndSplineSet
EndChar

StartChar: yacute
Encoding: 253 253 191
Width: 1580
GlyphClass: 2
Flags: W
LayerCount: 2
Fore
SplineSet
1893 1920 m 1,0,-1
 523 -576 l 1,1,-1
 208 -576 l 1,2,-1
 611 160 l 1,3,-1
 538 1920 l 1,4,-1
 839 1920 l 1,5,-1
 878 608 l 1,6,-1
 1578 1920 l 1,7,-1
 1893 1920 l 1,0,-1
1926 3248 m 1,8,-1
 1202 2544 l 1,9,-1
 942 2544 l 1,10,-1
 1488 3248 l 1,11,-1
 1926 3248 l 1,8,-1
EndSplineSet
EndChar

StartChar: thorn
Encoding: 254 254 192
Width: 1972
GlyphClass: 2
Flags: W
LayerCount: 2
Fore
SplineSet
1175 512 m 0,0,1
 1531 512 1531 512 1679 1152 c 0,2,3
 1722.72055888 1341.06187625 1722.72055888 1341.06187625 1722.72055888 1475.66940371 c 0,4,5
 1722.72055888 1796.72654691 1722.72055888 1796.72654691 1474 1808 c 1,6,7
 1187 1808 1187 1808 946 1536 c 1,8,-1
 750 688 l 1,9,10
 915 512 915 512 1175 512 c 0,0,1
214 -464 m 1,11,-1
 949 2720 l 1,12,-1
 1219 2720 l 1,13,-1
 1035 1920 l 1,14,15
 1332 2128 1332 2128 1567 2128 c 0,16,17
 1857 2128 1857 2128 1977.5 1872 c 0,18,19
 2041.32527473 1736.4043956 2041.32527473 1736.4043956 2041.32527473 1542.45425432 c 0,20,21
 2041.32527473 1370.23296703 2041.32527473 1370.23296703 1991 1152 c 0,22,23
 1876 656 1876 656 1629 424 c 128,-1,24
 1382 192 1382 192 1106 192 c 0,25,26
 857 192 857 192 676 368 c 1,27,-1
 484 -464 l 1,28,-1
 214 -464 l 1,11,-1
EndSplineSet
EndChar

StartChar: ydieresis
Encoding: 255 255 193
Width: 1702
GlyphClass: 2
Flags: W
LayerCount: 2
Fore
SplineSet
1984 1920 m 1,0,-1
 598 -576 l 1,1,-1
 277 -576 l 1,2,-1
 686 160 l 1,3,-1
 598 1920 l 1,4,-1
 910 1920 l 1,5,-1
 954 608 l 1,6,-1
 1662 1920 l 1,7,-1
 1984 1920 l 1,0,-1
1606 2544 m 1,8,-1
 1717 3024 l 1,9,-1
 2115 3024 l 1,10,-1
 2005 2544 l 1,11,-1
 1606 2544 l 1,8,-1
783 2544 m 1,12,-1
 894 3024 l 1,13,-1
 1293 3024 l 1,14,-1
 1182 2544 l 1,15,-1
 783 2544 l 1,12,-1
EndSplineSet
EndChar

StartChar: Amacron
Encoding: 256 256 194
Width: 1791
GlyphClass: 2
Flags: W
LayerCount: 2
Fore
SplineSet
877 960 m 1,0,-1
 1354 960 l 1,1,-1
 1333 1904 l 1,2,-1
 877 960 l 1,0,-1
1623 0 m 1,3,-1
 1355 0 l 1,4,-1
 1347 672 l 1,5,-1
 751 672 l 1,6,-1
 433 0 l 1,7,-1
 165 0 l 1,8,-1
 1288 2352 l 1,9,-1
 1586 2352 l 1,10,-1
 1623 0 l 1,3,-1
2224 2992 m 1,11,-1
 945 2992 l 1,12,-1
 1008 3264 l 1,13,-1
 2287 3264 l 1,14,-1
 2224 2992 l 1,11,-1
EndSplineSet
EndChar

StartChar: amacron
Encoding: 257 257 195
Width: 1898
GlyphClass: 2
Flags: W
LayerCount: 2
Fore
SplineSet
1506 1040 m 1,0,-1
 1232 1040 l 2,1,2
 807 1040 807 1040 691 592 c 1,3,4
 670.874651811 504.86908078 670.874651811 504.86908078 670.874651811 438.368044941 c 0,5,6
 670.874651811 224 670.874651811 224 880 224 c 0,7,8
 1099 224 1099 224 1366 432 c 1,9,-1
 1506 1040 l 1,0,-1
1607 0 m 1,10,-1
 1352 0 l 1,11,-1
 1335 176 l 1,12,13
 1087 0 1087 0 754 0 c 0,14,15
 364.9359375 0 364.9359375 0 364.9359375 369.610859375 c 0,16,17
 364.9359375 474.05 364.9359375 474.05 396 608 c 0,18,19
 551 1280 551 1280 1285 1280 c 2,20,-1
 1562 1280 l 1,21,-1
 1588 1392 l 2,22,23
 1602.1865285 1453.34715026 1602.1865285 1453.34715026 1602.1865285 1501.75736261 c 0,24,25
 1602.1865285 1579.60621762 1602.1865285 1579.60621762 1565.5 1624 c 0,26,27
 1506 1696 1506 1696 1382 1696 c 2,28,-1
 1147 1696 l 2,29,30
 913 1696 913 1696 745 1568 c 1,31,-1
 676 1760 l 1,32,33
 936 1920 936 1920 1187 1920 c 2,34,-1
 1493 1920 l 2,35,36
 1674 1920 1674 1920 1801.5 1808 c 0,37,38
 1883.81012658 1735.69620253 1883.81012658 1735.69620253 1883.81012658 1583.37445922 c 0,39,40
 1883.81012658 1499.74683544 1883.81012658 1499.74683544 1859 1392 c 2,41,-1
 1634 416 l 1,42,-1
 1607 0 l 1,10,-1
2312 2992 m 1,43,-1
 946 2992 l 1,44,-1
 1009 3264 l 1,45,-1
 2374 3264 l 1,46,-1
 2312 2992 l 1,43,-1
EndSplineSet
EndChar

StartChar: Abreve
Encoding: 258 258 196
Width: 1774
GlyphClass: 2
Flags: W
LayerCount: 2
Fore
SplineSet
871 960 m 1,0,-1
 1332 960 l 1,1,-1
 1327 1904 l 1,2,-1
 871 960 l 1,0,-1
1617 0 m 1,3,-1
 1349 0 l 1,4,-1
 1325 672 l 1,5,-1
 730 672 l 1,6,-1
 411 0 l 1,7,-1
 158 0 l 1,8,-1
 1282 2352 l 1,9,-1
 1564 2352 l 1,10,-1
 1617 0 l 1,3,-1
2370 3520 m 1,11,12
 2182 2704 2182 2704 1527 2704 c 0,13,14
 990.467889908 2704 990.467889908 2704 990.467889908 3206.07591954 c 0,15,16
 990.467889908 3344.0733945 990.467889908 3344.0733945 1031 3520 c 1,17,-1
 1224 3520 l 1,18,19
 1195.65224359 3397.23076923 1195.65224359 3397.23076923 1195.65224359 3300.62869822 c 0,20,21
 1195.65224359 2944 1195.65224359 2944 1582 2944 c 1,22,23
 2062 2960 2062 2960 2191 3520 c 1,24,-1
 2370 3520 l 1,11,12
EndSplineSet
EndChar

